<svg xmlns="http://www.w3.org/2000/svg" width="274114.681" height="204061.761" viewBox="0 0 256.98251 191.3079"><path d="M124.58 3.297c-2.817.682-6.044.397-8.49-.422-2.99 1.514-6.986 5.002-10.238 2.333-3.848 1.154-4.356 4.766-6.48 7.41-2.258 3.128-5.224 4.53-9.072 3.897-3.102-1.167-6.813-1.427-9.308 1.216 2.52 5.388 7.93 10.092 7.223 16.422-2.296 3.65 7.832 3.71 3.327 6.23.186 3.476 3.81 7.05 3.61 9.78-2.915 2.743-6.502-.47-9.568-1.315-4.02-.794-3.388-4.158-1.018-6.48-1.948-1.873-9.122-2.245-8.08 1.39-2.494.05-4.728-2.06-7.782-.954-4.617-.547-7.41.806-3.65 5.026 4.57 1.8 1.317 5.857 1.454 9.395.943 3.264 4.542 6.07 8.278 5.175 3.972-.074 7.286 4.456 11.43 2.048 2.682-1.613 6.616-1.23 5.946 2.346-3.14 2.57-1.688 7.608-3.45 10.86-2.433 2.333-5.623 1.973-8.18.2-1.886 1.7-5.833 4.566-7.794 2.754.894-4.605-5.92-4.506-6.84-.757-1.5 4.928-7.78 5.536-10.312 9.47-.87 3.004-1.924 8.316 2.16 7.82 1.563 1.378-1.49 5.957-3.44 6.85 2.012 2.72 3.29 5.698 3.377 9.11 2.122 1.925 7.88 2.46 9.31-.197 3.04-1.18 2.22 5.088 2.58 7.41 3.066 3.66-4.99 1.588-1.998 5.66-1.055 3.635-2.184 6.23 2.482 3.375 3.426-.584 6.343-.857 7.025 2.594 3.215-4.853 2.805 3.45 4.034 5.783.732-.93 1.613-7.062 4.89-3.797-.21 5.61 6.615-.56 7.174-.05.67 3.624-2.023 5.262-3.55 7.956-1.874 2.78-2.57 6.987-5.225 8.9-4.803-.523-4.183 5.087-6.826 6.23-3.29-.894-7.113.88-10.477 1.75-1.675 2.99-4.48 5.212-7.173 2.246-3.178.062-6.988.844-9.47 2.892-3.078 3.016-7.844 3.86-11.99 2.842-3.45-2.37-8.824 4.232-3.86 2.867 3.103-2.37 5.784.795 8.998.783 2.743-1.428 5.176-3.413 8.49-2.557 2.88-4.158 6.33-.397 9.83-1.44 2.867-.484 8.7-4.853 6.528.82.112-3.612 4.245-3.39 6.876-2.532 5.225 1.19.36-3.922 2.582-4.258 4.307-2.544 9.333-2.99 13.9-4.617 6.802-3.96 14.423-7.075 20.12-12.536 5.3-3.686-3.45-4.32-1.502-7.844 2.085-3.016 5.684-4.73 9.27-5.585 1.863-3.81 4.382-7.584 7.3-10.575 3.09-1.638 5.994-4.208 9.717-2.88 3.313.882 4.64 6.603-.646 4.543-1.576-2.333-6.9-.112-6.516 2.99-.26 3.03-3.177 5.24-3.798 8.267 5.945 1.055.298 4.394-1.713 4.717 2.073 2.37 7.025.744 9.396-1.415 1.55-2.296 4.257-4.717 6.714-5.238 2.247 3.475 6.33-1.44 7.124 3.376.883 3.45 7.473-6.032 4.147-3.848-3.76 3.86-4.692 3.55-2.408-1.54 1.774-6.018-2.185 7.66-1.8 1.007-1.006-3.96-1.155-7.485 3.785-7.945 3.35-1.067 6.665-1.08 7.186 3.128.522 4.32 4.717 3.525 7.386 5.908 2.99 2.732 5.908 2.42 9.68 2.21 5.387-.583 9.942 5.014 15.242 3.935 3.09-.522 6.33-6.454 5.325-.286-2.805 3.512-.025 5.113 3.103 6.714 3.884 1.675 7.285 3.897 9.854 7.26 1.626 3.75 7.51.348 7.67 3.017-4.753 1.552-1.526 4.394.26 6.79 2.248 2.42.41 7.1 4.52 7.223 1.414 1.59 4.33 9.234 4.976 6.677-.434-2.88-.87-9.755 1.998-4.666.46 1.762 1.29 10.798 2.57 5.883 1.327-6.057 3.946.223 2.755 3.636 4.132 2.098-1.528 4.133.855 6.057.857-4.02 1.626-.447 2.68 1.936 1.304 1.24 1.912 4.89 3.886 4.617-2.084-2.134-3.648-7.732.497-3.723 3.004 3.463 5.027 2.63 3.4-2.06-3.288-3.302.35-6.156 3.203-2.843 3.873-.062 3.525 6.467 6.553 5.623 4.11-3.935 1.862-9.768.857-14.522-4.096-1.923-8.738-3.152-12.685-5.04-1.86-6.614-7.807-10.784-10.425-17.09-.546-4.132-5.846-3.25-7.137-6.49-2.88-2.135-3.35-5.462-5.66-7.882-2.047-1.9-6.478 1.18-6.838 3.65.732 3.834-4.01 3.772-6.28 5.857.062-5.3-5.337-7.633-8.316-11.294-1.652-2.47-1.64-6.654-5.524-2.905-2.942.298-7.92-.385-6.628-4.493.124-34.38.248-68.76.385-103.127-3.413-2.333-7.298-5.176-11.357-5.46-3.127 2.134-6.292 1.352-9.172-.77-3.376.285-6.354-.807-9.557-3.588-3.822-3.4-10.65.21-13.627-4.53 1.402-4.418-3.997-5.995-6.206-2.594-2.594.323-.807-5.35-4.518-6.12-3.19-3.536-4.977-1.587-7.273 1.503zM35.89 57.994c-.833 3.86 5.298 1.626 5.857 5.784.298 4.74 6.665 4.84 2.904-.1-.123-3.996-4.864-2.27-6.28-5.498-.942-2.507-1.116-2.308-2.48-.198zM14.59 86.74c3.19 5.038 1.8 1.7.162-1.59-.447.013 0 1.242-.162 1.59zm27.107 18.38c1.576 2.222 6.193 6.926 7.72 2.52 2.805-4.096-4.06-3.587-6.49-4.567-2.272-1.117-1.093.67-1.23 2.048zm113.838 23.31c.075 3.983 3.488-2.458 0 0zm-39.06 18.232c-3.97 3.61-8.985 5.796-13.105 9.16.273 3.413 1.228 9.482 5.796 6.39 3.103-1.786 6.18-3.598 9.246-5.423-2.283-4.11-1.005-3.91-5.647-4.32-5.15.112 1.316-4.63 3.277-2.01 4.642-1.29 4.902-2.93 1.862-4.543.868-1.34-1.242.757-1.44.732zM59.93 169.846c1.762 3.513 4.38-2.47 0 0zm-44.41.422c.66 3.054-5.013 6.007 1.305 4.456 5.212.583 4.294-5.4.012-4.766-.434.1-.87.2-1.316.298zm77.188.857c1.95 3.61 1.626-2.52 0 0zM63.504 172.8c4.01.608 1.23-3.785 0 0zm-60.816.112c-6.007 3.177-.546 2.246 2.842.72 3.587.198 6.268-.596 1.043-1.812-1.29.36-2.582.72-3.885 1.092zm8.998 1.713c1.59.26-2.768-.733 0 0z" class="state-svg"/></svg>