<?xml version="1.0" encoding="UTF-8" standalone="no"?>
<!-- Created with Inkscape (http://www.inkscape.org/) -->

<svg
   xmlns:dc="http://purl.org/dc/elements/1.1/"
   xmlns:cc="http://creativecommons.org/ns#"
   xmlns:rdf="http://www.w3.org/1999/02/22-rdf-syntax-ns#"
   xmlns:svg="http://www.w3.org/2000/svg"
   xmlns="http://www.w3.org/2000/svg"
   xmlns:sodipodi="http://sodipodi.sourceforge.net/DTD/sodipodi-0.dtd"
   xmlns:inkscape="http://www.inkscape.org/namespaces/inkscape"
   width="72.526176mm"
   height="53.991341mm"
   viewBox="0 0 256.98251 191.3079"
   id="svg2"
   version="1.1"
   inkscape:version="0.91 r13725"
   sodipodi:docname="ak.svg">
  <defs
     id="defs4" />
  <sodipodi:namedview
     id="base"
     pagecolor="#ffffff"
     bordercolor="#666666"
     borderopacity="1.0"
     inkscape:pageopacity="0.0"
     inkscape:pageshadow="2"
     inkscape:zoom="0.35"
     inkscape:cx="507.57669"
     inkscape:cy="82.069323"
     inkscape:document-units="px"
     inkscape:current-layer="layer1"
     showgrid="false"
     inkscape:window-width="1920"
     inkscape:window-height="1017"
     inkscape:window-x="3832"
     inkscape:window-y="-8"
     inkscape:window-maximized="1" />
  <metadata
     id="metadata7">
    <rdf:RDF>
      <cc:Work
         rdf:about="">
        <dc:format>image/svg+xml</dc:format>
        <dc:type
           rdf:resource="http://purl.org/dc/dcmitype/StillImage" />
        <dc:title></dc:title>
      </cc:Work>
    </rdf:RDF>
  </metadata>
  <g
     inkscape:label="Layer 1"
     inkscape:groupmode="layer"
     id="layer1"
     transform="translate(634.00527,-423.12366)">
    <path
       inkscape:connector-curvature="0"
       style="fill-opacity:1"
       d="m -509.4244,426.42049 c -2.8174,0.68263 -6.04439,0.39717 -8.48944,-0.42199 -2.99117,1.5142 -6.98766,5.00182 -10.23947,2.33336 -3.84755,1.15426 -4.35642,4.766 -6.47878,7.40964 -2.25889,3.12769 -5.22523,4.53019 -9.07278,3.89721 -3.10287,-1.16668 -6.8139,-1.42732 -9.3086,1.21632 2.51953,5.38658 7.93093,10.09052 7.22347,16.42037 -2.29612,3.64897 7.83164,3.71103 3.32628,6.23056 0.18617,3.47521 3.81032,7.04971 3.61173,9.78023 -2.91669,2.74294 -6.50361,-0.47163 -9.56924,-1.31561 -4.02131,-0.79434 -3.38833,-4.15784 -1.01774,-6.47879 -1.9486,-1.87413 -9.12243,-2.24647 -8.07986,1.39009 -2.49471,0.0496 -4.72877,-2.06031 -7.78199,-0.95569 -4.61707,-0.5461 -7.40965,0.80675 -3.64897,5.02665 4.56742,1.79966 1.31561,5.85821 1.45214,9.39548 0.94327,3.26422 4.54259,6.06921 8.27845,5.17558 3.97166,-0.0745 7.28553,4.45572 11.43096,2.04789 2.68087,-1.61349 6.61531,-1.22873 5.94509,2.34577 -3.1401,2.56918 -1.68796,7.60823 -3.45039,10.86004 -2.43265,2.33335 -5.62239,1.97342 -8.17916,0.19858 -1.88654,1.70037 -5.83338,4.56742 -7.7944,2.75534 0.89363,-4.60465 -5.92027,-4.50536 -6.83871,-0.75709 -1.50179,4.92735 -7.78199,5.53551 -10.31393,9.46995 -0.86881,3.00357 -1.92378,8.31568 2.15959,7.81922 1.56385,1.37767 -1.48937,5.95751 -3.43798,6.85113 2.01066,2.71812 3.28904,5.69687 3.37592,9.11002 2.12236,1.92378 7.88129,2.45747 9.3086,-0.19858 3.04081,-1.17909 2.22166,5.0887 2.58159,7.40964 3.06563,3.66139 -4.98941,1.58867 -1.99825,5.65963 -1.05497,3.63656 -2.18441,6.23056 2.4823,3.37592 3.42556,-0.58334 6.34226,-0.85639 7.02489,2.594 3.21457,-4.85289 2.80499,3.45039 4.03372,5.78374 0.73228,-0.93086 1.61349,-7.06212 4.89012,-3.79791 -0.21099,5.60999 6.61531,-0.55851 7.17383,-0.0496 0.67022,3.62414 -2.02307,5.26246 -3.54968,7.95575 -1.87413,2.78017 -2.56917,6.98765 -5.22523,8.89902 -4.80324,-0.52128 -4.18266,5.0887 -6.8263,6.23056 -3.28904,-0.89363 -7.11177,0.88121 -10.47528,1.75001 -1.67555,2.99117 -4.48054,5.21282 -7.17383,2.24648 -3.17734,0.062 -6.98766,0.84398 -9.46995,2.89187 -3.07804,3.01599 -7.84405,3.85997 -11.98948,2.84223 -3.45038,-2.37059 -8.82455,4.23231 -3.85996,2.86704 3.10286,-2.37059 5.78374,0.79434 8.99831,0.78193 2.74293,-1.42732 5.17558,-3.41316 8.48944,-2.55677 2.87946,-4.15784 6.32985,-0.39716 9.82989,-1.43973 2.86704,-0.48404 8.70043,-4.85288 6.52843,0.81916 0.1117,-3.61174 4.24472,-3.38833 6.87595,-2.53194 5.22523,1.1915 0.35993,-3.92202 2.58159,-4.25713 4.30677,-2.54435 9.33342,-2.99116 13.90084,-4.61707 6.80148,-3.95926 14.42212,-7.07453 20.11898,-12.53558 5.2997,-3.6862 -3.45038,-4.31919 -1.50178,-7.84405 2.08512,-3.01598 5.68445,-4.72876 9.27136,-5.58516 1.86172,-3.81032 4.38125,-7.5834 7.29794,-10.57457 3.09046,-1.63831 5.99474,-4.20748 9.71818,-2.87946 3.31387,0.88122 4.64189,6.6029 -0.64539,4.5426 -1.57626,-2.33336 -6.90078,-0.1117 -6.51602,2.99116 -0.26064,3.0284 -3.17734,5.23764 -3.79791,8.26604 5.94509,1.05498 0.29787,4.39366 -1.71278,4.71636 2.07271,2.37059 7.02489,0.74469 9.39548,-1.41491 1.55143,-2.29612 4.25713,-4.71636 6.7146,-5.23764 2.24648,3.47521 6.32985,-1.43973 7.12418,3.37592 0.88122,3.45039 7.4717,-6.03197 4.14543,-3.84755 -3.76067,3.85996 -4.69153,3.54968 -2.40782,-1.53903 1.77484,-6.01956 -2.18442,7.65788 -1.79967,1.00533 -1.00532,-3.95925 -1.15426,-7.48411 3.7855,-7.94334 3.3511,-1.06738 6.66496,-1.07979 7.18624,3.12769 0.52128,4.31919 4.71636,3.52486 7.38482,5.90786 2.99117,2.73053 5.90786,2.42024 9.68095,2.20924 5.38658,-0.58334 9.94158,5.01424 15.24128,3.93444 3.09046,-0.52128 6.32985,-6.45396 5.32452,-0.28546 -2.80499,3.51244 -0.0248,5.11352 3.10287,6.7146 3.88479,1.67555 7.28553,3.8972 9.8547,7.26071 1.6259,3.74826 7.50894,0.34752 7.67029,3.01598 -4.75359,1.55144 -1.52661,4.39366 0.26064,6.78908 2.24647,2.42023 0.40958,7.09935 4.51777,7.22347 1.41491,1.58867 4.3316,9.23413 4.977,6.67737 -0.4344,-2.87946 -0.8688,-9.75541 1.99825,-4.66671 0.45922,1.76243 1.29079,10.79797 2.56917,5.88303 1.32803,-6.05679 3.94685,0.22341 2.75535,3.63656 4.13301,2.09754 -1.52661,4.13302 0.85639,6.0568 0.85639,-4.02132 1.6259,-0.44681 2.68087,1.93619 1.30321,1.24114 1.91137,4.89012 3.88479,4.61706 -2.08512,-2.13477 -3.64897,-7.73234 0.49646,-3.72344 3.00358,3.4628 5.02665,2.63123 3.40074,-2.0603 -3.28903,-3.30145 0.34752,-6.15609 3.20216,-2.84223 3.87238,-0.062 3.52486,6.46638 6.55326,5.6224 4.10819,-3.93444 1.86172,-9.76783 0.85639,-14.52142 -4.09579,-1.92378 -8.73767,-3.15251 -12.68452,-5.03905 -1.86172,-6.61532 -7.80681,-10.78557 -10.42563,-17.09059 -0.54611,-4.13302 -5.8458,-3.25181 -7.1366,-6.4912 -2.87946,-2.13477 -3.35109,-5.46105 -5.65963,-7.88128 -2.04789,-1.89896 -6.47878,1.17909 -6.83871,3.64897 0.73227,3.83514 -4.00891,3.77308 -6.28021,5.85821 0.0621,-5.2997 -5.33693,-7.63305 -8.31568,-11.29443 -1.65072,-2.46989 -1.63831,-6.65255 -5.5231,-2.90429 -2.94152,0.29788 -7.91852,-0.38475 -6.62773,-4.49295 0.12412,-34.37977 0.24823,-68.75953 0.38476,-103.12689 -3.41315,-2.33335 -7.29794,-5.17558 -11.35649,-5.46104 -3.12769,2.13477 -6.29262,1.35285 -9.17208,-0.76951 -3.37592,0.28546 -6.35467,-0.80675 -9.55683,-3.58692 -3.82273,-3.40074 -10.64903,0.211 -13.62779,-4.53018 1.4025,-4.41849 -3.99649,-5.99474 -6.20573,-2.594 -2.594,0.3227 -0.80675,-5.34934 -4.51777,-6.11885 -3.18975,-3.53727 -4.977,-1.58867 -7.27312,1.50178 z m -88.69234,54.69734 c -0.83157,3.85997 5.29969,1.6259 5.85821,5.78374 0.29788,4.74119 6.66496,4.84048 2.90428,-0.0993 -0.12411,-3.99649 -4.86529,-2.27129 -6.2802,-5.49828 -0.94327,-2.50711 -1.11703,-2.30853 -2.48229,-0.19858 z m -21.29808,28.74496 c 3.18975,5.03906 1.79966,1.70037 0.16135,-1.58867 -0.44681,0.0124 0,1.24115 -0.16135,1.58867 z m 27.10664,18.38139 c 1.57626,2.22165 6.19333,6.9256 7.71994,2.51953 2.80499,-4.09579 -4.05855,-3.58692 -6.4912,-4.56742 -2.2713,-1.11704 -1.09221,0.67021 -1.22874,2.04789 z m 113.83798,23.30873 c 0.0745,3.98408 3.48762,-2.45747 0,0 z m -39.05889,18.23245 c -3.97167,3.61173 -8.9859,5.79615 -13.10651,9.15966 0.27305,3.41315 1.22874,9.48236 5.79616,6.39191 3.10286,-1.78726 6.18091,-3.59933 9.24654,-5.42382 -2.28371,-4.10819 -1.00533,-3.90961 -5.64722,-4.31919 -5.15076,0.11171 1.31562,-4.62947 3.27663,-2.01065 4.64189,-1.2908 4.90253,-2.92911 1.86172,-4.5426 0.8688,-1.34044 -1.24115,0.7571 -1.43973,0.73228 z m -56.54664,23.18462 c 1.76243,3.51244 4.38125,-2.46988 0,0 z m -44.40823,0.42199 c 0.65781,3.05322 -5.01423,6.00715 1.3032,4.45571 5.21282,0.58334 4.29437,-5.39898 0.0124,-4.766 -0.4344,0.0993 -0.8688,0.19858 -1.31561,0.29788 z m 77.18691,0.85639 c 1.9486,3.61174 1.62591,-2.51953 0,0 z m -29.20418,1.67555 c 4.00891,0.60816 1.22874,-3.7855 0,0 z m -60.81619,0.1117 c -6.00715,3.17734 -0.5461,2.24648 2.84223,0.71987 3.58691,0.19858 6.26779,-0.59576 1.04256,-1.81208 -1.29079,0.35993 -2.58158,0.71987 -3.88479,1.09221 z m 8.99832,1.71278 c 1.58867,0.26064 -2.76776,-0.73227 0,0 z"
       id="state_ak"
       class="state-svg" />
  </g>
</svg>
