<?xml version="1.0" encoding="UTF-8" standalone="no"?>
<!-- Created with Inkscape (http://www.inkscape.org/) -->

<svg
   xmlns:dc="http://purl.org/dc/elements/1.1/"
   xmlns:cc="http://creativecommons.org/ns#"
   xmlns:rdf="http://www.w3.org/1999/02/22-rdf-syntax-ns#"
   xmlns:svg="http://www.w3.org/2000/svg"
   xmlns="http://www.w3.org/2000/svg"
   xmlns:sodipodi="http://sodipodi.sourceforge.net/DTD/sodipodi-0.dtd"
   xmlns:inkscape="http://www.inkscape.org/namespaces/inkscape"
   width="22.352158mm"
   height="37.3032mm"
   viewBox="0 0 79.200559 132.17669"
   id="svg2"
   version="1.1"
   inkscape:version="0.91 r13725"
   sodipodi:docname="al.svg">
  <defs
     id="defs4" />
  <sodipodi:namedview
     id="base"
     pagecolor="#ffffff"
     bordercolor="#666666"
     borderopacity="1.0"
     inkscape:pageopacity="0.0"
     inkscape:pageshadow="2"
     inkscape:zoom="0.35"
     inkscape:cx="-96.276411"
     inkscape:cy="673.88664"
     inkscape:document-units="px"
     inkscape:current-layer="layer1"
     showgrid="false"
     inkscape:window-width="1920"
     inkscape:window-height="1017"
     inkscape:window-x="3832"
     inkscape:window-y="-8"
     inkscape:window-maximized="1" />
  <metadata
     id="metadata7">
    <rdf:RDF>
      <cc:Work
         rdf:about="">
        <dc:format>image/svg+xml</dc:format>
        <dc:type
           rdf:resource="http://purl.org/dc/dcmitype/StillImage" />
        <dc:title></dc:title>
      </cc:Work>
    </rdf:RDF>
  </metadata>
  <g
     inkscape:label="Layer 1"
     inkscape:groupmode="layer"
     id="layer1"
     transform="translate(30.152307,-1074.0722)">
    <path
       inkscape:connector-curvature="0"
       style="fill-opacity:1"
       d="m -28.959519,1078.4663 c -0.24823,17.8353 0.14894,35.683 -0.67022,53.5183 -0.0497,11.1827 -1.09221,22.4647 -0.0869,33.5978 1.92378,12.4115 3.64897,24.8353 4.77841,37.3461 3.81033,1.3529 4.57984,-2.383 5.46105,-5.188 -0.37234,-4.828 5.2997,-3.7483 6.06921,-0.05 0.89362,2.5568 5.06388,6.5409 0.95568,8.2536 -0.18617,1.1419 7.65788,-1.117 7.29794,-3.5869 -0.5461,-3.7358 0.79434,-8.5142 -3.56209,-10.165 -2.84222,-1.0922 -3.76067,-6.938 -0.39716,-7.0373 17.47534,-2.3085 35.01274,-4.4557 52.56256,-5.9575 3.35109,1.3281 8.39015,-0.3103 3.6862,-3.1028 -2.23406,-2.4823 1.17909,-6.243 -0.33511,-9.4948 -0.38475,-3.8476 -3.26421,-7.3228 -1.6259,-11.3565 0.0124,-3.6242 3.09046,-6.6526 2.39542,-10.3015 -4.36884,-0.5586 -1.66314,-6.3423 -5.28729,-8.3158 -4.31919,-7.2234 -4.17025,-16.1845 -7.39723,-23.8424 -2.50712,-10.0409 -4.14543,-20.3672 -8.99832,-29.6386 -0.63298,-2.9663 -1.34044,-6.0195 -0.89362,-9.0728 -17.98422,1.4646 -35.96844,2.9167 -53.95265,4.3813 z"
       id="state_al"
       class="state-svg" />
  </g>
</svg>
