<svg xmlns="http://www.w3.org/2000/svg" width="110313.921" height="97744.339" viewBox="0 0 103.4193 91.635318"><path d="M.012 3.134C2.16 9.214 1.874 15.57 1.912 21.9c2.667 15.154 1.4 30.582 1.823 45.885L3.81 81.6c2.557 3.97 6.268-1.8 9.545 1.823 1.9 2.185-1.093 9.36 3.686 8.055l65.583-1.34c2.445-3.227.51-7.323-1.59-10.202 4.097-2-1.972-4.915 1.044-8.105.93-3.437.77-7.868 4.692-9.543-2.335-3.81 2.58-6.504 3.958-9.78 4.68-.472 1.96-4.096 3.276-6.728 1.39-3.315 3.178-6.554 6.02-8.167 1.49-5.114.26-3.314-1.9-6.963-3.425-4.12 2.42-4.915 2.93-8.49-.062-2.408 4.108-8.303 1.514-8.377-3.29 1.055-6.627-.224-9.954-.41-.11-4.195 5.46-4.816 5.238-9.06.72-4.804-4.443-4.568-7.87-4.047L0 3.134z" class="state-svg"/></svg>