<?xml version="1.0" encoding="UTF-8" standalone="no"?>
<!-- Created with Inkscape (http://www.inkscape.org/) -->

<svg
   xmlns:dc="http://purl.org/dc/elements/1.1/"
   xmlns:cc="http://creativecommons.org/ns#"
   xmlns:rdf="http://www.w3.org/1999/02/22-rdf-syntax-ns#"
   xmlns:svg="http://www.w3.org/2000/svg"
   xmlns="http://www.w3.org/2000/svg"
   xmlns:sodipodi="http://sodipodi.sourceforge.net/DTD/sodipodi-0.dtd"
   xmlns:inkscape="http://www.inkscape.org/namespaces/inkscape"
   width="29.187225mm"
   height="25.861523mm"
   viewBox="0 0 103.4193 91.635318"
   id="svg2"
   version="1.1"
   inkscape:version="0.91 r13725"
   sodipodi:docname="ar.svg">
  <defs
     id="defs4" />
  <sodipodi:namedview
     id="base"
     pagecolor="#ffffff"
     bordercolor="#666666"
     borderopacity="1.0"
     inkscape:pageopacity="0.0"
     inkscape:pageshadow="2"
     inkscape:zoom="0.35"
     inkscape:cx="688.00944"
     inkscape:cy="691.23091"
     inkscape:document-units="px"
     inkscape:current-layer="layer1"
     showgrid="false"
     inkscape:window-width="1920"
     inkscape:window-height="1017"
     inkscape:window-x="3832"
     inkscape:window-y="-8"
     inkscape:window-maximized="1" />
  <metadata
     id="metadata7">
    <rdf:RDF>
      <cc:Work
         rdf:about="">
        <dc:format>image/svg+xml</dc:format>
        <dc:type
           rdf:resource="http://purl.org/dc/dcmitype/StillImage" />
        <dc:title></dc:title>
      </cc:Work>
    </rdf:RDF>
  </metadata>
  <g
     inkscape:label="Layer 1"
     inkscape:groupmode="layer"
     id="layer1"
     transform="translate(814.43805,-1131.9578)">
    <path
       inkscape:connector-curvature="0"
       style="fill-opacity:1"
       d="m -814.42615,1135.0913 c 2.1472,6.0816 1.8617,12.4363 1.899,18.7661 2.6684,15.1544 1.4025,30.5819 1.8244,45.8852 0.025,4.6047 0.05,9.2093 0.075,13.814 2.5568,3.9717 6.2678,-1.7997 9.5444,1.8245 1.899,2.1844 -1.0922,9.3582 3.6862,8.055 21.8566,-0.4468 43.7256,-0.8936 65.5822,-1.3404 2.4451,-3.227 0.5089,-7.3228 -1.5886,-10.2022 4.0958,-1.9983 -1.9735,-4.915 1.0425,-8.1047 0.9309,-3.438 0.7695,-7.8689 4.6916,-9.5445 -2.3334,-3.8103 2.5816,-6.5036 3.9592,-9.7802 4.6792,-0.4716 1.961,-4.0958 3.2767,-6.727 1.39,-3.3139 3.1773,-6.5533 6.0195,-8.1667 1.4894,-5.1136 0.2607,-3.3139 -1.8989,-6.9629 -3.4256,-4.1206 2.4202,-4.9149 2.9291,-8.4894 -0.062,-2.4079 4.1082,-8.3033 1.5142,-8.3778 -3.2891,1.055 -6.6278,-0.2234 -9.954,-0.4095 -0.1117,-4.1951 5.461,-4.8157 5.2376,-9.0604 0.7199,-4.8033 -4.4433,-4.5674 -7.8689,-4.0462 -29.9985,0.9557 -59.997,1.9114 -89.9831,2.8671 z"
       id="state_ar"
       class="state-svg" />
  </g>
</svg>
