<?xml version="1.0" encoding="UTF-8" standalone="no"?>
<!-- Created with Inkscape (http://www.inkscape.org/) -->

<svg
   xmlns:dc="http://purl.org/dc/elements/1.1/"
   xmlns:cc="http://creativecommons.org/ns#"
   xmlns:rdf="http://www.w3.org/1999/02/22-rdf-syntax-ns#"
   xmlns:svg="http://www.w3.org/2000/svg"
   xmlns="http://www.w3.org/2000/svg"
   xmlns:sodipodi="http://sodipodi.sourceforge.net/DTD/sodipodi-0.dtd"
   xmlns:inkscape="http://www.inkscape.org/namespaces/inkscape"
   width="16.356066mm"
   height="7.5406384mm"
   viewBox="0 0 57.954566 26.718797"
   id="svg2"
   version="1.1"
   inkscape:version="0.91 r13725"
   sodipodi:docname="as.svg">
  <defs
     id="defs4" />
  <sodipodi:namedview
     id="base"
     pagecolor="#ffffff"
     bordercolor="#666666"
     borderopacity="1.0"
     inkscape:pageopacity="0.0"
     inkscape:pageshadow="2"
     inkscape:zoom="0.35"
     inkscape:cx="409.41505"
     inkscape:cy="316.56807"
     inkscape:document-units="px"
     inkscape:current-layer="layer1"
     showgrid="false"
     inkscape:window-width="1920"
     inkscape:window-height="1017"
     inkscape:window-x="3832"
     inkscape:window-y="-8"
     inkscape:window-maximized="1" />
  <metadata
     id="metadata7">
    <rdf:RDF>
      <cc:Work
         rdf:about="">
        <dc:format>image/svg+xml</dc:format>
        <dc:type
           rdf:resource="http://purl.org/dc/dcmitype/StillImage" />
        <dc:title></dc:title>
      </cc:Work>
    </rdf:RDF>
  </metadata>
  <g
     inkscape:label="Layer 1"
     inkscape:groupmode="layer"
     id="layer1"
     transform="translate(535.84375,-822.2115)">
    <path
       inkscape:connector-curvature="0"
       d="m -518.01142,822.2115 c 0.42515,0.2021 1.0414,1.2762 1.33184,1.8281 0.49083,0.9329 -0.47513,1.1176 0.73988,1.4063 0.60315,0.1433 1.28736,-0.8015 1.47981,-0.9844 0.47088,-0.4474 0.77532,-0.8497 1.03586,0.1407 0.10575,0.4023 1.33868,1.7979 1.77577,2.1094 0.58083,0.414 1.06298,0.4477 1.62779,0.9844 0.47147,0.448 0.90409,0.8591 1.33182,1.2656 0.53454,0.508 0.8173,0.7096 1.18386,1.4063 0.34186,0.6498 0.83012,1.0701 1.18384,1.4062 0.79044,0.7512 -1.9371,0.4219 -3.10759,0.4219 -0.30698,0 0.53195,1.2619 0.59194,1.5469 0.1786,0.849 0.40514,0.7993 1.18382,0.9843 1.11204,0.2642 1.18384,-0.2667 1.18384,-1.125 0,-0.5722 0.88985,0.8512 1.03587,1.4063 0.20272,0.7705 0.692,1.1022 1.33181,1.4062 0.62887,0.2989 1.32577,0.4894 1.77577,0.7032 0.786,0.3734 0.76738,0.3174 0.59193,0.9843 -0.1081,0.4107 0.11034,1.2681 0,1.6876 -0.23509,0.8936 0.95442,0.1547 0.44396,1.125 -0.22148,0.4209 -1.51827,0.7214 -1.77579,0.8437 -0.73958,0.3514 -1.40439,0.2454 -2.0717,0.5625 -0.79822,0.3793 -0.65106,0.647 -0.14807,1.125 0.28232,0.2683 1.83289,-0.084 2.07172,-0.1405 0.70322,-0.1671 1.45078,-0.1407 2.21973,-0.1407 0.99279,0 1.5533,-0.035 2.36766,-0.4219 0.61209,-0.2908 0.44395,-0.8555 0.44395,-1.6875 0,-0.9172 -0.26001,-1.3445 0.59193,-1.5469 1.03617,-0.2462 1.24997,-0.058 1.92375,0.4219 0.27533,0.1963 2.1663,0.3836 2.36768,0.4218 0.79784,0.1516 1.25037,0.4852 1.62782,0.8438 0.53864,0.5119 1.25414,0.9106 1.62776,1.2656 0.55364,0.5261 1.0737,0.677 1.77577,0.8438 0.90208,0.2143 1.27363,-0.3666 1.62779,-0.7031 0.35801,-0.3403 0.14807,-1.4817 0.14807,-1.9688 0,-0.4368 2.70896,0.6544 2.81161,0.7031 0.79228,0.3765 1.28354,0.2354 1.77578,0.7031 0.6909,0.6566 0.22805,1.106 1.33181,0.8438 0.84083,-0.1998 1.35268,0.2511 2.07175,0.4219 0.77805,0.1849 0.5919,0.6758 0.5919,1.5469 0,0.7031 0,1.4062 0,2.1093 0,0.9936 -0.59366,0.809 -1.33181,0.9844 -0.60896,0.1447 -1.45102,-0.2539 -1.77576,-0.5625 -0.63472,-0.6031 -0.80355,-0.3826 -1.03588,-1.2656 -0.21732,-0.8261 -0.31027,-0.9209 -1.03586,-1.2656 -0.34882,-0.1657 -0.99691,0.7031 -1.77576,0.7031 -0.83935,0 -1.16235,0.482 -1.62778,0.7031 -0.65274,0.3102 -1.16294,0.4219 -2.07172,0.4219 -0.32963,0 -0.81438,-0.8263 -1.47983,-0.9844 -0.59819,-0.1421 -1.72993,0 -1.92374,0 -0.6093,0 0.70657,1.531 0.73991,1.5469 0.81879,0.389 1.82873,-0.076 0.14788,0.5625 -0.65618,0.2494 -1.5663,-0.1407 -2.21971,-0.1407 -1.07798,0 -1.18383,-0.1522 -1.18383,-1.125 0,-0.9585 -0.55041,-0.8438 -1.47979,-0.8438 -0.57526,0 -0.32984,1.2737 -0.88788,1.4063 -0.91989,0.2185 -0.83607,-0.6189 -1.18391,0.7031 -0.13631,0.5185 -1.23005,-0.044 -1.62772,-0.4218 -0.43654,-0.4149 -1.4068,0.1579 -0.29598,0.4218 0.95076,0.2259 -0.46977,1.125 -1.03586,1.125 -0.98775,0 -0.83407,-0.6349 -1.33185,-1.2656 -0.49447,-0.6265 -1.22458,-0.1548 -1.47979,-1.125 -0.12931,-0.4915 -1.14332,-0.6136 -1.62779,-0.8438 -0.73697,-0.3501 -1.29498,-0.6856 -1.92374,-0.9844 -0.91958,-0.4369 -2.05085,-0.2812 -3.10759,-0.2812 -0.55152,0 0.29594,-1.0228 0.29594,-1.5469 0,-0.7031 0,-1.4062 0,-2.1094 0,-1.1442 -0.15755,-0.8811 -1.18382,-1.125 -0.55541,-0.132 -0.97662,0.5625 -1.7758,0.5625 -0.97449,0 -1.18383,-0.442 -1.18383,-1.2656 0,-0.9009 -0.81591,-0.3877 -1.47979,-0.7031 -0.81532,-0.3874 -1.47983,-0.5668 -1.47983,0.4219 0,0.7452 -0.82269,0.8282 -1.4798,0.9843 -0.96039,0.2282 -0.97833,-0.6757 -1.62777,-0.9843 -0.73123,-0.3475 -1.51662,-0.2284 -2.21972,-0.5625 -0.19231,-0.091 -0.59669,1.0206 -1.03588,1.125 -0.76023,0.1805 -1.80331,-0.1121 -2.51566,-0.2813 -0.85739,-0.2037 -0.42353,-0.8437 -1.4798,-0.8437 -0.80456,0 -1.49231,-0.2169 -1.92374,-0.4219 -0.40123,-0.1906 0.66453,-0.8438 -1.03586,-0.8438 -1.08613,0 -1.24074,-0.1081 -1.62782,-0.8437 -0.43884,-0.8341 -0.087,-1.1105 -1.33181,-1.4063 -0.37464,-0.089 -1.08895,-0.9048 -1.18384,-1.2656 -0.15717,-0.5975 -1.98089,-0.5138 -0.59193,-0.8438 0.7466,-0.1773 1.38836,-0.2243 2.21971,-0.4218 0.71627,-0.1702 1.59974,-0.4789 2.07173,-0.7032 0.48841,-0.232 1.7857,0.073 2.07172,0.1408 0.73295,0.1741 0.68447,0.4482 1.62779,0 0.57302,-0.2723 0.48547,-1.0041 1.03586,-1.2657 0.5236,-0.2488 2.09659,-0.1407 2.66365,-0.1407 0.13707,0 0.25149,-1.7996 0.29597,-1.9687 0.10885,-0.4135 0.29501,-1.262 0.44395,-1.8282 0.047,-0.1787 1.42085,-0.7877 1.62779,-0.9843 0.41051,-0.3901 0.95836,-0.5793 1.47979,-0.7032 0.84884,-0.2016 1.18792,-0.1444 1.62779,-0.5625 0.45478,-0.4321 -0.0909,-1.2606 0.14807,-1.8281 z"
       id="state_as"
       class="state-svg" />
  </g>
</svg>
