<?xml version="1.0" encoding="UTF-8" standalone="no"?>
<!-- Created with Inkscape (http://www.inkscape.org/) -->

<svg
   xmlns:dc="http://purl.org/dc/elements/1.1/"
   xmlns:cc="http://creativecommons.org/ns#"
   xmlns:rdf="http://www.w3.org/1999/02/22-rdf-syntax-ns#"
   xmlns:svg="http://www.w3.org/2000/svg"
   xmlns="http://www.w3.org/2000/svg"
   xmlns:sodipodi="http://sodipodi.sourceforge.net/DTD/sodipodi-0.dtd"
   xmlns:inkscape="http://www.inkscape.org/namespaces/inkscape"
   width="48.34156mm"
   height="81.231583mm"
   viewBox="0 0 171.28899 287.82844"
   id="svg2"
   version="1.1"
   inkscape:version="0.91 r13725"
   sodipodi:docname="ca.svg">
  <defs
     id="defs4" />
  <sodipodi:namedview
     id="base"
     pagecolor="#ffffff"
     bordercolor="#666666"
     borderopacity="1.0"
     inkscape:pageopacity="0.0"
     inkscape:pageshadow="2"
     inkscape:zoom="0.35"
     inkscape:cx="-524.07151"
     inkscape:cy="22.910334"
     inkscape:document-units="px"
     inkscape:current-layer="layer1"
     showgrid="false"
     inkscape:window-width="1920"
     inkscape:window-height="1017"
     inkscape:window-x="3832"
     inkscape:window-y="-8"
     inkscape:window-maximized="1" />
  <metadata
     id="metadata7">
    <rdf:RDF>
      <cc:Work
         rdf:about="">
        <dc:format>image/svg+xml</dc:format>
        <dc:type
           rdf:resource="http://purl.org/dc/dcmitype/StillImage" />
        <dc:title></dc:title>
      </cc:Work>
    </rdf:RDF>
  </metadata>
  <g
     inkscape:label="Layer 1"
     inkscape:groupmode="layer"
     id="layer1"
     transform="translate(-397.64293,-267.44411)">
    <path
       inkscape:connector-curvature="0"
       style="fill-opacity:1"
       d="m 413.2181,272.54522 c -0.12411,5.01424 0.49646,10.18982 -2.46988,14.58348 -2.30853,4.56742 -3.16492,10.22705 -8.04263,12.8831 -1.47696,2.61882 -4.3316,4.19508 -4.45571,8.0054 -2.40783,4.3316 3.09045,7.01247 3.61173,11.14549 1.91137,4.20749 2.90429,8.61356 2.02307,13.21822 0,3.62414 -3.4628,6.21814 -2.78017,10.10293 0.0621,3.68621 -2.78017,7.28553 0.0497,10.59939 3.20216,6.20574 7.91851,12.32459 8.32809,19.47359 -0.67022,3.43798 -1.22873,6.66496 2.24648,8.89903 1.98583,2.42023 5.57275,4.54259 3.4628,8.0178 -2.14719,4.80324 -1.41491,9.97882 -1.35285,15.09235 2.08512,3.31386 3.51244,8.39015 8.26604,8.10469 1.83689,2.89187 1.20391,6.00715 -0.27306,8.84937 -3.10286,1.89896 -5.4114,3.38833 -4.54259,7.54617 0.33511,4.33161 5.29969,6.62773 5.4114,11.18274 1.81207,7.6951 5.12593,14.79446 9.4203,21.40978 0.88121,3.18974 2.68088,5.38657 3.59932,7.95575 -0.29787,4.13301 -2.39541,8.05504 -2.99116,12.25011 -2.0603,3.2394 1.47697,6.85113 4.95218,6.35467 5.00182,0.18618 9.02313,4.1082 13.66502,5.01424 3.72344,-0.68263 5.88304,3.59932 7.53376,6.34226 1.91137,3.3635 2.94152,7.44688 7.14901,8.53909 3.11528,1.4149 7.68269,0.062 8.89902,4.28195 2.99116,3.37592 -2.96634,6.26779 1.75002,6.41673 3.38833,2.32095 6.90077,-2.15959 9.38306,-0.91845 2.64365,2.55676 5.02665,5.21282 6.11886,8.75009 5.33693,6.08162 1.78725,14.60829 3.4628,21.74489 18.28209,2.40782 36.53936,5.85821 54.94556,6.67737 3.45039,1.47696 7.6827,-5.49828 3.52486,-5.77134 -3.88479,0.79434 -3.51245,-4.98941 -1.68796,-5.78374 3.90961,-1.09221 6.10644,-4.75359 5.77133,-8.73767 0.58334,-4.93977 4.05855,-9.22172 8.96108,-10.42563 4.25713,-2.53194 -0.40958,-4.44331 -0.98051,-7.18624 -0.28546,-4.53019 -2.42023,-8.45221 -4.49295,-12.27494 2.50712,-4.5426 -2.75534,-4.12061 -3.92202,-7.74476 -28.04992,-42.3231 -56.09983,-84.63379 -84.16216,-126.9569 7.78199,-27.85133 15.56398,-55.70266 23.34597,-83.54158 -27.35487,-6.40432 -54.70975,-12.79622 -82.07703,-19.20054 -0.55852,1.71278 -1.11703,3.41315 -1.66314,5.12594 z m 29.94887,229.26462 c -0.3351,3.7855 9.91677,3.79791 5.83339,2.56918 -2.02307,-0.43441 -3.93443,-3.05323 -5.83339,-2.56918 z m -6.40431,0.47164 c 0.40958,4.60465 7.21106,0.63298 1.6259,-0.0496 -0.54611,0.0124 -1.09221,0.0248 -1.6259,0.0496 z m 31.84782,22.91157 c -0.24823,1.96101 5.48587,7.44688 3.92202,2.94151 -0.78192,-1.1915 -2.54435,-2.8174 -3.92202,-2.94151 z m -2.40782,14.43453 c -0.17376,1.92378 3.97167,4.82806 1.63831,1.56385 -0.58334,-0.83157 -2.08513,-4.76601 -1.63831,-1.56385 z"
       id="state_ca"
       class="state-svg" />
  </g>
</svg>
