<?xml version="1.0" encoding="utf-8"?>
<!-- Generator: Adobe Illustrator 18.0.0, SVG Export Plug-In . SVG Version: 6.00 Build 0)  -->
<!DOCTYPE svg PUBLIC "-//W3C//DTD SVG 1.1//EN" "http://www.w3.org/Graphics/SVG/1.1/DTD/svg11.dtd">
<svg version="1.1" id="Layer_1" xmlns="http://www.w3.org/2000/svg" xmlns:xlink="http://www.w3.org/1999/xlink" x="0px" y="0px"
	 viewBox="0 0 187 124.6" enable-background="new 0 0 187 124.6" xml:space="preserve">
<g>
	<path fill="#514A75" d="M138.4,0c-0.7,2.2,1.1,3.9,1,6c-1.5,0.4-0.7,2.3-1.7,3c-0.4,0-0.7,0.1-1,0.1c-0.2-0.8-0.2-1.8-1.2-2.1
		c-0.2-2.4,2.1-4.5,1-7C137.1,0,137.7,0,138.4,0z"/>
	<path fill="#1E1859" d="M137.6,9c1.1-0.7,0.2-2.5,1.7-3c2.5,9.7,6,19.1,9.4,28.5c0.9,2.4,2.6,1.7,4.1,1.7c10.8,0.1,21.7,0,32.5,0
		c0,0.6,0,1.1,0,1.7c-9,6.7-18,13.3-27,19.9c-1.9,1.4-0.7,3-0.2,4.4c3.4,10.5,6.9,21,9.6,32.1c-2.8-2.1-5.6-4.3-8.3-6.4
		c0-0.7,0-1.4,0.1-2.2c0.8,0.1,1.8,0.2,1.7-1c-0.1-1-0.8-1.4-1.7-0.9c0,0,0,0,0,0c1-2-0.6-3.1-1.5-4.3c-5.5-7.7-11-15.3-16.4-23
		c-1-1.4-2.8-2.5-2-4.7c13-4,25.9-8,38.9-12.1c0.7-0.1,1-0.4,0.3-1c-8.5,0.1-16.9,0.2-25.4,0.3c-4.8,0-13.2,6.7-14.2,11.5
		c-0.1,0.4,0.4,0.9,0.6,1.3c-2.6,0.3-3-1.7-3.6-3.5c0.2-0.3,0.5-0.5,0.7-0.8c1.6-1.6,1.1-3.7,1.1-5.6C137.7,31.1,137.6,20.1,137.6,9
		z"/>
	<path fill="#221D5A" d="M159.4,85.9c0,0.7,0,1.4-0.1,2.2c-6.7-3.7-12.4-8.8-18.6-13.2c-2.1-1.5-3.4-1.6-5.5,0
		c-9,6.8-18.1,13.4-28.2,20.8c3.7-11.7,6.9-22.3,10.5-32.8c1-3,0.3-4.4-2.1-6c-8.9-6.2-17.7-12.6-26.3-20.2c8.5,0,17,0,25.6,0
		c1,0,2,0,3,0c8.1,0,8.1,0,10.5-7.4c0.2-0.8,0.6-1.5,1-2.2c0.7,0,1.4,0,2.2,0.1c-2.6,12.9-2.6,12.9-15.2,12.7c-2.3,0-4.6-0.3-7-0.3
		c-3.6-0.1-7.2,0-10.9,0c0,0.3,0,0.6,0,0.9c12.3,3.8,24.6,7.6,36.9,11.4c-2.8,2.5-5.5,3.5-8,4.7c-1.9,0.9-4.4,1-5.2,3.4
		c-2.7,8-5.4,16-8.1,23.9c0.4,0.2,0.7,0.4,1.1,0.6c7.1-10,14.3-20,21.4-30c1,2.3,1,4.2,1.1,6.1c0.1,2.8-1.3,6.6,0.6,8.2
		c6.5,5.7,13.3,11.2,20.9,15.6c0.1,0.1,0.3-0.1,0.5-0.2c0,0,0,0,0,0C159.4,84.6,159.4,85.3,159.4,85.9z"/>
	<path fill="#BA201A" d="M95.3,47.9c-15.6,3.4-30.6,6.6-45.5,9.9c-12.2,2.6-24.4,5.2-36.6,7.8c-1.4,0.3-3.1,1.2-3.9-0.8
		C8.1,61.9,6,59.3,6,56c0-1,1.7-0.7,2.6-0.8c26.2-3.6,52.4-7.1,78.6-10.8C90.5,43.9,92.6,45.2,95.3,47.9z"/>
	<path fill="#BA201A" d="M21.4,83.4c-3.1-1.2-4.7-4.5-5.7-7.4c-1-2.9,2.6-2.2,4.1-2.6c26.2-7,52.4-13.8,78.6-20.6
		c1.4-0.4,2.9-1.2,4.3,0c0.6,0.5,1.5,1.1,1.6,1.8c0.2,0.9-0.9,1.2-1.7,1.5C76.1,65,49.7,74,23.3,82.9C22.8,83.1,22.3,83.2,21.4,83.4
		z"/>
	<path fill="#BA201A" d="M83.6,39.7c-26.8,1.9-52.5,3.6-78.2,5.4c-5.7,0.4-4.6-3.9-5.2-7c-0.8-4.4,2.6-2.8,4.5-2.9
		c23-0.2,46-0.2,68.9-0.6C77.7,34.6,80.3,36.3,83.6,39.7z"/>
	<path fill="#BB211F" d="M112.2,60c-0.7,2.1-2.2,2.7-3.7,3.4c-24,11.2-48,22.5-72,33.7c-2.7,1.3-9.3-2.5-9.4-5.5
		c-0.1-2.1,2.1-1.8,3.3-2.3c18.1-7,36.3-13.9,54.5-20.7c7.3-2.8,14.8-5.1,22.1-8C108.9,59.9,110.3,60.1,112.2,60z"/>
	<path fill="#BB211F" d="M110.9,68.9c-0.1,3.4-1.5,4.8-3.6,5.9c-19.6,11-39.2,22-58.7,33.2c-5,2.9-6.1-2-10-3.8
		C63.1,92.3,86.7,80.7,110.9,68.9z"/>
	<path fill="#BB211F" d="M52.5,113.8c14.7-8.7,29.2-17.2,43.6-25.7c2.6-1.5,5.2-3,7.8-4.5c0.7-0.4,1.5-0.9,2.2-0.2
		c0.7,0.7,0.1,1.6-0.2,2.3c-0.5,1.6-2,2.2-3.2,3c-13.1,8.8-26.4,17.4-39.4,26.4C59.2,118.1,56.1,118.5,52.5,113.8z"/>
	<path fill="#BB211F" d="M101.5,99c0,2.9-1.5,4.9-3.8,6.6c-7.8,5.7-15.6,11.3-23.1,17.3c-2.9,2.3-5.2,2.3-8.1-0.5
		c9.6-6.6,19.1-13.2,28.6-19.6C97.1,101.4,98.8,99.4,101.5,99L101.5,99z"/>
	<path fill="#1D1651" d="M131.4,27c-0.7,0-1.4,0-2.2-0.1c1.4-6.8,3.5-13.5,6.2-19.9c1,0.4,1,1.3,1.2,2.1
		C134.8,15.1,133.1,21,131.4,27z"/>
	<path fill="#514A75" d="M185.4,37.9c0-0.6,0-1.1,0-1.7c0.5,0.1,1.1,0.2,1.6,0.3C186.7,37.3,186.2,37.8,185.4,37.9z"/>
	<polygon fill="#BB211F" points="101.4,99 101.5,98.9 101.5,99 	"/>
	<path fill="#7A85C2" d="M131.4,27c1.7-6,3.5-11.9,5.2-17.9c0.3,0,0.7-0.1,1-0.1c0,11.1,0,22.1,0,33.2c0,1.9,0.5,4-1.1,5.6
		c-0.5-0.8-1-1.2-1.8-0.5c0.4,0.4,0.7,0.8,1.1,1.2c0.6,1.8,1.1,3.7,3.6,3.5l-0.1,0c-0.8,2.2,1.1,3.3,2,4.7c5.4,7.7,11,15.3,16.4,23
		c0.9,1.3,2.5,2.4,1.5,4.3c-0.2,0.1-0.4,0.2-0.5,0.2c-7.5-4.4-14.3-9.9-20.9-15.6c-1.9-1.6-0.4-5.4-0.6-8.2c-0.1-1.9,0-3.8-1.1-6.1
		c-7.1,10-14.3,20-21.4,30c-0.4-0.2-0.7-0.4-1.1-0.6c2.7-8,5.3-16,8.1-23.9c0.8-2.4,3.4-2.5,5.2-3.4c2.5-1.3,5.1-2.2,8-4.7
		c-12.3-3.8-24.6-7.6-36.9-11.4c0-0.3,0-0.6,0-0.9c3.6,0,7.2,0,10.9,0c2.3,0,4.6,0.3,7,0.3C128.8,39.9,128.8,39.9,131.4,27z"/>
	<path fill="#7A85C2" d="M139.5,52.1c-0.2-0.4-0.7-0.9-0.6-1.3c1.1-4.8,9.4-11.5,14.2-11.5c8.5-0.1,16.9-0.2,25.4-0.3
		c-0.1,0.3-0.2,0.6-0.2,1C165.3,44,152.3,48,139.5,52.1C139.4,52,139.5,52.1,139.5,52.1z"/>
	<path fill="#7A85C2" d="M159.4,85.9c0-0.6,0-1.3,0-1.9c1-0.5,1.6-0.1,1.7,0.9C161.2,86.1,160.3,86,159.4,85.9z"/>
	<path fill="#312C61" d="M178.2,39.9c0.1-0.3,0.1-0.6,0.2-1C179.2,39.5,179,39.8,178.2,39.9z"/>
	<path fill="#1E1859" d="M135.8,48.6c-0.4-0.4-0.7-0.8-1.1-1.2c0.8-0.7,1.4-0.3,1.8,0.5C136.3,48.1,136.1,48.3,135.8,48.6z"/>
</g>
</svg>
