<?xml version="1.0" encoding="UTF-8" standalone="no"?>
<!-- Created with Inkscape (http://www.inkscape.org/) -->

<svg
   xmlns:dc="http://purl.org/dc/elements/1.1/"
   xmlns:cc="http://creativecommons.org/ns#"
   xmlns:rdf="http://www.w3.org/1999/02/22-rdf-syntax-ns#"
   xmlns:svg="http://www.w3.org/2000/svg"
   xmlns="http://www.w3.org/2000/svg"
   xmlns:sodipodi="http://sodipodi.sourceforge.net/DTD/sodipodi-0.dtd"
   xmlns:inkscape="http://www.inkscape.org/namespaces/inkscape"
   width="55.494946mm"
   height="46.516243mm"
   viewBox="0 0 196.63564 164.82133"
   id="svg2"
   version="1.1"
   inkscape:version="0.91 r13725"
   sodipodi:docname="fl.svg">
  <defs
     id="defs4" />
  <sodipodi:namedview
     id="base"
     pagecolor="#ffffff"
     bordercolor="#666666"
     borderopacity="1.0"
     inkscape:pageopacity="0.0"
     inkscape:pageshadow="2"
     inkscape:zoom="0.35"
     inkscape:cx="273.54016"
     inkscape:cy="521.86761"
     inkscape:document-units="px"
     inkscape:current-layer="layer1"
     showgrid="false"
     inkscape:window-width="1920"
     inkscape:window-height="1017"
     inkscape:window-x="3832"
     inkscape:window-y="-8"
     inkscape:window-maximized="1" />
  <metadata
     id="metadata7">
    <rdf:RDF>
      <cc:Work
         rdf:about="">
        <dc:format>image/svg+xml</dc:format>
        <dc:type
           rdf:resource="http://purl.org/dc/dcmitype/StillImage" />
        <dc:title></dc:title>
      </cc:Work>
    </rdf:RDF>
  </metadata>
  <g
     inkscape:label="Layer 1"
     inkscape:groupmode="layer"
     id="layer1"
     transform="translate(399.96887,-889.40853)">
    <path
       inkscape:connector-curvature="0"
       d="m -269.9476,890.49182 c 2.09754,3.6241 1.86172,7.5958 1.43973,11.5923 -5.11352,0.6702 -2.66846,-5.821 -6.90077,-4.9522 -7.67029,-0.087 -15.31575,1.4025 -23.01086,1.477 -12.52318,0.3599 -25.28217,2.656 -37.64399,0.7943 -3.18975,-1.9486 -3.52485,-7.633 -8.06745,-6.6153 -11.31926,-0.1489 -22.56405,2.2217 -33.83366,3.1649 -7.22348,0.782 -14.42213,1.7004 -21.63319,2.6313 -1.76243,4.0337 3.22698,5.4238 5.03905,7.8688 0.99292,2.8298 -1.93618,10.4505 2.71812,8.8122 5.10111,-1.4894 10.02846,-3.6366 15.48951,-3.3759 4.14543,-1.0178 8.2288,-0.9061 12.27494,0.5585 5.07629,0.9929 9.64371,3.8351 14.16148,6.1809 2.19683,2.4078 6.82631,2.3209 7.40965,6.2057 -0.17376,4.0586 5.36175,-1.1667 8.06745,0.6578 3.95926,-0.9929 6.50361,-4.5674 9.54442,-6.8263 6.03198,2.0976 0.76951,-3.5993 4.05855,-4.9273 3.88479,-1.0302 8.2164,-1.7252 11.60473,0.9805 3.77308,0.7074 6.73942,2.4823 8.15433,6.1933 4.56742,0.025 3.57451,5.1259 6.80149,6.5781 3.67379,0.6081 3.69862,5.61 7.81922,5.3369 3.61174,0.4468 6.76425,1.4273 7.2483,5.5231 2.54435,2.6188 4.86529,5.2873 3.83514,9.1969 0.22341,4.5674 0.14894,9.0976 -1.78725,13.3423 0.48405,4.5674 1.70037,9.8547 4.07096,13.3796 2.79258,-4.2944 0.211,-4.8032 -2.15959,-7.4841 2.71811,-2.1844 6.03197,-0.2731 9.06037,0.1986 1.01774,3.9096 -2.68088,6.9504 -4.31919,10.165 -4.09579,2.7429 2.04789,5.0762 3.38833,7.8192 3.85996,4.1454 5.39899,9.8547 9.34583,13.9753 0.9681,2.84218 3.11528,9.27138 5.74651,3.83508 3.15251,-0.2978 4.81565,4.2696 6.55326,6.7146 -0.0248,2.805 2.39541,8.7377 4.45571,7.993 3.57451,-0.9929 7.49653,0.8068 10.2767,3.2146 3.17733,4.0958 5.68445,8.6632 5.65963,13.9877 1.70037,3.3883 5.64721,0.5461 7.21106,-1.4149 4.64189,0.5585 9.01072,-1.5514 11.44337,-5.5479 -1.25356,-2.9291 -0.70745,-5.9948 -0.39717,-8.899 -0.0496,-2.7057 5.37417,-3.9593 2.79258,-8.0799 -1.21632,-7.8565 -0.23581,-16.08528 -2.32094,-23.89208 -3.05322,-8.6011 -9.35825,-15.8122 -12.90793,-24.2768 -1.87413,-2.9912 -5.26246,-4.8653 -5.73409,-8.7377 -1.16668,-2.8298 -3.31387,-6.1437 -0.0869,-8.3281 -0.48405,-4.4185 -6.03198,-6.727 -8.48945,-10.438 -6.67737,-6.9132 -10.2891,-16.0605 -15.32816,-24.1279 -2.66846,-6.8636 -5.32452,-13.7395 -7.33518,-20.8265 -4.25713,0.087 -9.06037,-1.2783 -12.98239,-0.4344 l -0.42199,0.4593 -0.3227,0.3599 z m 65.66908,135.55798 c -2.35818,5.6845 0.89362,0.4717 0.81915,-2.3706 -0.27305,0.7944 -0.5461,1.5763 -0.81915,2.3706 z m -5.82098,12.2998 c 3.17733,-2.4451 4.56742,-8.4894 1.29079,-2.0851 -0.4344,0.695 -0.85639,1.3901 -1.29079,2.0851 z m -2.79258,2.7553 c 1.81207,-1.5142 2.53194,-2.5691 0.2234,-0.2234 l -0.2234,0.2234 z m -7.09936,5.1632 c -6.4912,4.5798 5.00182,-2.656 0.40958,-0.2358 l -0.40958,0.2358 z m -13.30509,3.9965 c -4.23231,3.922 7.08694,-0.3972 5.0887,-1.0053 -2.23407,-0.6951 -3.17734,-0.8812 -5.0887,1.0053 z m -5.69687,3.922 c 0.0993,0.1986 0.49646,-0.3723 0,0 z"
       id="state_fl"
       class="state-svg" />
  </g>
</svg>
