<?xml version="1.0" encoding="UTF-8" standalone="no"?>
<!-- Created with Inkscape (http://www.inkscape.org/) -->

<svg
   xmlns:dc="http://purl.org/dc/elements/1.1/"
   xmlns:cc="http://creativecommons.org/ns#"
   xmlns:rdf="http://www.w3.org/1999/02/22-rdf-syntax-ns#"
   xmlns:svg="http://www.w3.org/2000/svg"
   xmlns="http://www.w3.org/2000/svg"
   xmlns:sodipodi="http://sodipodi.sourceforge.net/DTD/sodipodi-0.dtd"
   xmlns:inkscape="http://www.inkscape.org/namespaces/inkscape"
   width="32.293587mm"
   height="33.785381mm"
   viewBox="0 0 114.4261 119.71198"
   id="svg2"
   version="1.1"
   inkscape:version="0.91 r13725"
   sodipodi:docname="ga.svg">
  <defs
     id="defs4" />
  <sodipodi:namedview
     id="base"
     pagecolor="#ffffff"
     bordercolor="#666666"
     borderopacity="1.0"
     inkscape:pageopacity="0.0"
     inkscape:pageshadow="2"
     inkscape:zoom="0.35"
     inkscape:cx="549.50807"
     inkscape:cy="716.59982"
     inkscape:document-units="px"
     inkscape:current-layer="layer1"
     showgrid="false"
     inkscape:window-width="1920"
     inkscape:window-height="1017"
     inkscape:window-x="3832"
     inkscape:window-y="-8"
     inkscape:window-maximized="1" />
  <metadata
     id="metadata7">
    <rdf:RDF>
      <cc:Work
         rdf:about="">
        <dc:format>image/svg+xml</dc:format>
        <dc:type
           rdf:resource="http://purl.org/dc/dcmitype/StillImage" />
        <dc:title></dc:title>
      </cc:Work>
    </rdf:RDF>
  </metadata>
  <g
     inkscape:label="Layer 1"
     inkscape:groupmode="layer"
     id="layer1"
     transform="translate(675.93679,-1129.2501)">
    <path
       inkscape:connector-curvature="0"
       d="m -675.84478,1135.1795 c -0.91845,8.7625 5.31211,15.7501 6.56567,24.0782 1.68796,8.1543 4.26954,16.0853 6.24297,24.1279 1.16667,6.0568 2.69328,12.3494 6.86354,17.0658 -1.05498,4.344 4.18266,3.9344 3.21457,7.993 -2.34577,5.5231 -4.4309,11.977 -1.04257,17.5374 0.0621,3.2642 1.16668,6.7022 -0.47163,9.7802 3.66138,1.1667 1.79966,4.977 3.81032,7.4593 1.67555,3.3139 4.56742,5.8954 8.47703,4.9646 15.32816,-0.012 30.64391,-1.6259 45.95966,-2.383 4.12061,-0.7199 8.27845,-0.9185 12.46112,-0.7323 -0.9681,5.2625 3.77308,5.1508 2.59399,-0.1117 -1.11703,-2.6561 -3.64897,-7.7323 0.73228,-8.2164 3.97167,0.6206 7.96816,1.1295 11.98948,1.266 -1.04256,-4.7164 -0.99292,-9.3955 0.62057,-13.9877 0.24823,-4.3937 3.25181,-8.353 2.74294,-12.6722 -0.89363,-3.6365 4.04614,-6.5284 3.53727,-9.9912 -2.71812,1.7004 -6.56567,-0.8812 -6.62773,-3.9592 -0.69504,-3.8724 -3.36351,-7.2359 -7.48411,-7.5214 -1.65073,-4.8405 -3.25181,-10.1402 -6.19333,-14.1863 -3.87238,-1.328 -7.60823,-3.711 -8.89902,-7.8068 -2.55676,-2.8919 -6.4912,-3.9841 -8.26604,-7.6455 -2.58158,-2.7305 -6.50361,-3.5124 -9.50718,-5.2004 -0.94327,-3.1401 -3.98408,-5.0763 -4.89012,-8.2784 -1.68796,-3.2642 -3.6862,-5.7714 -7.63305,-4.6792 -2.89187,-1.9486 -8.8742,-4.195 -6.59049,-8.6507 2.50712,-2.4948 4.66671,-5.1012 -0.99292,-3.86 -15.73774,1.8741 -31.48789,3.7358 -47.22563,5.61 z"
       id="state_ga"
       class="state-svg" />
  </g>
</svg>
