<?xml version="1.0" encoding="UTF-8" standalone="no"?>
<!-- Created with Inkscape (http://www.inkscape.org/) -->

<svg
   xmlns:dc="http://purl.org/dc/elements/1.1/"
   xmlns:cc="http://creativecommons.org/ns#"
   xmlns:rdf="http://www.w3.org/1999/02/22-rdf-syntax-ns#"
   xmlns:svg="http://www.w3.org/2000/svg"
   xmlns="http://www.w3.org/2000/svg"
   xmlns:sodipodi="http://sodipodi.sourceforge.net/DTD/sodipodi-0.dtd"
   xmlns:inkscape="http://www.inkscape.org/namespaces/inkscape"
   width="15.182202mm"
   height="16.883944mm"
   viewBox="0 0 53.795207 59.824996"
   id="svg2"
   version="1.1"
   inkscape:version="0.91 r13725"
   sodipodi:docname="gu.svg">
  <defs
     id="defs4" />
  <sodipodi:namedview
     id="base"
     pagecolor="#ffffff"
     bordercolor="#666666"
     borderopacity="1.0"
     inkscape:pageopacity="0.0"
     inkscape:pageshadow="2"
     inkscape:zoom="0.35"
     inkscape:cx="526.15205"
     inkscape:cy="734.63725"
     inkscape:document-units="px"
     inkscape:current-layer="layer1"
     showgrid="false"
     inkscape:window-width="1920"
     inkscape:window-height="1017"
     inkscape:window-x="3832"
     inkscape:window-y="-8"
     inkscape:window-maximized="1" />
  <metadata
     id="metadata7">
    <rdf:RDF>
      <cc:Work
         rdf:about="">
        <dc:format>image/svg+xml</dc:format>
        <dc:type
           rdf:resource="http://purl.org/dc/dcmitype/StillImage" />
        <dc:title></dc:title>
      </cc:Work>
    </rdf:RDF>
  </metadata>
  <g
     inkscape:label="Layer 1"
     inkscape:groupmode="layer"
     id="layer1"
     transform="translate(652.58076,-1207.1745)">
    <path
       inkscape:connector-curvature="0"
       d="m -614.38026,1266.1686 c 0.0796,0 0.15925,0 0.23874,0 0.8116,0 1.59168,-0.277 2.38754,-0.4155 1.04493,-0.1819 1.50923,-1.4874 2.38752,-1.8695 0.93808,-0.4081 1.20973,-1.2602 1.91001,-1.8695 0.20414,-0.1776 0.41026,-0.5355 0.47752,-0.6232 1.37247,-1.1941 -1.43166,-2.3368 1.67128,-1.6618 0.07,0.016 2.45762,-0.95 2.86503,-1.0386 1.17309,-0.2552 2.44017,-0.2192 3.34252,-0.4155 1.13997,-0.248 -1.14579,-1.786 -1.67126,-2.7004 -0.49529,-0.8619 -0.23875,-2.1528 -0.23875,-3.1159 0,-1.214 -0.25203,-1.9157 -0.47749,-2.7004 -0.27224,-0.9475 -0.86825,-1.5863 -1.43255,-2.0773 -0.59545,-0.5181 -1.70886,-1.0468 -2.62628,-1.2464 -1.22331,-0.266 -1.12567,-1.0386 -2.86503,-1.0386 -0.83173,0 -0.94483,-2.0595 -1.19378,-2.4927 -0.72629,-1.2638 -2.15083,-0.01 -2.62627,-1.6618 -0.30859,-1.074 -0.94369,-1.0288 -1.67127,-1.6618 -0.68405,-0.5952 -1.71296,-0.9529 -2.38752,-1.2463 -1.15463,-0.5023 -1.87112,-1.0386 -3.34253,-1.0386 -0.58386,0 -1.69999,-1.8336 -1.91003,-2.0773 -0.69932,-0.8113 -1.02639,-1.3084 -1.67129,-1.8696 -0.28497,-0.2479 -2.25423,0.1849 -3.10378,0 -0.12399,-0.027 0,-2.8345 0,-3.1158 0,-0.489 -1.55844,-1.2578 -1.67127,-1.4541 -0.21771,-0.3788 0.47752,-2.4602 0.47752,-3.1159 0,-1.0209 -0.0324,-2.1902 -0.23876,-2.9081 -0.27383,-0.953 -0.23491,-2.0773 -1.43253,-2.0773 -1.25254,0 0.69209,-1.6408 0.955,-1.8695 0.41752,-0.3633 0.33235,-2.1953 0.47753,-2.7005 0.39069,-1.3597 -0.71627,-1.831 -0.71627,-2.9081 0,-0.068 -1.92474,-1.1489 -2.14878,-1.2464 -0.68499,-0.298 -1.31728,-1.1461 -1.91003,-1.6618 -0.91326,-0.7946 -1.10638,-1.1703 -1.91001,-1.8695 -0.78429,-0.6824 -1.89403,-0.6204 -3.10379,-0.8309 -1.10748,-0.1928 -2.04045,-0.4155 -3.34253,-0.4155 -0.73066,0 -1.69208,1.2645 -2.14878,1.6618 -1.03177,0.8977 -1.35043,-0.4934 -1.91002,1.4541 -0.0532,0.1851 -0.77463,1.6572 -0.95502,2.285 -0.32262,1.1228 -0.23386,1.8525 -0.47752,2.7004 -0.21256,0.7398 -0.92972,1.1584 -1.19376,2.0773 -0.30515,1.062 -0.15584,2.1408 -0.71627,3.1159 -0.57483,1.0003 -1.67125,0.6123 -1.67125,2.285 0,1.4239 0.64731,1.5418 1.19375,2.4927 0.37443,0.6515 0.75716,1.8041 0.95501,2.4927 0.19908,0.6928 1.05015,1.8273 1.43252,2.4927 0.0948,0.1648 -0.23876,0.846 -0.23876,1.2463 l -5.96881,4.7777 c 1.05296,1.8322 1.30778,1.172 3.10377,0 0.97778,-0.638 1.76984,-0.6537 2.86504,-0.4154 0.90102,0.1959 0.84809,2.4939 0.84809,0.5313 0,-1.4482 -0.31646,0.2189 0.96258,0.6232 2.20656,0.6975 1.99683,0.5705 0.0993,-0.5313 -0.4255,-0.2471 1.9984,-0.9307 1.43251,1.0386 -0.29664,1.0324 -1.91774,-0.027 -1.43251,1.6618 0.17822,0.6204 3.63874,-0.1683 3.82008,-0.2078 1.03584,-0.2253 1.79728,1.2464 2.86501,1.2464 1.03784,0 2.33816,0.4155 3.58131,0.4155 0.92072,0 2.61109,0.464 3.34253,0.6231 1.47072,0.3199 2.12177,0.3978 3.1038,1.0387 0.67415,0.4399 -0.41752,2.6994 -0.47751,2.9081 -0.30955,1.0773 3.30565,0.01 3.34253,0 1.54161,-0.2683 1.71518,1.3992 1.91003,2.0773 0.38675,1.3459 0.59081,1.7111 1.91001,2.2849 1.46087,0.6355 1.91004,1.6076 1.91004,2.9082 0,1.948 0.82555,2.5527 1.19377,4.1545 0.27931,1.2151 -0.27334,1.5525 0.71623,2.7004 1.04439,1.2116 1.7916,1.6634 2.38756,2.7005 0.53727,0.9349 0.4775,1.7207 0.4775,2.9081 0,1.0949 0.29529,1.1972 -0.71627,2.0773"
       id="state_gu"
       class="state-svg" />
  </g>
</svg>
