<?xml version="1.0" encoding="UTF-8" standalone="no"?>
<!-- Created with Inkscape (http://www.inkscape.org/) -->

<svg
   xmlns:dc="http://purl.org/dc/elements/1.1/"
   xmlns:cc="http://creativecommons.org/ns#"
   xmlns:rdf="http://www.w3.org/1999/02/22-rdf-syntax-ns#"
   xmlns:svg="http://www.w3.org/2000/svg"
   xmlns="http://www.w3.org/2000/svg"
   xmlns:sodipodi="http://sodipodi.sourceforge.net/DTD/sodipodi-0.dtd"
   xmlns:inkscape="http://www.inkscape.org/namespaces/inkscape"
   width="39.250668mm"
   height="24.999552mm"
   viewBox="0 0 139.07717 88.581088"
   id="svg2"
   version="1.1"
   inkscape:version="0.91 r13725"
   sodipodi:docname="hi.svg">
  <defs
     id="defs4" />
  <sodipodi:namedview
     id="base"
     pagecolor="#ffffff"
     bordercolor="#666666"
     borderopacity="1.0"
     inkscape:pageopacity="0.0"
     inkscape:pageshadow="2"
     inkscape:zoom="0.35"
     inkscape:cx="1173.4586"
     inkscape:cy="150.21233"
     inkscape:document-units="px"
     inkscape:current-layer="layer1"
     showgrid="false"
     inkscape:window-width="1920"
     inkscape:window-height="1017"
     inkscape:window-x="3832"
     inkscape:window-y="-8"
     inkscape:window-maximized="1" />
  <metadata
     id="metadata7">
    <rdf:RDF>
      <cc:Work
         rdf:about="">
        <dc:format>image/svg+xml</dc:format>
        <dc:type
           rdf:resource="http://purl.org/dc/dcmitype/StillImage" />
        <dc:title></dc:title>
      </cc:Work>
    </rdf:RDF>
  </metadata>
  <g
     inkscape:label="Layer 1"
     inkscape:groupmode="layer"
     id="layer1"
     transform="translate(1299.8872,-593.99344)">
    <path
       inkscape:connector-curvature="0"
       d="m -1286.8484,595.88421 c -3.0781,4.71636 2.7677,5.01423 5.883,6.67737 3.7979,0.19858 4.3564,-5.31211 3.3015,-8.14192 -3.376,-0.95568 -6.2182,-0.23582 -9.1969,1.47696 z m -11.5551,4.92735 c -4.9894,6.34226 4.5178,0.59575 0.7819,-0.1117 l -0.6205,0.0869 -0.1738,0.0248 z m 49.2611,9.89194 c -0.7695,2.594 2.3706,8.35292 5.4487,7.69511 2.9911,-1.81207 4.6294,2.14719 8.0426,0.69504 1.5266,-1.83689 -4.6791,-3.97166 -4.5923,-7.54617 -1.1791,-4.71635 -4.0709,-3.97167 -7.3972,-1.58867 -0.5089,0.24823 -1.0053,0.49646 -1.5142,0.74469 z m 24.7485,12.4487 c 4.4433,1.17909 9.8175,3.71103 13.9629,0.58334 -1.3032,-2.02307 -6.2802,-0.73227 -8.8122,-1.06738 -1.7872,0.0124 -4.3936,-2.02307 -5.1507,0.48404 z m 15.0551,5.43623 c 2.8919,3.04081 4.5178,8.47703 8.9859,9.18448 2.9291,-0.85639 8.4894,-0.81915 9.0852,-4.25713 -2.594,-3.11528 -7.1614,-4.15784 -11.0214,-5.32452 -3.1401,-1.48938 -5.1011,-4.03373 -7.0497,0.40958 z m -8.7625,1.24114 c -0.3599,4.57983 6.8884,4.93977 4.555,0.68263 -0.3351,-1.55143 -4.7536,-2.15959 -4.555,-0.68263 z m 29.3655,18.23245 c 0.3351,3.04081 3.9469,4.87771 0.5834,7.63305 -0.8068,3.00358 -6.876,3.56209 -3.1277,6.86354 2.9291,1.81208 2.4947,6.01956 3.6241,8.86179 -0.8936,3.33868 -1.7748,8.41497 2.1348,10.00364 3.4752,3.66138 5.5852,-2.39541 7.6827,-4.56742 1.5763,-2.09754 4.7784,-5.0887 7.3724,-3.21457 3.7731,-1.00533 7.8192,-3.00357 9.6561,-6.47878 -3.4628,-1.62591 -6.0568,-3.95926 -6.9132,-7.80682 -2.9787,-6.61531 -11.1082,-7.76957 -16.8547,-11.14549 -1.6011,-0.6454 -2.805,-2.01066 -4.1455,-0.13653 z"
       id="state_hi"
       class="state-svg" />
  </g>
</svg>
