<svg xmlns="http://www.w3.org/2000/svg" width="136084.071" height="89191.446" viewBox="0 0 127.57882 83.616979"><path d="M2.556 1.66c-4.245-.063-2.68 7.05.894 7.806.67 2.57-.93 6.28-1.75 9.123-2.644 3.5-1.155 6.763 1.29 9.83 1.515 5.385 2.78 10.983 5.027 16.208.745 3.996 1.6 7.918 4.232 11.17.024 4.332 1.576 8.303 2.854 12.3-.05 4.394.037 8.75 2.582 12.523 27.553-1.265 55.156-2.17 82.734-3.263.956 1.775 4.034 8.825 5.424 5.275-1.19-3.103 1.477-5.61 4.43-5.858-1.09-3.252 1.478-5.697 3.104-7.795 1.576-3.625-1.725-4.99-2.99-7.832.855-3.6 2.22-6.578 6.366-6.777 3.574-1.03 8.154-2.245 8.254-6.714 2.184-3.773 4.63-9.94-.323-12.635-3.4-1.314-2.172-6.54-6.466-6.378-.796-2.445-1.056-5.908-5.202-5.225-3.413-.993-5.647-4.307-6.665-7.447-1.688-3.587 2.495-5.858 2.048-9.036-4.74-.496-1.476-8.067-6.242-6.79-33.2.51-66.4 1.007-99.602 1.515z" class="state-svg"/></svg>