<?xml version="1.0" encoding="UTF-8" standalone="no"?>
<!-- Created with Inkscape (http://www.inkscape.org/) -->

<svg
   xmlns:dc="http://purl.org/dc/elements/1.1/"
   xmlns:cc="http://creativecommons.org/ns#"
   xmlns:rdf="http://www.w3.org/1999/02/22-rdf-syntax-ns#"
   xmlns:svg="http://www.w3.org/2000/svg"
   xmlns="http://www.w3.org/2000/svg"
   xmlns:sodipodi="http://sodipodi.sourceforge.net/DTD/sodipodi-0.dtd"
   xmlns:inkscape="http://www.inkscape.org/namespaces/inkscape"
   width="36.005577mm"
   height="23.59857mm"
   viewBox="0 0 127.57882 83.616979"
   id="svg2"
   version="1.1"
   inkscape:version="0.91 r13725"
   sodipodi:docname="ia.svg">
  <defs
     id="defs4" />
  <sodipodi:namedview
     id="base"
     pagecolor="#ffffff"
     bordercolor="#666666"
     borderopacity="1.0"
     inkscape:pageopacity="0.0"
     inkscape:pageshadow="2"
     inkscape:zoom="0.35"
     inkscape:cx="432.66535"
     inkscape:cy="750.45675"
     inkscape:document-units="px"
     inkscape:current-layer="layer1"
     showgrid="false"
     inkscape:window-width="1920"
     inkscape:window-height="1017"
     inkscape:window-x="3832"
     inkscape:window-y="-8"
     inkscape:window-maximized="1" />
  <metadata
     id="metadata7">
    <rdf:RDF>
      <cc:Work
         rdf:about="">
        <dc:format>image/svg+xml</dc:format>
        <dc:type
           rdf:resource="http://purl.org/dc/dcmitype/StillImage" />
        <dc:title></dc:title>
      </cc:Work>
    </rdf:RDF>
  </metadata>
  <g
     inkscape:label="Layer 1"
     inkscape:groupmode="layer"
     id="layer1"
     transform="translate(559.09394,-1199.202)">
    <path
       inkscape:connector-curvature="0"
       style="fill-opacity:1"
       d="m -556.53788,1200.8614 c -4.24472,-0.062 -2.68088,7.0497 0.89363,7.8068 0.67021,2.5692 -0.93086,6.2802 -1.75002,9.1225 -2.64364,3.5 -1.15427,6.7642 1.29079,9.8298 1.5142,5.3866 2.78017,10.9842 5.02665,16.2094 0.74468,3.9965 1.60107,7.9185 4.23231,11.1703 0.0248,4.3316 1.57625,8.3033 2.85463,12.2998 -0.0497,4.3937 0.0372,8.7501 2.58159,12.5232 27.55346,-1.266 55.15656,-2.172 82.73484,-3.2642 0.95568,1.7748 4.03372,8.8245 5.42381,5.2748 -1.1915,-3.1028 1.47696,-5.6099 4.43089,-5.8582 -1.09221,-3.2518 1.47697,-5.6968 3.10287,-7.7944 1.57625,-3.6241 -1.7252,-4.9894 -2.99116,-7.8316 0.85639,-3.5993 2.22165,-6.5781 6.36708,-6.7767 3.5745,-1.0301 8.15433,-2.2464 8.25362,-6.7146 2.18442,-3.7731 4.62948,-9.9416 -0.32269,-12.6349 -3.40075,-1.3156 -2.17201,-6.5408 -6.46638,-6.3794 -0.79433,-2.4451 -1.05497,-5.9079 -5.2004,-5.2253 -3.41316,-0.9929 -5.64722,-4.3068 -6.66496,-7.4469 -1.68796,-3.5869 2.4947,-5.8582 2.04789,-9.0355 -4.74118,-0.4965 -1.47696,-8.0675 -6.24297,-6.7891 -33.20067,0.5089 -66.40135,1.0054 -99.60202,1.5142 z"
       id="state_ia"
       class="state-svg" />
  </g>
</svg>
