<?xml version="1.0" encoding="UTF-8" standalone="no"?>
<!-- Created with Inkscape (http://www.inkscape.org/) -->

<svg
   xmlns:dc="http://purl.org/dc/elements/1.1/"
   xmlns:cc="http://creativecommons.org/ns#"
   xmlns:rdf="http://www.w3.org/1999/02/22-rdf-syntax-ns#"
   xmlns:svg="http://www.w3.org/2000/svg"
   xmlns="http://www.w3.org/2000/svg"
   xmlns:sodipodi="http://sodipodi.sourceforge.net/DTD/sodipodi-0.dtd"
   xmlns:inkscape="http://www.inkscape.org/namespaces/inkscape"
   width="35.66893mm"
   height="57.838097mm"
   viewBox="0 0 126.38597 204.93814"
   id="svg2"
   version="1.1"
   inkscape:version="0.91 r13725"
   sodipodi:docname="id.svg">
  <defs
     id="defs4" />
  <sodipodi:namedview
     id="base"
     pagecolor="#ffffff"
     bordercolor="#666666"
     borderopacity="1.0"
     inkscape:pageopacity="0.0"
     inkscape:pageshadow="2"
     inkscape:zoom="0.35"
     inkscape:cx="382.19825"
     inkscape:cy="73.109823"
     inkscape:document-units="px"
     inkscape:current-layer="layer1"
     showgrid="false"
     inkscape:window-width="1920"
     inkscape:window-height="1017"
     inkscape:window-x="3832"
     inkscape:window-y="-8"
     inkscape:window-maximized="1" />
  <metadata
     id="metadata7">
    <rdf:RDF>
      <cc:Work
         rdf:about="">
        <dc:format>image/svg+xml</dc:format>
        <dc:type
           rdf:resource="http://purl.org/dc/dcmitype/StillImage" />
        <dc:title></dc:title>
      </cc:Work>
    </rdf:RDF>
  </metadata>
  <g
     inkscape:label="Layer 1"
     inkscape:groupmode="layer"
     id="layer1"
     transform="translate(508.62683,-400.53392)">
    <path
       inkscape:connector-curvature="0"
       style="fill-opacity:1"
       d="m -483.31985,478.41587 c 0.6454,3.81033 2.8174,6.51603 6.13127,8.41498 0.49646,3.74826 -0.7571,6.77666 -3.76068,9.07278 -2.85464,3.3511 -5.43622,7.40965 -7.55858,10.95933 0.48404,3.63656 -3.18975,4.39366 -5.25005,5.9575 -2.19683,2.86705 -5.31211,5.33693 -4.87771,9.3086 -0.79433,3.01599 5.82098,0.70746 5.07629,5.38658 -6.44155,13.86361 -8.41497,29.17936 -12.57282,43.8373 -0.9805,3.92202 -1.51419,6.09403 -2.4947,10.02847 70.64607,15.93632 77.27379,16.69342 116.14651,24.09065 3.41315,-21.84418 6.82631,-43.70077 10.23946,-65.54495 -3.30145,-1.04257 -0.71987,-8.09228 -5.25005,-6.1685 -1.53902,2.10995 -2.01066,6.14367 -6.41673,4.30678 -3.85997,-2.46989 -8.45221,-1.66314 -12.57282,-0.69505 -3.1401,-2.18441 -7.33517,-2.4947 -9.54442,1.09221 -2.172,-0.062 -4.08337,-4.20748 -3.46279,-6.65254 2.37059,-4.93977 -3.53727,-7.31036 -6.2678,-10.26429 -1.21632,-7.29794 -4.31919,-14.44694 -3.10286,-21.95588 -2.30853,-0.0124 -5.27488,3.33868 -8.03022,4.50536 -2.74294,0.22341 -5.60998,-3.83514 -5.0887,-6.59049 1.47696,-6.66496 5.05147,-12.87069 7.29794,-19.36189 2.42024,-3.27662 1.39008,-6.91318 -2.99116,-6.97524 -1.92378,-4.18267 -6.10644,-7.02489 -6.96284,-11.82813 -1.6259,-3.26422 -1.76242,-8.03022 -6.2802,-8.39015 -1.22873,-2.29612 -3.94684,-5.54793 -2.37059,-8.35292 2.594,-3.69862 -0.42199,-7.07454 -1.89895,-10.54975 -2.64365,-3.78549 0.68263,-8.29086 0.83157,-12.42387 1.11703,-5.39899 2.23406,-10.78557 3.33868,-16.18456 -5.18799,-0.96809 -10.36357,-1.93619 -15.55157,-2.90428 -5.58516,25.96479 -11.17032,51.91717 -16.75548,77.88195 z"
       id="state_id"
       class="state-svg" />
  </g>
</svg>
