<svg xmlns="http://www.w3.org/2000/svg" width="35.669mm" height="218600.682" viewBox="0 0 126.38597 204.93814"><path d="M25.307 77.882c.645 3.81 2.817 6.516 6.13 8.415.498 3.748-.756 6.777-3.76 9.073-2.854 3.35-5.436 7.41-7.558 10.96.483 3.636-3.19 4.393-5.25 5.957-2.198 2.867-5.313 5.336-4.88 9.308-.793 3.016 5.822.708 5.078 5.387-6.442 13.863-8.415 29.18-12.573 43.837-.98 3.92-1.514 6.093-2.495 10.027 70.646 15.937 77.274 16.694 116.147 24.09 3.413-21.843 6.826-43.7 10.24-65.544-3.302-1.042-.72-8.092-5.25-6.168-1.54 2.11-2.012 6.143-6.418 4.306-3.86-2.468-8.453-1.662-12.574-.694-3.14-2.184-7.335-2.494-9.544 1.093-2.172-.063-4.083-4.21-3.463-6.654 2.37-4.94-3.538-7.31-6.27-10.264-1.215-7.298-4.318-14.447-3.1-21.956-2.31-.012-5.276 3.34-8.032 4.505-2.743.225-5.61-3.834-5.088-6.59 1.477-6.664 5.05-12.87 7.298-19.36 2.42-3.278 1.39-6.914-2.992-6.976-1.923-4.183-6.106-7.025-6.962-11.828-1.626-3.265-1.763-8.03-6.28-8.39-1.23-2.297-3.948-5.55-2.37-8.354 2.593-3.698-.423-7.074-1.9-10.55-2.644-3.785.682-8.29.83-12.423 1.118-5.4 2.235-10.787 3.34-16.186L42.062 0 25.307 77.882z" class="state-svg"/></svg>