<?xml version="1.0" encoding="UTF-8" standalone="no"?>
<!-- Created with Inkscape (http://www.inkscape.org/) -->

<svg
   xmlns:dc="http://purl.org/dc/elements/1.1/"
   xmlns:cc="http://creativecommons.org/ns#"
   xmlns:rdf="http://www.w3.org/1999/02/22-rdf-syntax-ns#"
   xmlns:svg="http://www.w3.org/2000/svg"
   xmlns="http://www.w3.org/2000/svg"
   xmlns:sodipodi="http://sodipodi.sourceforge.net/DTD/sodipodi-0.dtd"
   xmlns:inkscape="http://www.inkscape.org/namespaces/inkscape"
   width="23.865658mm"
   height="42.766232mm"
   viewBox="0 0 84.563354 151.53389"
   id="svg2"
   version="1.1"
   inkscape:version="0.91 r13725"
   sodipodi:docname="il.svg">
  <defs
     id="defs4" />
  <sodipodi:namedview
     id="base"
     pagecolor="#ffffff"
     bordercolor="#666666"
     borderopacity="1.0"
     inkscape:pageopacity="0.0"
     inkscape:pageshadow="2"
     inkscape:zoom="0.35"
     inkscape:cx="249.63427"
     inkscape:cy="63.064641"
     inkscape:document-units="px"
     inkscape:current-layer="layer1"
     showgrid="false"
     inkscape:window-width="1920"
     inkscape:window-height="1017"
     inkscape:window-x="3832"
     inkscape:window-y="-8"
     inkscape:window-maximized="1" />
  <metadata
     id="metadata7">
    <rdf:RDF>
      <cc:Work
         rdf:about="">
        <dc:format>image/svg+xml</dc:format>
        <dc:type
           rdf:resource="http://purl.org/dc/dcmitype/StillImage" />
        <dc:title></dc:title>
      </cc:Work>
    </rdf:RDF>
  </metadata>
  <g
     inkscape:label="Layer 1"
     inkscape:groupmode="layer"
     id="layer1"
     transform="translate(376.06286,-443.89295)">
    <path
       inkscape:connector-curvature="0"
       style="fill-opacity:1"
       d="m -361.38009,447.03305 c -0.35994,3.20216 5.21281,2.2713 4.62947,6.29261 2.56918,2.594 7.08695,5.22523 5.43622,9.64371 -0.38475,3.77309 -3.23939,6.75184 -3.82273,10.42564 -2.95393,3.36351 -7.52135,3.69861 -11.55507,4.89012 -1.99825,3.06563 -1.30321,6.09402 1.58866,8.03021 0.78193,4.03373 -1.34043,6.29262 -3.40074,9.15967 1.75002,4.50536 -2.96634,3.54968 -4.41848,6.23055 1.34044,3.87238 -2.61882,4.71636 -3.1401,8.24122 0.23582,4.90253 1.65073,10.18981 4.07096,14.37248 4.56742,4.91494 9.15966,9.80505 15.1544,12.9948 -0.7571,3.57451 -0.79433,8.31568 4.25714,7.08695 2.54435,0 7.67028,0.47164 7.76957,3.32627 -0.23581,5.44864 -4.46812,10.22705 -4.07096,15.55157 1.98584,4.75359 6.61531,7.76958 10.66145,10.45046 4.18267,-0.35994 6.65255,1.57625 7.32277,5.70927 1.25356,3.27663 4.766,5.87062 2.14718,9.5196 0.68263,2.15959 3.20216,9.55683 5.34934,5.02664 1.50179,-3.69862 6.71461,-5.93268 10.01606,-3.05322 3.84755,3.05322 7.37241,0.58334 3.88479,-3.47521 -1.21633,-4.20749 3.23939,-6.15609 6.66496,-6.61531 1.25355,-1.92378 -1.98584,-5.53552 1.7376,-7.40965 2.23406,-4.92735 -0.69504,-11.65437 4.12061,-15.50192 1.77484,-3.68621 4.0089,-7.40965 5.46104,-11.13309 0.16135,-3.72344 -0.8688,-7.07453 -2.90428,-10.12775 -0.55852,-5.69687 1.6259,-11.28203 0.0248,-16.94166 -1.43973,-18.6172 -2.75534,-37.29646 -4.55501,-55.86401 -1.26597,-3.84755 -1.99824,-8.01781 -5.01423,-10.88486 -2.8174,-2.27129 -0.63298,-7.36 -2.44506,-9.08519 -18.31932,1.03015 -36.63865,2.07272 -54.95797,3.10287 z"
       id="state_il"
       class="state-svg" />
  </g>
</svg>
