<svg xmlns="http://www.w3.org/2000/svg" width="90200.912" height="161636.152" viewBox="0 0 84.563354 151.53389"><path d="M14.683 3.14c-.36 3.202 5.213 2.27 4.63 6.293 2.568 2.594 7.086 5.225 5.435 9.643-.384 3.774-3.24 6.752-3.822 10.426-2.954 3.364-7.522 3.7-11.555 4.89-1.998 3.066-1.303 6.094 1.59 8.03.78 4.034-1.34 6.293-3.4 9.16 1.75 4.505-2.968 3.55-4.42 6.23C4.48 61.686.52 62.53 0 66.055c.236 4.902 1.65 10.19 4.07 14.372C8.64 85.34 13.23 90.23 19.226 93.42c-.757 3.576-.794 8.317 4.258 7.088 2.544 0 7.67.472 7.77 3.326-.237 5.45-4.47 10.227-4.072 15.552 1.987 4.753 6.616 7.77 10.663 10.45 4.182-.36 6.652 1.577 7.322 5.71 1.254 3.276 4.766 5.87 2.148 9.52.682 2.16 3.202 9.556 5.35 5.026 1.5-3.7 6.713-5.933 10.015-3.053 3.847 3.052 7.372.582 3.885-3.477-1.217-4.207 3.24-6.156 6.665-6.615 1.253-1.924-1.986-5.535 1.737-7.41 2.234-4.927-.695-11.654 4.12-15.5 1.776-3.688 4.01-7.41 5.462-11.135.16-3.723-.87-7.074-2.904-10.127-.56-5.697 1.626-11.282.024-16.942-1.44-18.617-2.755-37.296-4.555-55.864-1.266-3.847-1.998-8.018-5.014-10.885-2.817-2.27-.633-7.36-2.445-9.085-18.32 1.03-36.64 2.073-54.958 3.103z" class="state-svg"/></svg>