<?xml version="1.0" encoding="UTF-8" standalone="no"?>
<!-- Created with Inkscape (http://www.inkscape.org/) -->

<svg
   xmlns:dc="http://purl.org/dc/elements/1.1/"
   xmlns:cc="http://creativecommons.org/ns#"
   xmlns:rdf="http://www.w3.org/1999/02/22-rdf-syntax-ns#"
   xmlns:svg="http://www.w3.org/2000/svg"
   xmlns="http://www.w3.org/2000/svg"
   xmlns:sodipodi="http://sodipodi.sourceforge.net/DTD/sodipodi-0.dtd"
   xmlns:inkscape="http://www.inkscape.org/namespaces/inkscape"
   width="17.730696mm"
   height="31.157858mm"
   viewBox="0 0 62.8253 110.40186"
   id="svg2"
   version="1.1"
   inkscape:version="0.91 r13725"
   sodipodi:docname="in.svg">
  <defs
     id="defs4" />
  <sodipodi:namedview
     id="base"
     pagecolor="#ffffff"
     bordercolor="#666666"
     borderopacity="1.0"
     inkscape:pageopacity="0.0"
     inkscape:pageshadow="2"
     inkscape:zoom="0.35"
     inkscape:cx="1493.4426"
     inkscape:cy="745.41326"
     inkscape:document-units="px"
     inkscape:current-layer="layer1"
     showgrid="false"
     inkscape:window-width="1920"
     inkscape:window-height="1017"
     inkscape:window-x="3832"
     inkscape:window-y="-8"
     inkscape:window-maximized="1" />
  <metadata
     id="metadata7">
    <rdf:RDF>
      <cc:Work
         rdf:about="">
        <dc:format>image/svg+xml</dc:format>
        <dc:type
           rdf:resource="http://purl.org/dc/dcmitype/StillImage" />
        <dc:title></dc:title>
      </cc:Work>
    </rdf:RDF>
  </metadata>
  <g
     inkscape:label="Layer 1"
     inkscape:groupmode="layer"
     id="layer1"
     transform="translate(1619.8713,-1167.3736)">
    <path
       inkscape:connector-curvature="0"
       d="m -1571.9683,1167.9321 c -11.3192,1.1543 -22.775,2.4575 -34.0198,3.3263 -3.227,0.4841 -5.2252,6.305 -8.5515,3.6986 -4.7536,-3.5248 -3.2766,2.2713 -2.9912,5.5231 1.3653,18.3814 3.3884,36.7504 4.2696,55.1318 -0.9433,4.5798 -1.7252,9.7926 1.6879,13.5409 0.1242,3.711 1.7377,7.7944 -1.4149,10.7359 -2.2713,3.3883 -3.1649,7.5586 -6.2305,10.4505 0.1117,2.5815 -2.5071,10.1774 2.0231,6.4043 4.3316,-0.7447 8.9983,-1.899 13.2678,-1.6632 2.9291,5.0639 3.3139,-0.7695 6.5284,-1.601 2.5196,-3.2518 5.9327,2.5443 6.6278,1.2907 -1.5639,-4.2323 3.7855,-4.6791 6.3298,-6.4787 1.3529,0.7819 7.509,4.195 6.5781,-0.7944 -0.5709,-3.0656 2.5071,-5.8458 4.5302,-7.8688 3.8599,-1.7252 5.3741,-4.8405 5.1631,-8.9735 2.2713,-1.2412 6.1189,-1.2536 8.6508,-3.0657 5.2501,-1.2783 0.3227,-4.3192 1.5142,-7.3476 -1.0301,-15.5888 -3.4752,-31.19 -5.0638,-46.7788 -1.055,-8.6756 -1.7873,-17.3884 -2.6561,-26.0889 -2.0851,0.1986 -4.1578,0.3848 -6.243,0.5834 z"
       id="state_in"
       class="state-svg" />
  </g>
</svg>
