<?xml version="1.0" encoding="UTF-8" standalone="no"?>
<!-- Created with Inkscape (http://www.inkscape.org/) -->

<svg
   xmlns:dc="http://purl.org/dc/elements/1.1/"
   xmlns:cc="http://creativecommons.org/ns#"
   xmlns:rdf="http://www.w3.org/1999/02/22-rdf-syntax-ns#"
   xmlns:svg="http://www.w3.org/2000/svg"
   xmlns="http://www.w3.org/2000/svg"
   xmlns:sodipodi="http://sodipodi.sourceforge.net/DTD/sodipodi-0.dtd"
   xmlns:inkscape="http://www.inkscape.org/namespaces/inkscape"
   width="44.211666mm"
   height="22.12265mm"
   viewBox="0 0 156.65551 78.387337"
   id="svg2"
   version="1.1"
   inkscape:version="0.91 r13725"
   sodipodi:docname="ky.svg">
  <defs
     id="defs4" />
  <sodipodi:namedview
     id="base"
     pagecolor="#ffffff"
     bordercolor="#666666"
     borderopacity="1.0"
     inkscape:pageopacity="0.0"
     inkscape:pageshadow="2"
     inkscape:zoom="0.35"
     inkscape:cx="-185.43212"
     inkscape:cy="190.11192"
     inkscape:document-units="px"
     inkscape:current-layer="layer1"
     showgrid="false"
     inkscape:window-width="1920"
     inkscape:window-height="1017"
     inkscape:window-x="3832"
     inkscape:window-y="-8"
     inkscape:window-maximized="1" />
  <metadata
     id="metadata7">
    <rdf:RDF>
      <cc:Work
         rdf:about="">
        <dc:format>image/svg+xml</dc:format>
        <dc:type
           rdf:resource="http://purl.org/dc/dcmitype/StillImage" />
        <dc:title></dc:title>
      </cc:Work>
    </rdf:RDF>
  </metadata>
  <g
     inkscape:label="Layer 1"
     inkscape:groupmode="layer"
     id="layer1"
     transform="translate(-59.003456,-644.08679)">
    <path
       inkscape:connector-curvature="0"
       d="m 153.32858,644.82836 c -3.42556,-0.95568 -7.44688,1.37768 -4.19507,4.69154 1.88654,3.90961 -3.87238,5.11352 -6.44156,6.54084 -3.64897,0.65781 -5.8458,1.60108 -5.33693,5.98233 -1.42732,3.30145 -6.57808,4.02132 -7.84404,7.84405 -2.68088,1.7376 0.91844,7.71993 -3.52486,7.34759 -3.79791,0.7571 -5.4114,-3.4628 -8.79973,0.13652 -2.80499,0.63299 -1.36526,8.66321 -4.77842,3.84756 -2.8174,-3.15251 -6.91319,0.17376 -7.64546,3.48762 -2.37059,1.32803 -4.2199,-4.62948 -7.471707,-2.37059 -4.1206,0.7571 -9.28378,0.58334 -12.31217,3.61174 0.0993,3.28904 -4.20749,4.69153 -2.10995,7.50894 2.90428,3.30145 -2.76776,3.32627 -4.79083,4.09578 -4.43089,1.67555 -0.84398,5.39899 -0.94327,8.34051 0.40958,4.28195 -4.66671,1.78725 -6.8139,0.89362 -3.10287,-2.84222 -7.76958,-0.47163 -8.84938,3.14011 3.54969,2.82981 -0.0496,5.90785 0.50888,9.50718 -4.30678,2.53194 -3.95926,3.38833 1.16667,2.9167 7.2483,0.0124 14.44695,-1.17909 21.72007,-0.94328 -0.8688,-4.64189 1.21633,-6.19332 5.65963,-5.2004 30.197107,-3.73585 60.592787,-5.83339 90.802297,-9.22172 5.33694,-0.86881 10.17741,-2.95393 14.58349,-6.0568 4.09578,-0.99292 5.01423,-3.36351 6.35467,-6.64013 4.29436,-5.0763 8.84937,-10.00365 13.39197,-14.89377 -4.05855,-1.53902 -3.76068,-6.83872 -7.70752,-8.62597 -3.22698,-1.55143 -2.56918,-5.78374 -6.40432,-6.65254 -2.95393,-3.27663 0.99292,-9.03555 -3.74826,-11.00898 -3.74826,-0.0124 -2.94152,-5.77133 -5.67204,-4.35642 -3.66138,0.7571 -4.55501,5.93268 -8.71286,4.08337 -3.33869,-0.28546 -6.83872,-1.47696 -9.70577,0.88121 -3.72344,1.03016 -4.95217,-4.48054 -9.23413,-2.55676 -4.35643,1.01774 -2.69329,-6.44155 -7.01248,-6.52843 -1.43973,-1.12944 -2.63123,-0.211 -4.13302,0.19858 z"
       id="state_ky"
       class="state-svg" />
  </g>
</svg>
