<?xml version="1.0" encoding="UTF-8" standalone="no"?>
<!-- Created with Inkscape (http://www.inkscape.org/) -->

<svg
   xmlns:dc="http://purl.org/dc/elements/1.1/"
   xmlns:cc="http://creativecommons.org/ns#"
   xmlns:rdf="http://www.w3.org/1999/02/22-rdf-syntax-ns#"
   xmlns:svg="http://www.w3.org/2000/svg"
   xmlns="http://www.w3.org/2000/svg"
   xmlns:sodipodi="http://sodipodi.sourceforge.net/DTD/sodipodi-0.dtd"
   xmlns:inkscape="http://www.inkscape.org/namespaces/inkscape"
   width="35.570854mm"
   height="30.221201mm"
   viewBox="0 0 126.03846 107.08299"
   id="svg2"
   version="1.1"
   inkscape:version="0.91 r13725"
   sodipodi:docname="la.svg">
  <defs
     id="defs4" />
  <sodipodi:namedview
     id="base"
     pagecolor="#ffffff"
     bordercolor="#666666"
     borderopacity="1.0"
     inkscape:pageopacity="0.0"
     inkscape:pageshadow="2"
     inkscape:zoom="0.35"
     inkscape:cx="483.67025"
     inkscape:cy="591.15374"
     inkscape:document-units="px"
     inkscape:current-layer="layer1"
     showgrid="false"
     inkscape:window-width="1920"
     inkscape:window-height="1017"
     inkscape:window-x="3832"
     inkscape:window-y="-8"
     inkscape:window-maximized="1" />
  <metadata
     id="metadata7">
    <rdf:RDF>
      <cc:Work
         rdf:about="">
        <dc:format>image/svg+xml</dc:format>
        <dc:type
           rdf:resource="http://purl.org/dc/dcmitype/StillImage" />
        <dc:title></dc:title>
      </cc:Work>
    </rdf:RDF>
  </metadata>
  <g
     inkscape:label="Layer 1"
     inkscape:groupmode="layer"
     id="layer1"
     transform="translate(610.09897,-1016.433)">
    <path
       inkscape:connector-curvature="0"
       d="m -610.09897,1017.8816 c 0.12411,9.3458 -0.29788,19.0143 2.07272,28.0623 2.58158,3.0905 3.50003,6.8387 3.90961,10.7608 2.32094,3.4503 6.54084,6.1436 5.69686,10.8228 1.99825,2.7057 -0.26064,7.0621 0.0993,10.4008 0.52128,3.2766 -5.4114,6.0692 -2.4947,8.8369 1.32802,2.805 -1.14186,6.5905 -0.65781,9.8671 0.47163,3.9965 -2.94152,7.0746 -1.92378,11.0835 6.42914,-2.9788 13.62779,-1.0674 20.44169,-1.3529 7.09936,2.11 14.34765,6.0444 21.79453,5.2873 3.63656,-2.7926 7.37241,0.4468 11.1455,1.1543 1.34044,-4.2199 -5.23764,-1.0053 -7.19865,-2.7305 -2.37059,-0.4469 -3.58691,-2.8547 -1.45214,-4.2199 2.58158,-1.3653 5.06388,-1.3529 7.02489,0.05 2.66846,-1.7252 6.95042,-0.2979 7.76958,2.9539 -0.40958,4.493 4.24472,2.11 6.55325,3.9097 4.75359,1.8617 -1.75002,5.0514 1.03015,6.6649 3.57451,1.2039 7.11177,3.649 10.69869,4.0834 4.35642,-0.062 3.48762,-5.6224 8.03022,-5.1756 2.27129,-3.5993 5.51069,-0.3103 5.44863,2.867 1.89895,2.0355 4.96459,-4.5674 2.45747,-4.5425 0.27305,-4.1827 2.69329,-3.9841 5.34934,-6.7147 1.97343,1.1791 1.12945,3.5001 1.75002,5.1632 4.13302,0.4841 9.23413,1.3529 11.59231,5.0391 3.4628,0.099 6.41673,1.3652 6.90078,-3.1774 -3.32628,-0.3351 -5.15076,-4.8156 -9.12243,-3.9592 -2.86705,0.075 -7.81923,-2.0107 -7.63305,-4.6791 2.01065,-4.493 2.76775,-2.1596 2.51952,-5.4363 3.57451,1.3529 7.06213,-2.8174 3.9965,-5.5479 0.57092,-5.7341 -4.62948,-0.1862 -4.14543,2.7181 -1.68796,1.5018 -7.88128,-1.1915 -5.70928,-4.0585 2.12236,-2.2837 5.21282,-5.5852 2.71811,-8.626 -0.16135,-4.0461 -3.33868,-6.4664 -5.54792,-9.1597 0.64539,-3.3511 2.80499,-9.1224 -2.92911,-6.7766 -12.94516,1.5886 -26.02685,0.8564 -39.03406,1.3901 -1.99825,-4.6171 -0.0248,-9.6313 0.19858,-14.3849 3.30145,-6.032 6.77666,-11.9771 10.23946,-17.9222 -2.53194,-3.5 4.36884,-5.5231 -0.91845,-8.0426 -0.65781,-2.6685 -1.60108,-5.7713 -2.87946,-8.477 -0.0993,-3.8476 1.11703,-9.0604 -4.49295,-7.1863 -21.09949,0.3475 -42.19899,0.7075 -63.29848,1.055 z"
       id="state_la"
       class="state-svg" />
  </g>
</svg>
