<svg xmlns="http://www.w3.org/2000/svg" width="134441.023" height="114221.862" viewBox="0 0 126.03846 107.08299"><path d="M0 1.45c.124 9.344-.298 19.013 2.073 28.06 2.58 3.09 3.5 6.84 3.91 10.762 2.32 3.45 6.54 6.143 5.696 10.823 1.997 2.705-.26 7.062.098 10.4.522 3.277-5.41 6.07-2.494 8.837 1.328 2.805-1.142 6.59-.658 9.867.472 3.996-2.942 7.074-1.924 11.083 6.43-2.98 13.628-1.068 20.442-1.353 7.1 2.11 14.348 6.044 21.794 5.287 3.637-2.792 7.373.447 11.146 1.155 1.34-4.22-5.238-1.006-7.2-2.73-2.37-.448-3.586-2.856-1.45-4.22 2.58-1.366 5.063-1.354 7.024.05 2.668-1.726 6.95-.3 7.77 2.953-.41 4.493 4.244 2.11 6.553 3.91 4.754 1.86-1.75 5.05 1.03 6.665 3.576 1.204 7.113 3.65 10.7 4.083 4.356-.062 3.487-5.622 8.03-5.176 2.27-3.6 5.51-.31 5.45 2.867 1.897 2.036 4.963-4.567 2.456-4.542.273-4.183 2.693-3.984 5.35-6.715 1.973 1.18 1.13 3.5 1.75 5.163 4.132.485 9.233 1.353 11.592 5.04 3.462.1 6.416 1.365 6.9-3.178-3.326-.335-5.15-4.815-9.122-3.96-2.867.076-7.82-2.01-7.633-4.678 2.01-4.493 2.768-2.16 2.52-5.436 3.574 1.352 7.062-2.818 3.996-5.548.57-5.734-4.63-.187-4.146 2.718-1.688 1.502-7.882-1.192-5.71-4.06 2.123-2.282 5.213-5.584 2.718-8.625-.16-4.046-3.338-6.466-5.548-9.16.646-3.35 2.805-9.122-2.93-6.776-12.944 1.59-26.025.856-39.033 1.39-1.997-4.617-.023-9.63.2-14.385 3.3-6.032 6.777-11.977 10.24-17.922-2.533-3.5 4.368-5.523-.92-8.043-.657-2.668-1.6-5.77-2.88-8.477C67.693 3.733 68.91-1.48 63.3.394 42.198.742 21.098 1.102 0 1.45z" class="state-svg"/></svg>