<svg xmlns="http://www.w3.org/2000/svg" width="78187.982" height="40972.139" viewBox="0 0 73.301232 38.411376"><path d="M41.335 1.564c-1.29 3.847-4.977 4.344-8.428 5.126C22.21 9.57 11.597 12.4.687 14.286.55 20.206-.765 26.188.65 32.046c13.23-3.227 26.734-5.324 39.717-9.234 4.43 3.488 7.46 8.353 10.276 13.144 2.644-.968.013-6.392 4.68-6.677 3.636-4.072 2.27 5.93 3.934 3.25 2.644-3.835 7.57-4.84 11.68-6.466-.137-4.232-2.744-10.612-7.92-9.346 2.036-.124 6.07 1.08 6.095 4.74 1.055 2.782-3.165 4.606-5.4 5.264-4.182.633-6.193-2.185-7.843-5.548-1.714-2.544-4.445-8.142-7.82-4.468-2.346-2.135-3.885-5.014-1.65-7.82C49.252 5.983 47.924 1.193 44.81 0c-1.154.51-2.31 1.018-3.463 1.54zm30.606 35.1c-1.984 3.425 3.787-3.03.1-.398l-.1.397zm-14 1.588c1.975.968 7.56-2.805 2.21-2.52-.732.845-1.476 1.676-2.21 2.52z" class="state-svg"/></svg>