<svg xmlns="http://www.w3.org/2000/svg" width="103029.887" height="50978.498" viewBox="0 0 96.590517 47.792339"><path d="M64.267 1.57C42.782 5.52 21.41 10.05 0 14.33c.918 3.75 1.626 7.546 2.21 11.37 2.655-2.36 4.083-6.64 8.178-6.63 2.657-2.295 3.314-6.515 7.162-4.405 4.294.224 6.74-6.64 11.183-4.778 3.264 2.023 7.024 3.463 9.11 6.938 5.2.136 4.567 4.63 7.124 6.156 3.388 1.38 6.658-1.012 8.346-3.135 1.893 2.138 5.204 4.322 6.264 6.274.544 1-1.46 1.866-4.734 5.11.112 3.685-4.763 5.764-2.23 9.55 3.847 1.625 7.943 1.488 11.952 1.737 2.693 1.96 8.477 1.278 4.703-2.607.51-3.4-3.822-4.158-4.12-7.496-2.11-3.314-1.763-6.79-.447-10.327 2.086-3.003-3.51-4.74-.495-6.714 1.55-1.9.533-5.163 3.698-5.834 2.01-3.75 6.33-1.8 2.917 1.265-3.153 3.7-1.005 5.586.707 7.82 1.75 4.406-.844 6.292-1.9 9.072-.272-1.005 4.494-1.253 3.998 2.222-3.91 2.035-1.8 7.595 1.353 9.072 3.698 1.23 6.925-2.234 8.663 2.656 1.863 4.654 6.107 1.005 9.198-.025 3.4-1.502 4.307-6.12 3.45-9.557-1.402-1.96-5.982 1.142-8.85.497-4.79 1.563-6.08-1.552-6.552-5.76C78.8 19.394 78.23 11.5 74.48 4.588 74.43-.775 71.12-.626 66.95.975c-.907.2-1.8.385-2.706.584zm13.578 40.45c1.638 1.23.732 6.17 2.557 5.747-.596-1.626-.447-6.194-2.557-5.747z" class="state-svg"/></svg>