<?xml version="1.0" encoding="UTF-8" standalone="no"?>
<!-- Created with Inkscape (http://www.inkscape.org/) -->

<svg
   xmlns:dc="http://purl.org/dc/elements/1.1/"
   xmlns:cc="http://creativecommons.org/ns#"
   xmlns:rdf="http://www.w3.org/1999/02/22-rdf-syntax-ns#"
   xmlns:svg="http://www.w3.org/2000/svg"
   xmlns="http://www.w3.org/2000/svg"
   xmlns:sodipodi="http://sodipodi.sourceforge.net/DTD/sodipodi-0.dtd"
   xmlns:inkscape="http://www.inkscape.org/namespaces/inkscape"
   width="21.665791mm"
   height="34.589012mm"
   viewBox="0 0 76.768549 122.55949"
   id="svg2"
   version="1.1"
   inkscape:version="0.91 r13725"
   sodipodi:docname="me.svg">
  <defs
     id="defs4" />
  <sodipodi:namedview
     id="base"
     pagecolor="#ffffff"
     bordercolor="#666666"
     borderopacity="1.0"
     inkscape:pageopacity="0.0"
     inkscape:pageshadow="2"
     inkscape:zoom="0.35"
     inkscape:cx="-637.65584"
     inkscape:cy="738.09297"
     inkscape:document-units="px"
     inkscape:current-layer="layer1"
     showgrid="false"
     inkscape:window-width="1920"
     inkscape:window-height="1017"
     inkscape:window-x="3832"
     inkscape:window-y="-8"
     inkscape:window-maximized="1" />
  <metadata
     id="metadata7">
    <rdf:RDF>
      <cc:Work
         rdf:about="">
        <dc:format>image/svg+xml</dc:format>
        <dc:type
           rdf:resource="http://purl.org/dc/dcmitype/StillImage" />
        <dc:title></dc:title>
      </cc:Work>
    </rdf:RDF>
  </metadata>
  <g
     inkscape:label="Layer 1"
     inkscape:groupmode="layer"
     id="layer1"
     transform="translate(-511.22725,-1147.8957)">
    <path
       inkscape:connector-curvature="0"
       d="m 542.56203,1149.8816 c -2.68087,1.6259 -4.57983,3.4007 -6.00715,5.8209 -2.84222,0.7447 -6.19332,-1.7003 -6.05679,-4.8901 -3.68621,-1.0177 -4.13302,4.5674 -5.42381,7.087 -1.35285,5.3245 -4.05855,10.4132 -4.92736,15.7501 -0.0745,3.7731 1.24115,8.2288 -1.67554,11.2821 0.0993,3.6241 -0.93086,7.6702 2.48229,10.1277 -1.70037,7.0745 -7.73235,12.8583 -6.71461,20.5534 -5.29969,-2.7429 -2.15959,3.0656 -1.35285,5.8706 4.35643,13.7519 8.92385,27.5038 12.72176,41.3923 0.26064,3.7358 7.21106,1.6755 5.62239,7.0745 3.59933,2.4823 2.55677,-4.8653 3.30145,-7.2855 -1.25355,-4.0834 3.3511,-5.7465 0.81916,-9.4576 1.16668,-1.3032 3.62415,-7.3227 5.72169,-4.2943 2.51952,1.2783 6.55325,-2.3458 8.36533,-3.9593 -1.21633,-4.9894 5.22522,-2.172 5.87062,-6.6029 -1.37767,-3.2394 0.91845,-6.7642 -0.70745,-9.2341 -3.00358,-1.9734 4.38124,-5.7465 4.10819,-0.9681 2.8174,0.5957 2.66847,3.4752 4.5426,4.8777 2.40782,-3.5 -2.66847,-4.7288 0.4344,-7.4841 3.01599,-1.0054 3.84755,-4.915 7.44688,-4.1082 -0.21099,1.8121 1.27838,4.1454 2.80499,1.7128 3.64897,-3.5994 6.50361,-8.7874 11.62955,-10.3512 1.45214,-3.2394 4.14543,-7.1242 0.88121,-10.2271 -0.68263,-2.0354 -4.56742,-6.0071 -5.15076,-3.2021 -0.93086,3.227 -5.78374,-0.8068 -6.10644,-2.7554 0.12411,-3.4752 0.35993,-8.899 -4.71636,-7.211 -4.91494,1.6879 -4.51777,-3.7731 -5.82098,-6.9629 -3.05322,-10.1153 -6.11885,-20.2306 -9.18448,-30.346 -3.54968,-1.5514 -7.08695,-3.6241 -10.9345,-4.1951 -0.65781,0.6578 -1.31562,1.3157 -1.97343,1.9735 z m 25.40628,75.7099 c -3.48763,2.11 2.32094,6.4043 1.40249,1.5142 1.8369,-1.117 0.16135,-2.9787 -1.40249,-1.5142 z m -9.69336,9.6934 c 3.92202,8.2784 3.26422,-4.4557 0,0 z"
       id="state_me"
       class="state-svg" />
  </g>
</svg>
