<?xml version="1.0" encoding="UTF-8" standalone="no"?>
<!-- Created with Inkscape (http://www.inkscape.org/) -->

<svg
   xmlns:dc="http://purl.org/dc/elements/1.1/"
   xmlns:cc="http://creativecommons.org/ns#"
   xmlns:rdf="http://www.w3.org/1999/02/22-rdf-syntax-ns#"
   xmlns:svg="http://www.w3.org/2000/svg"
   xmlns="http://www.w3.org/2000/svg"
   xmlns:sodipodi="http://sodipodi.sourceforge.net/DTD/sodipodi-0.dtd"
   xmlns:inkscape="http://www.inkscape.org/namespaces/inkscape"
   width="45.777988mm"
   height="48.194904mm"
   viewBox="0 0 162.20547 170.76935"
   id="svg2"
   version="1.1"
   inkscape:version="0.91 r13725"
   sodipodi:docname="mi.svg">
  <defs
     id="defs4" />
  <sodipodi:namedview
     id="base"
     pagecolor="#ffffff"
     bordercolor="#666666"
     borderopacity="1.0"
     inkscape:pageopacity="0.0"
     inkscape:pageshadow="2"
     inkscape:zoom="0.35"
     inkscape:cx="81.102735"
     inkscape:cy="85.384672"
     inkscape:document-units="px"
     inkscape:current-layer="layer1"
     showgrid="false"
     inkscape:window-width="1920"
     inkscape:window-height="1017"
     inkscape:window-x="3832"
     inkscape:window-y="-8"
     inkscape:window-maximized="1" />
  <metadata
     id="metadata7">
    <rdf:RDF>
      <cc:Work
         rdf:about="">
        <dc:format>image/svg+xml</dc:format>
        <dc:type
           rdf:resource="http://purl.org/dc/dcmitype/StillImage" />
        <dc:title></dc:title>
      </cc:Work>
    </rdf:RDF>
  </metadata>
  <g
     inkscape:label="Layer 1"
     inkscape:groupmode="layer"
     id="layer1"
     transform="translate(207.53133,-446.97755)">
    <path
       inkscape:connector-curvature="0"
       d="m -45.723025,574.1951 -4.00891,-10.2395 -2.8174,-11.2323 -3.00358,-4.009 -3.21457,-2.2092 -1.99824,1.4025 -4.81565,2.2092 -2.40783,6.2182 -3.41315,4.6171 -1.4025,0.7943 -1.81207,-0.7943 c 0,0 -3.21457,-1.8121 -3.00357,-2.6065 0.19858,-0.8067 0.59575,-6.2305 0.59575,-6.2305 l 4.21989,-1.6011 0.99292,-4.2075 0.80675,-3.2145 3.01598,-2.0107 -0.40957,-12.4363 -1.99825,-2.805 -1.61349,-1.0053 -1.00533,-2.6064 1.00533,-1.0054 2.01066,0.3972 0.19858,-1.9982 -3.00358,-2.8174 -1.61349,-3.2022 -3.20215,0 -5.6224,-1.8121 -6.82631,-4.2075 -3.41315,0 -0.79433,0.7944 -1.20392,-0.5958 -3.81032,-2.8174 -3.611735,2.2093 -3.61174,2.8174 0.39717,4.406 1.20391,0.4096 2.60641,0.5958 0.60816,1.0053 -3.21457,1.0053 -3.21457,0.3972 -1.79966,2.2092 -0.39717,2.6064 0.39717,2.0107 0.39716,6.8139 -4.40607,2.6064 -0.80674,-0.1986 0,-5.2128 1.60108,-3.0036 0.80674,-3.016 -1.00533,-1.0053 -2.40782,1.0053 -1.20391,5.2129 -3.41316,1.4025 -2.20924,2.4078 -0.19858,1.2039 0.80674,1.0053 -0.80674,3.2146 -2.80499,0.5957 0,1.4149 1.00532,3.0036 -1.40249,7.6207 -2.01066,5.0266 0.80675,5.8086 0.59575,1.4149 -1.00533,3.0036 -0.39717,1.0053 -0.39717,3.4131 4.40608,7.4221 3.61173,8.0178 1.81208,6.0196 -1.00533,5.8209 -1.20391,7.4221 -3.01599,6.4291 -0.39717,3.4132 -4.04614,3.8227 5.47346,-0.1986 26.585365,-2.8049 9.03555,-1.2288 0.1117,2.0603 8.51427,-1.5018 12.7714,-1.8617 4.79083,-0.5709 0.17376,-0.7323 0.19858,-1.7997 2.60641,-4.617 2.48229,-2.1596 -0.27305,-6.2678 1.97342,-1.9858 1.35285,-0.422 0.28547,-4.4185 1.89895,-3.7607 1.30321,0.7571 0.21099,0.7943 0.99292,0.1986 2.40782,-1.2039 -0.39716,-11.8281 z m -144.270905,-118.13236 2.2713,-2.55676 2.69329,-0.99292 6.66496,-4.82806 2.84222,-0.70745 0.57093,0.57093 -6.39191,6.37949 -4.10819,2.42024 -2.55676,1.12944 -1.98584,-1.41491 z m 106.949615,39.87806 0.80675,3.1029 4.0089,0.1985 1.61349,-1.5018 c 0,0 -0.0993,-1.7996 -0.50887,-1.9982 -0.39716,-0.211 -1.99824,-2.3085 -1.99824,-2.3085 l -2.71811,0.2978 -1.99825,0.1986 -0.40958,1.4025 1.20391,0.6082 z m -124.487015,-3.6986 0.89363,-0.71989 3.41315,-1.00533 4.40607,-2.805 0,-1.20391 0.80675,-0.80674 7.42205,-1.20391 3.01599,-2.40783 5.4114,-2.60641 0.19858,-1.60108 2.40783,-3.61173 2.20924,-1.00533 1.60108,-2.20924 2.8174,-2.805 5.4114,-3.00357 5.82098,-0.60816 1.40249,1.40249 -0.39716,1.20392 -4.61707,1.20391 -1.79966,3.81032 -2.8174,1.00533 -0.59576,3.01598 -3.01598,4.00891 -0.39717,3.21457 1.00533,0.59575 1.20391,-1.4025 4.40607,-3.61173 1.61349,1.60107 2.80499,0 4.00891,1.20392 1.81207,1.40249 1.79967,3.82273 3.41315,3.40075 4.81565,-0.19859 1.81207,-1.20391 1.99825,1.61349 2.01066,0.59575 1.60108,-1.00533 1.40249,0 2.01066,-1.20391 5.01423,-4.40607 4.2199,-1.41491 8.2288,-0.39717 5.60999,-2.40782 3.21457,-1.60108 1.79966,0.19859 0,7.02489 0.60816,0.39716 3.61174,1.00533 2.40782,-0.60816 7.620645,-1.99825 1.4025,-1.40249 1.81207,0.59575 0,8.62595 4.00891,3.8103 1.60108,0.8068 1.61349,1.2039 -1.61349,0.3972 -0.99292,-0.3972 -4.61707,-0.5958 -2.6064,0.7944 -2.81741,-0.1986 -4.008905,1.8121 -2.20924,0 -7.22348,-1.6135 -6.41673,0.1986 -2.40782,3.2145 -8.62597,0.8068 -3.01599,1.0053 -1.40249,3.8103 -1.60108,1.4025 -0.60816,-0.1986 -1.79966,-2.0106 -5.6224,3.016 -0.80675,0 -1.40249,-2.0107 -1.00533,0.1986 -2.40782,5.4238 -1.20392,5.0142 -3.94684,8.6881 -1.45214,-1.2908 -1.70038,-1.2784 -2.42023,-12.7714 -4.39366,-1.7004 -2.54435,-2.8298 -15.0427,-3.4131 -3.54968,-1.2784 -10.21464,-2.6933 -9.79264,-1.4149 -4.61707,-6.3919 z"
       id="state_mi"
       class="state-svg" />
  </g>
</svg>
