<svg xmlns="http://www.w3.org/2000/svg" width="149666.559" height="167021.975" viewBox="0 0 140.3124 156.5831"><path d="M37.545.012c-.857 3.128 1.154 9.21-1.626 10.352L0 10.326c1.44 3.562 2.706 7.15 1.204 10.935.062 7.125-.98 14.72 3.115 21.038 2.53 4.692.794 10.513 1.86 15.64 1.02 8.488 2.185 16.965 4.407 25.22.062 4.752 1.092 9.68.037 14.31-1.948 2.16-6.094 4.083-2.755 7.173 2.345 2.272 6.267 3.65 5.683 7.572.348 14.77.31 29.577.522 44.37 33.163-.47 66.326-.93 99.49-1.4-.186-4.494-.57-9.844-5.412-11.755-3.748-2.06-7.744-3.848-9.47-8.068-.893-4.48-6.602-1.44-7.508-5.722-1.937-2.594-6.566-.46-8.155-4.692-2.06-2.606-.645-6.826-1.365-10.053-1.663-3.637 2.048-6.193 1.824-9.358-.25-3.997-6.653-4.78-2.78-9.222.508-5.548 6.69-6.615 9.444-10.66.298-4.805-.906-10.104.646-14.61 2.184-3.897 6.417-6.33 10.277-7.77 2.383-2.58 4.542-5.67 7.608-7.21 3.152-6.17 7.496-12.4 14.658-14.15 5.647-2.457 11.32-4.865 16.88-7.496.905-3.91-4.593-.223-6.28.037-1.02-4.803-5.214-3.835-9.036-3.562-2.793-1.08-6.628 3.513-7.447-.82-1.403-4.343-5.598.895-7.298 2.645-2.892 2.023-7.72 1.44-10.004-.695 1.167-3.786-5.722-.484-5.622-4.915-.2-2.855-4.32 1.613-7.162-1.49-3.773-1.13-6.826-3.996-10.29-5.436-3.09.498-7.272-2.953-8.315 1.863-1.453.98-8.875 2.27-7.36-1.912-3.712.04-7.485-.06-9.346-2.17-3.227.732-7.1-.51-7.323-4.258-1.09-4.07-1.786-8.204-2.332-12.386C40.87.57 39.245.05 37.545 0z" class="state-svg"/></svg>