<?xml version="1.0" encoding="UTF-8" standalone="no"?>
<!-- Created with Inkscape (http://www.inkscape.org/) -->

<svg
   xmlns:dc="http://purl.org/dc/elements/1.1/"
   xmlns:cc="http://creativecommons.org/ns#"
   xmlns:rdf="http://www.w3.org/1999/02/22-rdf-syntax-ns#"
   xmlns:svg="http://www.w3.org/2000/svg"
   xmlns="http://www.w3.org/2000/svg"
   xmlns:sodipodi="http://sodipodi.sourceforge.net/DTD/sodipodi-0.dtd"
   xmlns:inkscape="http://www.inkscape.org/namespaces/inkscape"
   width="39.599277mm"
   height="44.191231mm"
   viewBox="0 0 140.3124 156.5831"
   id="svg2"
   version="1.1"
   inkscape:version="0.91 r13725"
   sodipodi:docname="mn.svg">
  <defs
     id="defs4" />
  <sodipodi:namedview
     id="base"
     pagecolor="#ffffff"
     bordercolor="#666666"
     borderopacity="1.0"
     inkscape:pageopacity="0.0"
     inkscape:pageshadow="2"
     inkscape:zoom="0.35"
     inkscape:cx="814.59023"
     inkscape:cy="214.36257"
     inkscape:document-units="px"
     inkscape:current-layer="layer1"
     showgrid="false"
     inkscape:window-width="1920"
     inkscape:window-height="1017"
     inkscape:window-x="3832"
     inkscape:window-y="-8"
     inkscape:window-maximized="1" />
  <metadata
     id="metadata7">
    <rdf:RDF>
      <cc:Work
         rdf:about="">
        <dc:format>image/svg+xml</dc:format>
        <dc:type
           rdf:resource="http://purl.org/dc/dcmitype/StillImage" />
        <dc:title></dc:title>
      </cc:Work>
    </rdf:RDF>
  </metadata>
  <g
     inkscape:label="Layer 1"
     inkscape:groupmode="layer"
     id="layer1"
     transform="translate(941.01882,-590.14171)">
    <path
       inkscape:connector-curvature="0"
       d="m -903.47414,590.15412 c -0.85639,3.12769 1.15427,9.20931 -1.6259,10.35116 -11.97707,-0.0124 -23.94172,-0.0248 -35.91879,-0.0372 1.43973,3.56209 2.7057,7.14901 1.20391,10.9345 0.0621,7.12418 -0.9805,14.72 3.11528,21.03744 2.53194,4.69153 0.79434,10.51251 1.86172,15.63845 1.01774,8.48944 2.18442,16.96647 4.40607,25.2201 0.0621,4.75359 1.09221,9.68094 0.0372,14.31042 -1.9486,2.1596 -6.09403,4.08337 -2.75534,7.17383 2.34576,2.2713 6.26779,3.64897 5.68445,7.57099 0.34752,14.76965 0.31029,29.57653 0.52128,44.371 33.16344,-0.47164 66.32688,-0.93086 99.49032,-1.4025 -0.18617,-4.49295 -0.57092,-9.84229 -5.4114,-11.75366 -3.74826,-2.0603 -7.74475,-3.84755 -9.46995,-8.06745 -0.89362,-4.48054 -6.6029,-1.43973 -7.50894,-5.72169 -1.93618,-2.59399 -6.56566,-0.45922 -8.15433,-4.69153 -2.0603,-2.60641 -0.6454,-6.82631 -1.36526,-10.05329 -1.66314,-3.63656 2.04789,-6.19332 1.82448,-9.35825 -0.24822,-3.99649 -6.65254,-4.77841 -2.78016,-9.22172 0.50887,-5.54792 6.68978,-6.61531 9.44512,-10.66145 0.29788,-4.80323 -0.90603,-10.10293 0.6454,-14.60829 2.18442,-3.8972 6.41673,-6.32985 10.2767,-7.76958 2.383,-2.58159 4.54259,-5.67204 7.60823,-7.21106 3.15251,-6.1685 7.49652,-12.39906 14.65794,-14.14908 5.64722,-2.45747 11.31926,-4.86529 16.87959,-7.49652 0.90604,-3.90961 -4.59224,-0.22341 -6.2802,0.0372 -1.01774,-4.80324 -5.21282,-3.83515 -9.03555,-3.56209 -2.79258,-1.0798 -6.62772,3.51244 -7.44688,-0.81916 -1.40249,-4.34401 -5.59757,0.89363 -7.29794,2.64364 -2.89187,2.02307 -7.71993,1.43973 -10.00364,-0.69504 1.16668,-3.7855 -5.72169,-0.48405 -5.6224,-4.91494 -0.19858,-2.85464 -4.31919,1.61349 -7.16142,-1.48938 -3.77308,-1.12944 -6.8263,-3.99649 -10.2891,-5.43622 -3.09046,0.49646 -7.27312,-2.95393 -8.31569,1.86172 -1.45214,0.98051 -8.87419,2.2713 -7.36,-1.91137 -3.71102,0.0372 -7.48411,-0.0621 -9.34583,-2.172 -3.22698,0.73227 -7.09936,-0.50887 -7.32277,-4.25713 -1.09221,-4.07096 -1.78725,-8.20398 -2.33336,-12.38664 -1.52661,-0.74469 -3.15251,-1.26597 -4.85288,-1.31562 z"
       id="state_mn"
       class="state-svg" />
  </g>
</svg>
