<svg xmlns="http://www.w3.org/2000/svg" width="147924.404" height="132254.974" viewBox="0 0 138.67913 123.98904"><path d="M1.37 2.985c-2.968-.57-.237 5.026.086 6.95 3.04 4.12 5.597 9.755 10.61 11.443 3.49-.297 4.482 3.314 3.464 6.008-3.996 2.035-2.135 6.242.236 8.774 1.117 3.165 5.722 3.786 6.07 6.963 2.606 16.098 1.39 32.444 1.873 48.678 0 7.1.1 14.2.893 21.262 31.016-1.167 62.033-2.234 93.05-3.115 3.747-1.39 5.398 2.134 6.59 4.94.645 4.32-3.55 5.535-5.14 8.514 2.942.795 6.914.807 10.19-.1 1.813-4.454 2.322-9.245 2.955-13.924 1.042-3.513 6.54-3.587 5.72-7.484 1.702-3.65.175-5.71-2.754-5.313-2.668-2.247-3.525-6.244-3.55-9.433 1.8-3.525-2.58-6.293-3.028-9.793-.82-4.02-6.628-1.08-8.552-4.543-3.276-2.903-7.744-4.89-8.576-9.63-1.167-3.984 1.887-8.03 2.693-11.964 2.732-4.382-1.662-5.834-5.373-5.586-3.3.484-6.627-1.427-5.97-5.088 1.068-5.052-5.845-5.027-7.98-8.6-3.35-4.22-8.34-7.51-9-13.245-1.364-3.922-2.63-8.514-.768-12.485-2.856-1.664-2.83-7.162-6.666-6.07-25.68.956-51.36 1.9-77.026 2.855z" class="state-svg"/></svg>