<?xml version="1.0" encoding="UTF-8" standalone="no"?>
<!-- Created with Inkscape (http://www.inkscape.org/) -->

<svg
   xmlns:dc="http://purl.org/dc/elements/1.1/"
   xmlns:cc="http://creativecommons.org/ns#"
   xmlns:rdf="http://www.w3.org/1999/02/22-rdf-syntax-ns#"
   xmlns:svg="http://www.w3.org/2000/svg"
   xmlns="http://www.w3.org/2000/svg"
   xmlns:sodipodi="http://sodipodi.sourceforge.net/DTD/sodipodi-0.dtd"
   xmlns:inkscape="http://www.inkscape.org/namespaces/inkscape"
   width="11.498755mm"
   height="18.996321mm"
   viewBox="0 0 40.743619 67.309796"
   id="svg2"
   version="1.1"
   inkscape:version="0.91 r13725"
   sodipodi:docname="mp.svg">
  <defs
     id="defs4" />
  <sodipodi:namedview
     id="base"
     pagecolor="#ffffff"
     bordercolor="#666666"
     borderopacity="1.0"
     inkscape:pageopacity="0.0"
     inkscape:pageshadow="2"
     inkscape:zoom="0.35"
     inkscape:cx="287.11841"
     inkscape:cy="629.19057"
     inkscape:document-units="px"
     inkscape:current-layer="layer1"
     showgrid="false"
     inkscape:window-width="1920"
     inkscape:window-height="1017"
     inkscape:window-x="3832"
     inkscape:window-y="-8"
     inkscape:window-maximized="1" />
  <metadata
     id="metadata7">
    <rdf:RDF>
      <cc:Work
         rdf:about="">
        <dc:format>image/svg+xml</dc:format>
        <dc:type
           rdf:resource="http://purl.org/dc/dcmitype/StillImage" />
        <dc:title></dc:title>
      </cc:Work>
    </rdf:RDF>
  </metadata>
  <g
     inkscape:label="Layer 1"
     inkscape:groupmode="layer"
     id="layer1"
     transform="translate(413.54713,-1094.243)">
    <path
       inkscape:connector-curvature="0"
       d="m -413.54713,1158.944 c 0,0 2.03798,1.4255 2.03798,1.4255 0,0 1.70764,1.1833 1.70764,1.1833 0,0 -3.74562,-2.6088 -3.74562,-2.6088 z m 0.15167,-11.0003 c 0,0 3.74857,-3.9132 3.74857,-3.9132 0,0 -0.33316,3.7051 -0.33316,3.7051 0,0 -3.41541,0.2081 -3.41541,0.2081 z m 8.74079,-11.7365 c 0,0 2.49908,-6.5189 2.49908,-6.5189 0,0 0,0 0,0 0,0 2.49904,6.5189 2.49904,6.5189 0,0 -4.99812,0 -4.99812,0 z m 9.99329,-13.0377 c 0,0 0,-6.5189 0,-6.5189 0,0 3.74562,-1.3043 3.74562,-1.3043 0,0 1.24953,6.5188 1.24953,6.5188 0,0 -4.99515,1.3044 -4.99515,1.3044 z m 16.3927,-16.7056 c 0,0 -3.27855,-6.1089 -3.27855,-6.1089 0,0 1.09185,-3.6678 1.09185,-3.6678 0,0 5.46523,-2.4442 5.46523,-2.4442 0,0 2.18664,3.6678 2.18664,3.6678 0,0 0,6.1121 0,6.1121 0,0 -5.46517,2.441 -5.46517,2.441 z"
       id="state_mp"
       class="state-svg" />
  </g>
</svg>
