<?xml version="1.0" encoding="UTF-8" standalone="no"?>
<!-- Created with Inkscape (http://www.inkscape.org/) -->

<svg
   xmlns:dc="http://purl.org/dc/elements/1.1/"
   xmlns:cc="http://creativecommons.org/ns#"
   xmlns:rdf="http://www.w3.org/1999/02/22-rdf-syntax-ns#"
   xmlns:svg="http://www.w3.org/2000/svg"
   xmlns="http://www.w3.org/2000/svg"
   xmlns:sodipodi="http://sodipodi.sourceforge.net/DTD/sodipodi-0.dtd"
   xmlns:inkscape="http://www.inkscape.org/namespaces/inkscape"
   width="21.220808mm"
   height="36.810822mm"
   viewBox="0 0 75.19184 130.43204"
   id="svg2"
   version="1.1"
   inkscape:version="0.91 r13725"
   sodipodi:docname="ms.svg">
  <defs
     id="defs4" />
  <sodipodi:namedview
     id="base"
     pagecolor="#ffffff"
     bordercolor="#666666"
     borderopacity="1.0"
     inkscape:pageopacity="0.0"
     inkscape:pageshadow="2"
     inkscape:zoom="0.35"
     inkscape:cx="535.55188"
     inkscape:cy="556.36975"
     inkscape:document-units="px"
     inkscape:current-layer="layer1"
     showgrid="false"
     inkscape:window-width="1920"
     inkscape:window-height="1017"
     inkscape:window-x="3832"
     inkscape:window-y="-8"
     inkscape:window-maximized="1" />
  <metadata
     id="metadata7">
    <rdf:RDF>
      <cc:Work
         rdf:about="">
        <dc:format>image/svg+xml</dc:format>
        <dc:type
           rdf:resource="http://purl.org/dc/dcmitype/StillImage" />
        <dc:title></dc:title>
      </cc:Work>
    </rdf:RDF>
  </metadata>
  <g
     inkscape:label="Layer 1"
     inkscape:groupmode="layer"
     id="layer1"
     transform="translate(661.9806,-958.29995)">
    <path
       inkscape:connector-curvature="0"
       style="fill-opacity:1"
       d="m -636.60958,963.00385 c -1.79966,2.1596 -5.00182,3.9097 -5.74651,7.4842 -1.73761,2.7553 1.77484,7.1241 -3.33868,7.5337 -1.8369,2.4451 -5.92028,5.4859 -4.2199,8.899 -1.68796,2.2713 -4.45572,4.9026 -4.31919,8.7005 -2.68088,3.3014 1.92377,6.55315 -0.33511,8.83685 -0.55852,2.2838 2.79258,5.4859 1.67554,8.7253 -2.383,3.3635 -2.02307,8.1295 -0.7571,11.8281 1.98584,2.9788 0.9681,6.876 4.62948,8.6136 -1.17909,3.1401 -1.75002,4.6543 -2.32094,7.8316 -3.16493,6.1561 -7.53376,11.9399 -9.79265,18.4187 0.0124,3.6986 -1.78725,7.6206 -0.17376,11.133 14.14907,-0.4468 28.38502,0.3103 42.4348,-1.8617 3.41316,2.743 -2.71811,7.9309 1.65073,10.1154 3.50003,2.0106 2.82981,6.4291 4.82806,9.4699 2.56917,-2.3085 3.11528,-7.6827 7.22347,-5.0515 3.98409,-0.8315 8.50186,-3.7482 12.27495,-0.7943 4.49295,0.906 7.45929,-0.3351 5.48586,-5.2873 -1.00532,-12.5356 -3.71102,-24.9098 -4.766,-37.4206 0.17376,-27.2928 1.8369,-54.58555 0.79433,-81.87835 -15.07993,1.5638 -30.14745,3.1277 -45.22738,4.6915 z"
       id="state_ms"
       class="state-svg" />
  </g>
</svg>
