<svg xmlns="http://www.w3.org/2000/svg" width="80204.629" height="139127.516" viewBox="0 0 75.19184 130.43204"><path d="M25.37 4.704c-1.8 2.16-5 3.91-5.745 7.484-1.738 2.755 1.774 7.124-3.34 7.534-1.836 2.445-5.92 5.486-4.22 8.9-1.687 2.27-4.455 4.9-4.318 8.7-2.68 3.3 1.924 6.552-.335 8.836-.56 2.284 2.792 5.486 1.675 8.725-2.383 3.364-2.023 8.13-.757 11.83 1.986 2.977.968 6.875 4.63 8.612-1.18 3.14-1.75 4.654-2.32 7.832-3.166 6.156-7.535 11.94-9.794 18.418.012 3.7-1.787 7.62-.174 11.133 14.15-.446 28.385.31 42.435-1.86 3.413 2.742-2.718 7.93 1.65 10.114 3.5 2.01 2.83 6.43 4.83 9.47 2.568-2.308 3.114-7.683 7.222-5.05 3.983-.833 8.5-3.75 12.274-.796 4.493.906 7.46-.335 5.486-5.287-1.005-12.537-3.71-24.91-4.766-37.422.174-27.292 1.837-54.585.794-81.878L25.37 4.692z" class="state-svg"/></svg>