<?xml version="1.0" encoding="UTF-8" standalone="no"?>
<!-- Created with Inkscape (http://www.inkscape.org/) -->

<svg
   xmlns:dc="http://purl.org/dc/elements/1.1/"
   xmlns:cc="http://creativecommons.org/ns#"
   xmlns:rdf="http://www.w3.org/1999/02/22-rdf-syntax-ns#"
   xmlns:svg="http://www.w3.org/2000/svg"
   xmlns="http://www.w3.org/2000/svg"
   xmlns:sodipodi="http://sodipodi.sourceforge.net/DTD/sodipodi-0.dtd"
   xmlns:inkscape="http://www.inkscape.org/namespaces/inkscape"
   width="61.677158mm"
   height="38.848423mm"
   viewBox="0 0 218.54111 137.65189"
   id="svg2"
   version="1.1"
   inkscape:version="0.91 r13725"
   sodipodi:docname="mt.svg">
  <defs
     id="defs4" />
  <sodipodi:namedview
     id="base"
     pagecolor="#ffffff"
     bordercolor="#666666"
     borderopacity="1.0"
     inkscape:pageopacity="0.0"
     inkscape:pageshadow="2"
     inkscape:zoom="0.35"
     inkscape:cx="422.89738"
     inkscape:cy="116.22149"
     inkscape:document-units="px"
     inkscape:current-layer="layer1"
     showgrid="false"
     inkscape:window-width="1920"
     inkscape:window-height="1017"
     inkscape:window-x="3832"
     inkscape:window-y="-8"
     inkscape:window-maximized="1" />
  <metadata
     id="metadata7">
    <rdf:RDF>
      <cc:Work
         rdf:about="">
        <dc:format>image/svg+xml</dc:format>
        <dc:type
           rdf:resource="http://purl.org/dc/dcmitype/StillImage" />
        <dc:title></dc:title>
      </cc:Work>
    </rdf:RDF>
  </metadata>
  <g
     inkscape:label="Layer 1"
     inkscape:groupmode="layer"
     id="layer1"
     transform="translate(549.32596,-510.93183)">
    <path
       inkscape:connector-curvature="0"
       style="fill-opacity:1"
       d="m -549.32596,536.2103 c 1.04256,3.42556 4.03373,6.70219 3.97167,10.21463 -1.86172,3.4628 -1.24115,6.8139 0.6454,10.11535 4.21989,0.48405 5.18799,4.26954 6.52843,7.64546 1.77484,4.14543 3.16492,8.53909 6.66496,11.59231 1.0922,2.74294 6.54084,1.46456 5.38657,5.85822 -2.76775,7.70752 -6.76425,15.17922 -8.76249,23.03568 0.0248,4.14543 4.2199,6.51602 7.11177,2.75534 1.99824,-3.01598 6.98765,-3.77308 5.82098,1.20392 -0.62058,6.57807 2.24647,12.84586 3.21457,19.275 2.35817,2.4823 6.54084,4.26955 7.04971,7.83164 -0.88122,2.37059 -0.48405,10.89727 2.87946,6.37949 2.29612,-2.34576 6.11885,-0.35993 8.50185,1.06739 4.07096,-2.02307 9.01073,-1.50179 12.83346,0.85639 4.57983,0.50887 1.88654,-6.20573 7.38482,-5.06388 3.36351,-0.52128 2.49471,8.30327 3.98408,5.0887 0.69505,-4.04613 1.35285,-8.1171 2.08513,-12.16323 44.14759,5.57274 88.30759,11.12067 132.45518,16.68101 3.59932,-35.29821 7.18624,-70.59643 10.78556,-105.88223 -35.79467,-2.84222 -71.42799,-7.33517 -106.97443,-12.39905 -33.15103,-5.11353 -66.22759,-10.81039 -98.95663,-18.22004 -3.7855,-0.7571 -8.67561,-3.21457 -8.10469,2.71812 -1.50178,7.13659 -3.00357,14.28559 -4.49295,21.42219 z"
       id="state_mt"
       class="state-svg" />
  </g>
</svg>
