<?xml version="1.0" encoding="UTF-8" standalone="no"?>
<!-- Created with Inkscape (http://www.inkscape.org/) -->

<svg
   xmlns:dc="http://purl.org/dc/elements/1.1/"
   xmlns:cc="http://creativecommons.org/ns#"
   xmlns:rdf="http://www.w3.org/1999/02/22-rdf-syntax-ns#"
   xmlns:svg="http://www.w3.org/2000/svg"
   xmlns="http://www.w3.org/2000/svg"
   xmlns:sodipodi="http://sodipodi.sourceforge.net/DTD/sodipodi-0.dtd"
   xmlns:inkscape="http://www.inkscape.org/namespaces/inkscape"
   width="54.036362mm"
   height="23.300575mm"
   viewBox="0 0 191.46743 82.561087"
   id="svg2"
   version="1.1"
   inkscape:version="0.91 r13725"
   sodipodi:docname="nc.svg">
  <defs
     id="defs4" />
  <sodipodi:namedview
     id="base"
     pagecolor="#ffffff"
     bordercolor="#666666"
     borderopacity="1.0"
     inkscape:pageopacity="0.0"
     inkscape:pageshadow="2"
     inkscape:zoom="0.35"
     inkscape:cx="55.484771"
     inkscape:cy="611.08663"
     inkscape:document-units="px"
     inkscape:current-layer="layer1"
     showgrid="false"
     inkscape:window-width="1920"
     inkscape:window-height="1017"
     inkscape:window-x="3832"
     inkscape:window-y="-8"
     inkscape:window-maximized="1" />
  <metadata
     id="metadata7">
    <rdf:RDF>
      <cc:Work
         rdf:about="">
        <dc:format>image/svg+xml</dc:format>
        <dc:type
           rdf:resource="http://purl.org/dc/dcmitype/StillImage" />
        <dc:title></dc:title>
      </cc:Work>
    </rdf:RDF>
  </metadata>
  <g
     inkscape:label="Layer 1"
     inkscape:groupmode="layer"
     id="layer1"
     transform="translate(181.91349,-1060.8878)">
    <path
       inkscape:connector-curvature="0"
       style="fill-opacity:1"
       d="m -12.023557,1062.191 c -22.71298,4.7164 -45.33909,9.9292 -68.0893,14.4594 -15.81222,1.8741 -31.500313,5.0514 -47.386993,6.1312 -4.12061,-1.0177 -1.45214,4.6171 -3.10287,6.8636 -3.2518,1.6631 -4.3316,5.6968 -6.24297,7.9185 -4.02131,-1.688 -6.29261,1.8121 -7.86887,4.9273 -1.35285,-0.7074 -3.67379,0.037 -4.23231,-1.75 -2.50711,2.4327 -5.42381,4.6295 -5.34934,8.4522 -4.5426,1.3653 -7.83164,4.7412 -11.51784,7.3973 -3.27663,1.1666 -7.14901,2.6808 -9.18449,5.399 0.90604,5.039 -3.69862,4.0957 -6.32985,6.5656 -2.45747,5.821 3.40074,3.3015 6.9256,3.1029 7.95575,-1.477 16.53208,-0.6082 23.8052,-4.6295 6.25538,-2.3582 11.67919,-7.3228 18.69167,-7.0373 8.06745,-0.7943 16.32108,-0.7447 24.3513,-0.8564 3.71103,0.6578 4.17025,5.9451 6.9256,6.2182 6.664953,-1.0054 13.491263,-2.0728 20.168633,-2.2217 6.67737,1.688 11.92742,6.7643 18.02145,9.8423 4.45572,3.2766 8.60115,7.0249 12.94516,10.4753 3.90962,-1.0674 7.84405,-1.961 11.9026,-2.1348 1.31562,-5.6472 2.53194,-11.5302 6.68978,-15.8618 5.21282,-5.2997 11.45579,-10.2892 19.02678,-11.5303 3.6117403,2.4202 4.5798303,-3.5993 6.5408403,-5.6224 3.37592,-6.2057 -3.02839,4.8529 -3.05322,-1.5142 -4.8032303,0.8688 -6.7394203,-0.3227 -4.0833703,-4.9646 3.4379803,-5.2749 -3.38833,-3.1153 -2.63123,-7.4717 -1.76243,-4.6667 3.52486,2.7181 6.2802003,1.0053 3.48762,0.149 6.32985,-2.3209 6.93801,-5.7092 0.55852,-3.5994 5.69687,-3.3511 4.07096,-8.0427 -4.98941,-3.016 5.27488,-0.8191 0.49646,-4.8777 -4.36883,-4.2695 -6.50361,-10.3387 -8.97349,-15.837 -1.91136,0.4344 -3.8227303,0.8812 -5.7465103,1.3156 z m 21.2608503,29.44 c 1.9237697,3.2394 -5.75892,5.2873 -0.6454,3.3387 1.7127797,-2.383 0.26064,-6.4788 0.29788,-9.4576 -0.91845,-2.5443 0.45922,5.6721 0.34752,6.1313 z"
       id="state_nc"
       class="state-svg" />
  </g>
</svg>
