<svg xmlns="http://www.w3.org/2000/svg" width="204231.919" height="88065.165" viewBox="0 0 191.46743 82.561087"><path d="M169.89 1.303c-22.713 4.717-45.34 9.93-68.09 14.46-15.812 1.874-31.5 5.05-47.386 6.13-4.12-1.017-1.453 4.618-3.103 6.864-3.25 1.664-4.33 5.697-6.242 7.92-4.022-1.69-6.293 1.81-7.87 4.926-1.352-.707-3.673.037-4.23-1.75-2.508 2.433-5.425 4.63-5.35 8.452-4.543 1.366-7.832 4.742-11.52 7.398-3.275 1.166-7.148 2.68-9.183 5.4.906 5.038-3.7 4.094-6.33 6.564-2.457 5.82 3.4 3.302 6.926 3.103 7.956-1.477 16.533-.608 23.806-4.63 6.255-2.357 11.68-7.322 18.692-7.037 8.067-.794 16.32-.744 24.35-.856 3.712.658 4.17 5.945 6.926 6.218 6.665-1.005 13.492-2.073 20.17-2.22 6.676 1.687 11.927 6.763 18.02 9.84 4.456 3.277 8.602 7.026 12.946 10.476 3.91-1.066 7.844-1.96 11.902-2.134 1.316-5.647 2.532-11.53 6.69-15.86 5.213-5.3 11.456-10.29 19.027-11.532 3.61 2.42 4.58-3.6 6.54-5.622 3.376-6.206-3.03 4.853-3.054-1.514-4.803.868-6.74-.323-4.083-4.965 3.438-5.275-3.388-3.115-2.63-7.472-1.764-4.665 3.524 2.72 6.28 1.007 3.487.15 6.33-2.32 6.937-5.71.56-3.6 5.697-3.35 4.07-8.042-4.988-3.016 5.276-.82.498-4.878-4.37-4.27-6.504-10.34-8.974-15.837-1.91.434-3.823.88-5.746 1.316zm21.26 29.44c1.925 3.24-5.758 5.288-.645 3.34 1.713-2.384.26-6.48.298-9.46-.918-2.543.46 5.673.348 6.133z" class="state-svg"/></svg>