<svg xmlns="http://www.w3.org/2000/svg" width="185993.257" height="92420.791" viewBox="0 0 174.36868 86.644494"><path d="M.025 52.438c13.355 1.192 26.4 3.376 39.754 4.543-.46 8.826-.883 17.663-1.317 26.487 45.29 1.6 90.604 2.284 135.906 3.177-.386-1.452-3.886-5.026-5.003-7.633-2.47-2.617-.447-6.366-3.04-9.11-3.005-3.958-2.06-8.86-2.73-13.39-2.062-3.55-1.8-7.758-2.844-11.494-3.65-3.537-2.904-8.7-4.902-13.02-1.402-3.847-2.705-7.682-3.25-11.753-4.357 1.638-3.588-3.81-6.02-5.324-2.98-2.087-6.914-2.298-9.582-4.88-4.704.088-9.495 1.292-13.814 2.41-3.128-2.732-7.484-3.886-9.818-7.523C96.474 6.12 79.57 4.32 62.69 3.55 43.452 2.246 24.19 1.328 4.965 0 2.892 17.475 1.452 34.963 0 52.438z" class="state-svg"/></svg>