<?xml version="1.0" encoding="UTF-8" standalone="no"?>
<!-- Created with Inkscape (http://www.inkscape.org/) -->

<svg
   xmlns:dc="http://purl.org/dc/elements/1.1/"
   xmlns:cc="http://creativecommons.org/ns#"
   xmlns:rdf="http://www.w3.org/1999/02/22-rdf-syntax-ns#"
   xmlns:svg="http://www.w3.org/2000/svg"
   xmlns="http://www.w3.org/2000/svg"
   xmlns:sodipodi="http://sodipodi.sourceforge.net/DTD/sodipodi-0.dtd"
   xmlns:inkscape="http://www.inkscape.org/namespaces/inkscape"
   width="49.210716mm"
   height="24.453001mm"
   viewBox="0 0 174.36868 86.644494"
   id="svg2"
   version="1.1"
   inkscape:version="0.91 r13725"
   sodipodi:docname="ne.svg">
  <defs
     id="defs4" />
  <sodipodi:namedview
     id="base"
     pagecolor="#ffffff"
     bordercolor="#666666"
     borderopacity="1.0"
     inkscape:pageopacity="0.0"
     inkscape:pageshadow="2"
     inkscape:zoom="0.35"
     inkscape:cx="662.04806"
     inkscape:cy="693.90065"
     inkscape:document-units="px"
     inkscape:current-layer="layer1"
     showgrid="false"
     inkscape:window-width="1920"
     inkscape:window-height="1017"
     inkscape:window-x="3832"
     inkscape:window-y="-8"
     inkscape:window-maximized="1" />
  <metadata
     id="metadata7">
    <rdf:RDF>
      <cc:Work
         rdf:about="">
        <dc:format>image/svg+xml</dc:format>
        <dc:type
           rdf:resource="http://purl.org/dc/dcmitype/StillImage" />
        <dc:title></dc:title>
      </cc:Work>
    </rdf:RDF>
  </metadata>
  <g
     inkscape:label="Layer 1"
     inkscape:groupmode="layer"
     id="layer1"
     transform="translate(788.47666,-1139.6184)">
    <path
       inkscape:connector-curvature="0"
       style="fill-opacity:1"
       d="m -788.45187,1192.0569 c 13.3548,1.1915 26.3992,3.3759 39.7539,4.5426 -0.4592,8.8245 -0.8812,17.6615 -1.3156,26.4861 45.2895,1.601 90.6038,2.2837 135.9056,3.1773 -0.3847,-1.4521 -3.8848,-5.0266 -5.0018,-7.6331 -2.4699,-2.6188 -0.4468,-6.367 -3.0408,-9.11 -3.0036,-3.9592 -2.0603,-8.8618 -2.7305,-13.3919 -2.0603,-3.5497 -1.7997,-7.7572 -2.8423,-11.4931 -3.6489,-3.5372 -2.9042,-8.7004 -4.9025,-13.0196 -1.4025,-3.8476 -2.7057,-7.6827 -3.2518,-11.7537 -4.3564,1.6384 -3.5869,-3.8103 -6.0196,-5.3245 -2.9787,-2.0851 -6.9132,-2.2961 -9.5816,-4.8777 -4.704,0.087 -9.4948,1.2908 -13.814,2.4078 -3.1277,-2.7305 -7.4841,-3.8847 -9.8175,-7.5213 -16.892,1.1915 -33.7964,-0.6082 -50.676,-1.3777 -19.2378,-1.3032 -38.5004,-2.2216 -57.7257,-3.5497 -2.0727,17.4754 -3.5125,34.9631 -4.9646,52.4385 z"
       id="state_ne"
       class="state-svg" />
  </g>
</svg>
