<svg xmlns="http://www.w3.org/2000/svg" width="34930.511" height="77349.453" viewBox="0 0 32.747354 72.515107"><path d="M8.718 1.6C6.98 1.094 3.914.71 4.932 5.326c.273 4.505-.906 9.73 2.768 13.144.41 3.45.1 6.65-2.693 9.047C4.77 31.03-2.415 30.72.85 34.12 2.29 43.24.153 52.773.08 62.057c1.49 2.42 1.216 5.448.943 8.377-1.328 4.704 6.007-.062 8.55.074 4.88-1.602 10.5-2.16 14.944-4.394.956-3.848 5.424-3.413 7.373-6.156 3.214-4.37-3.736-3.39-2.482-8.18-4.754.013-5.3-3.053-5.784-6.975C18.858 29.935 14.54 14.46 9.364 0c-.224.534-.435 1.055-.66 1.59z" class="state-svg"/></svg>