<?xml version="1.0" encoding="UTF-8" standalone="no"?>
<!-- Created with Inkscape (http://www.inkscape.org/) -->

<svg
   xmlns:dc="http://purl.org/dc/elements/1.1/"
   xmlns:cc="http://creativecommons.org/ns#"
   xmlns:rdf="http://www.w3.org/1999/02/22-rdf-syntax-ns#"
   xmlns:svg="http://www.w3.org/2000/svg"
   xmlns="http://www.w3.org/2000/svg"
   xmlns:sodipodi="http://sodipodi.sourceforge.net/DTD/sodipodi-0.dtd"
   xmlns:inkscape="http://www.inkscape.org/namespaces/inkscape"
   width="9.2420311mm"
   height="20.465376mm"
   viewBox="0 0 32.747354 72.515107"
   id="svg2"
   version="1.1"
   inkscape:version="0.91 r13725"
   sodipodi:docname="nh.svg">
  <defs
     id="defs4" />
  <sodipodi:namedview
     id="base"
     pagecolor="#ffffff"
     bordercolor="#666666"
     borderopacity="1.0"
     inkscape:pageopacity="0.0"
     inkscape:pageshadow="2"
     inkscape:zoom="0.35"
     inkscape:cx="-28.34893"
     inkscape:cy="407.4895"
     inkscape:document-units="px"
     inkscape:current-layer="layer1"
     showgrid="false"
     inkscape:window-width="1920"
     inkscape:window-height="1017"
     inkscape:window-x="3832"
     inkscape:window-y="-8"
     inkscape:window-maximized="1" />
  <metadata
     id="metadata7">
    <rdf:RDF>
      <cc:Work
         rdf:about="">
        <dc:format>image/svg+xml</dc:format>
        <dc:type
           rdf:resource="http://purl.org/dc/dcmitype/StillImage" />
        <dc:title></dc:title>
      </cc:Work>
    </rdf:RDF>
  </metadata>
  <g
     inkscape:label="Layer 1"
     inkscape:groupmode="layer"
     id="layer1"
     transform="translate(98.079683,-867.33658)">
    <path
       inkscape:connector-curvature="0"
       d="m -89.361992,868.93808 c -1.73761,-0.5089 -4.80324,-0.8937 -3.7855,3.7234 0.27306,4.5054 -0.90603,9.7306 2.76776,13.1438 0.40958,3.4503 0.0993,6.6525 -2.69329,9.0479 -0.23582,3.5125 -7.422058,3.2022 -4.15784,6.6029 1.43973,9.1224 -0.69504,18.6545 -0.76951,27.9382 1.48938,2.4203 1.21632,5.4487 0.94327,8.3778 -1.32803,4.7039 6.00715,-0.062 8.5515,0.074 4.87771,-1.601 10.5001,-2.1596 14.94341,-4.3936 0.95568,-3.8476 5.42381,-3.4132 7.37241,-6.1561 3.21457,-4.3688 -3.73585,-3.3883 -2.48229,-8.1792 -4.7536,0.012 -5.2997,-3.0532 -5.78375,-6.9752 -4.766,-14.8689 -9.08519,-30.346 -14.26077,-44.8054 -0.22341,0.5337 -0.4344,1.055 -0.65781,1.5887 z"
       id="state_nh"
       class="state-svg" />
  </g>
</svg>
