<svg xmlns="http://www.w3.org/2000/svg" width="30586.136" height="70399.185" viewBox="0 0 28.674502 65.999233"><path d="M3.732 2.805c1.278 3.71-2.26 5.958-2.557 9.27 3.55 2.024.608 6.046-1.142 7.113-.51 4.79 4.977 2.085 5.163 6.38 1.7 2.718 5.86 3.748 7.77 6.13-.186 3.24-4.778 4.345-5.82 7.522-.324 3.81-5.077 3.96-5.19 7.398-1.228 2.953-.917 6.317 2.11 8.03 3.538 3.425 8.515 4.952 13.32 5.436.594 1.924-2.285 8.91 1.364 4.456 1.862-3.004.732-7.385 3.86-9.942 3.103-5.064 6.243-10.972 6.057-16.892-1.676-5.05.992-11.183-2.247-15.91-1.365 1.637-7.658 1.525-5.126-.994 2.966-1.726 4.183-4.493 2.966-7.832.26-2.867 1.96-6.727-2.097-7.683C16.763 3.86 11.216 2.644 6.177 0c-.82.93-1.626 1.862-2.445 2.793z" class="state-svg"/></svg>