<?xml version="1.0" encoding="UTF-8" standalone="no"?>
<!-- Created with Inkscape (http://www.inkscape.org/) -->

<svg
   xmlns:dc="http://purl.org/dc/elements/1.1/"
   xmlns:cc="http://creativecommons.org/ns#"
   xmlns:rdf="http://www.w3.org/1999/02/22-rdf-syntax-ns#"
   xmlns:svg="http://www.w3.org/2000/svg"
   xmlns="http://www.w3.org/2000/svg"
   xmlns:sodipodi="http://sodipodi.sourceforge.net/DTD/sodipodi-0.dtd"
   xmlns:inkscape="http://www.inkscape.org/namespaces/inkscape"
   width="8.0925817mm"
   height="18.626451mm"
   viewBox="0 0 28.674502 65.999233"
   id="svg2"
   version="1.1"
   inkscape:version="0.91 r13725"
   sodipodi:docname="nj.svg">
  <defs
     id="defs4" />
  <sodipodi:namedview
     id="base"
     pagecolor="#ffffff"
     bordercolor="#666666"
     borderopacity="1.0"
     inkscape:pageopacity="0.0"
     inkscape:pageshadow="2"
     inkscape:zoom="0.35"
     inkscape:cx="1414.6092"
     inkscape:cy="202.63012"
     inkscape:document-units="px"
     inkscape:current-layer="layer1"
     showgrid="false"
     inkscape:window-width="1920"
     inkscape:window-height="1017"
     inkscape:window-x="3832"
     inkscape:window-y="-8"
     inkscape:window-maximized="1" />
  <metadata
     id="metadata7">
    <rdf:RDF>
      <cc:Work
         rdf:about="">
        <dc:format>image/svg+xml</dc:format>
        <dc:type
           rdf:resource="http://purl.org/dc/dcmitype/StillImage" />
        <dc:title></dc:title>
      </cc:Work>
    </rdf:RDF>
  </metadata>
  <g
     inkscape:label="Layer 1"
     inkscape:groupmode="layer"
     id="layer1"
     transform="translate(1541.0378,-668.99308)">
    <path
       inkscape:connector-curvature="0"
       d="m -1537.3059,671.79808 c 1.2784,3.711 -2.2588,5.9575 -2.5567,9.2714 3.5497,2.023 0.6081,6.0443 -1.1419,7.1117 -0.5088,4.7909 4.977,2.0852 5.1632,6.3795 1.7004,2.7181 5.8582,3.7483 7.7696,6.1313 -0.1862,3.2394 -4.7784,4.344 -5.821,7.5213 -0.3227,3.8104 -5.0763,3.9593 -5.188,7.3973 -1.2287,2.9539 -0.9184,6.3174 2.11,8.0302 3.5372,3.4256 8.5142,4.9522 13.3175,5.4362 0.5957,1.9238 -2.2837,8.9114 1.3652,4.4557 1.8617,-3.0036 0.7323,-7.3848 3.86,-9.9416 3.1029,-5.0638 6.243,-10.9717 6.0568,-16.892 -1.6756,-5.0514 0.9929,-11.1827 -2.2465,-15.9115 -1.3653,1.6383 -7.6579,1.5266 -5.1259,-0.9929 2.9663,-1.7252 4.1826,-4.4929 2.9663,-7.8316 0.2607,-2.8671 1.961,-6.727 -2.0975,-7.6827 -5.399,-1.4273 -10.9469,-2.6437 -15.986,-5.2873 -0.8191,0.9309 -1.6259,1.8617 -2.4451,2.7926 z"
       id="state_nj"
       class="state-svg" />
  </g>
</svg>
