<?xml version="1.0" encoding="UTF-8" standalone="no"?>
<!-- Created with Inkscape (http://www.inkscape.org/) -->

<svg
   xmlns:dc="http://purl.org/dc/elements/1.1/"
   xmlns:cc="http://creativecommons.org/ns#"
   xmlns:rdf="http://www.w3.org/1999/02/22-rdf-syntax-ns#"
   xmlns:svg="http://www.w3.org/2000/svg"
   xmlns="http://www.w3.org/2000/svg"
   xmlns:sodipodi="http://sodipodi.sourceforge.net/DTD/sodipodi-0.dtd"
   xmlns:inkscape="http://www.inkscape.org/namespaces/inkscape"
   width="42.232533mm"
   height="42.495872mm"
   viewBox="0 0 149.64283 150.57593"
   id="svg2"
   version="1.1"
   inkscape:version="0.91 r13725"
   sodipodi:docname="nm.svg">
  <defs
     id="defs4" />
  <sodipodi:namedview
     id="base"
     pagecolor="#ffffff"
     bordercolor="#666666"
     borderopacity="1.0"
     inkscape:pageopacity="0.0"
     inkscape:pageshadow="2"
     inkscape:zoom="0.35"
     inkscape:cx="717.63576"
     inkscape:cy="-6.8274755"
     inkscape:document-units="px"
     inkscape:current-layer="layer1"
     showgrid="false"
     inkscape:window-width="1920"
     inkscape:window-height="1017"
     inkscape:window-x="3832"
     inkscape:window-y="-8"
     inkscape:window-maximized="1" />
  <metadata
     id="metadata7">
    <rdf:RDF>
      <cc:Work
         rdf:about="">
        <dc:format>image/svg+xml</dc:format>
        <dc:type
           rdf:resource="http://purl.org/dc/dcmitype/StillImage" />
        <dc:title></dc:title>
      </cc:Work>
    </rdf:RDF>
  </metadata>
  <g
     inkscape:label="Layer 1"
     inkscape:groupmode="layer"
     id="layer1"
     transform="translate(844.06442,-374.95884)">
    <path
       inkscape:connector-curvature="0"
       style="fill-opacity:1"
       d="m -844.05202,523.20141 c 5.98233,0.78192 11.97707,1.55144 17.9594,2.33336 0.53369,-4.13302 1.05497,-8.27845 1.58867,-12.41147 12.03912,1.10462 24.07825,2.30853 36.10496,3.45039 -1.11703,-3.8972 -1.7252,-7.42206 3.52486,-5.58516 22.70057,1.58867 45.27704,4.70394 68.02726,5.57275 3.04081,-0.74469 9.50718,2.64364 9.91676,-1.25356 3.79791,-28.45949 4.6543,-57.20446 6.93801,-85.81289 0.67022,-9.66853 1.72519,-19.31224 2.50712,-28.96837 3.98408,0.80675 1.45214,-5.96991 2.56917,-8.51426 2.22165,-5.43623 -3.56209,-4.18267 -7.11177,-4.77842 -40.15111,-4.09578 -80.31462,-8.17916 -120.46572,-12.27494 -7.18624,49.41005 -14.37248,98.83252 -21.57113,148.24257 z"
       id="state_nm"
       class="state-svg" />
  </g>
</svg>
