<?xml version="1.0" encoding="UTF-8" standalone="no"?>
<!-- Created with Inkscape (http://www.inkscape.org/) -->

<svg
   xmlns:dc="http://purl.org/dc/elements/1.1/"
   xmlns:cc="http://creativecommons.org/ns#"
   xmlns:rdf="http://www.w3.org/1999/02/22-rdf-syntax-ns#"
   xmlns:svg="http://www.w3.org/2000/svg"
   xmlns="http://www.w3.org/2000/svg"
   xmlns:sodipodi="http://sodipodi.sourceforge.net/DTD/sodipodi-0.dtd"
   xmlns:inkscape="http://www.inkscape.org/namespaces/inkscape"
   width="43.991558mm"
   height="33.638718mm"
   viewBox="0 0 155.8756 119.1923"
   id="svg2"
   version="1.1"
   inkscape:version="0.91 r13725"
   sodipodi:docname="ny.svg">
  <defs
     id="defs4" />
  <sodipodi:namedview
     id="base"
     pagecolor="#ffffff"
     bordercolor="#666666"
     borderopacity="1.0"
     inkscape:pageopacity="0.0"
     inkscape:pageshadow="2"
     inkscape:zoom="0.35"
     inkscape:cx="738.08"
     inkscape:cy="509.65226"
     inkscape:document-units="px"
     inkscape:current-layer="layer1"
     showgrid="false"
     inkscape:window-width="1920"
     inkscape:window-height="1017"
     inkscape:window-x="3832"
     inkscape:window-y="-8"
     inkscape:window-maximized="1" />
  <metadata
     id="metadata7">
    <rdf:RDF>
      <cc:Work
         rdf:about="">
        <dc:format>image/svg+xml</dc:format>
        <dc:type
           rdf:resource="http://purl.org/dc/dcmitype/StillImage" />
        <dc:title></dc:title>
      </cc:Work>
    </rdf:RDF>
  </metadata>
  <g
     inkscape:label="Layer 1"
     inkscape:groupmode="layer"
     id="layer1"
     transform="translate(864.50861,-922.82215)">
    <path
       inkscape:connector-curvature="0"
       d="m -766.71871,925.20515 c -3.351,1.3901 -6.7642,2.0851 -10.3387,1.7748 -6.2926,0.8937 -12.6225,3.3884 -16.0356,9.0728 -3.5249,4.2572 -6.0692,9.2962 -8.9115,13.9009 -2.0478,2.9291 -7.2234,4.6294 -6.8883,8.4894 -0.211,4.4185 7.1614,0.906 5.4983,5.4362 -3.3387,2.8547 0.9929,5.2501 0.695,8.1792 0.6206,4.3068 -5.2873,2.4699 -6.6525,4.9646 -2.0107,3.3635 -4.1579,8.2164 -8.9611,7.5089 -3.7731,-0.5337 -6.6402,2.5444 -9.9044,3.2642 -3.1028,-0.9308 -5.8334,-2.5443 -9.4203,-1.6259 -6.5905,0.2607 -13.181,2.4575 -18.9026,5.6224 -0.36,2.1968 0.7571,7.7572 3.9344,7.6207 1.9238,3.07805 2.594,6.15605 -0.7819,8.34055 -1.8742,2.1844 -2.2341,5.2748 -5.1632,6.578 -2.3954,1.4149 -3.3263,4.3565 -5.9575,5.6348 0.4096,3.8104 -0.2731,9.048 5.0639,6.3547 27.479,-5.2873 54.9331,-10.7731 82.2011,-17.0533 1.2163,4.7784 7.0373,1.6383 7.993,4.9646 0.7943,3.6365 1.688,9.1844 6.6153,8.539 3.8972,2.3582 8.5639,4.5675 13.2679,5.2377 3.3635,0.5833 8.9114,1.7748 7.993,6.2802 -0.4096,2.445 -2.0107,9.383 2.445,7.36 6.5781,-2.0479 13.603,-3.5249 18.6917,-8.5019 4.0089,-3.0904 8.3901,-5.7589 11.6047,-9.7554 -3.711,-3.0284 -5.7713,0.5709 -8.4522,3.0036 -3.6117,1.9362 -7.4593,4.3564 -11.3689,5.3617 -3.227,-0.7819 -5.9947,-1.0673 -7.6703,2.5692 -1.2784,2.532 -6.032,3.6986 -4.9398,-0.1862 5.2873,-2.3209 -2.6932,-4.9273 -0.4095,-7.7075 1.4769,-3.8848 0.695,-8.5267 0.5212,-12.6721 -1.7748,-9.1596 -4.5798,-18.31935 -3.1525,-27.75205 -0.099,-5.5355 1.9238,-11.1331 -0.6329,-16.3956 -1.5142,-3.1773 -0.5834,-8.477 -5.0267,-9.11 -3.711,-0.8191 0.9309,-5.3493 -1.9486,-7.6951 -2.1099,-3.016 -3.9344,-6.094 -1.9114,-9.6934 0.4717,-7.1614 -4.7536,-13.1189 -4.406,-20.2927 -2.8795,0.8067 -5.7714,1.6011 -8.6508,2.4078 z"
       id="state_ny"
       class="state-svg" />
  </g>
</svg>
