<svg xmlns="http://www.w3.org/2000/svg" width="196903.979" height="102742.016" viewBox="0 0 184.59748 96.320638"><path d="M0 12.35c21.732 1.39 43.49 2.147 65.235 3.065-1.7 16.904-3.587 33.796-3.513 50.8-1.142 4.878 4.32 7.174 7.62 9.507.696-6.9 3.675 1.812 5.276-1.626 1.154-1.86 6.913 2.086 4.207 5.486 1.974.82 5.908.633 8.353 2.26 3.463-1.23 6.404 4.12 8.725 1.563 2.26-2.395 6.938-.385 8.068 2.507 3.03.98 2.123 7.248 5.91 3.786 1.724-2.048 7.756-1.452 8.302 1.5 1.59 1.863 7.062 4.62 9.172 2.384.41-3.413 4.195-7.384 5.697-2.27 4.457.47 8.64 2.48 12.983 3.723 2.83-2.31 3.03-5.81 8.105-4.233 3.14 2.383 4.716-1.75 7.832-1.44 1.055 3.004 6.454 2.992 7.682-.62 3.972-.248 4.543 4.605 8.13 5.4 2.308.495 7.83 4.504 6.652.222-.397-15.228.125-30.52-.868-45.7-1.428-7.483-1.254-15.116-1.775-22.65-1.638-6.565-2.544-13.317-2.568-20.08-24.836.818-49.696-.05-74.544-.274C70.112 4.02 35.508 2.805 1.005 0L0 12.337z" class="state-svg"/></svg>