<?xml version="1.0" encoding="UTF-8" standalone="no"?>
<!-- Created with Inkscape (http://www.inkscape.org/) -->

<svg
   xmlns:dc="http://purl.org/dc/elements/1.1/"
   xmlns:cc="http://creativecommons.org/ns#"
   xmlns:rdf="http://www.w3.org/1999/02/22-rdf-syntax-ns#"
   xmlns:svg="http://www.w3.org/2000/svg"
   xmlns="http://www.w3.org/2000/svg"
   xmlns:sodipodi="http://sodipodi.sourceforge.net/DTD/sodipodi-0.dtd"
   xmlns:inkscape="http://www.inkscape.org/namespaces/inkscape"
   width="52.097511mm"
   height="27.183825mm"
   viewBox="0 0 184.59748 96.320638"
   id="svg2"
   version="1.1"
   inkscape:version="0.91 r13725"
   sodipodi:docname="ok.svg">
  <defs
     id="defs4" />
  <sodipodi:namedview
     id="base"
     pagecolor="#ffffff"
     bordercolor="#666666"
     borderopacity="1.0"
     inkscape:pageopacity="0.0"
     inkscape:pageshadow="2"
     inkscape:zoom="0.35"
     inkscape:cx="92.298737"
     inkscape:cy="48.160317"
     inkscape:document-units="px"
     inkscape:current-layer="layer1"
     showgrid="false"
     inkscape:window-width="1920"
     inkscape:window-height="1017"
     inkscape:window-x="3832"
     inkscape:window-y="-8"
     inkscape:window-maximized="1" />
  <metadata
     id="metadata7">
    <rdf:RDF>
      <cc:Work
         rdf:about="">
        <dc:format>image/svg+xml</dc:format>
        <dc:type
           rdf:resource="http://purl.org/dc/dcmitype/StillImage" />
        <dc:title></dc:title>
      </cc:Work>
    </rdf:RDF>
  </metadata>
  <g
     inkscape:label="Layer 1"
     inkscape:groupmode="layer"
     id="layer1"
     transform="translate(218.72733,-484.20188)">
    <path
       inkscape:connector-curvature="0"
       style="fill-opacity:1"
       d="m -218.72733,496.55129 c 21.73248,1.39008 43.48978,2.14718 65.23467,3.06563 -1.70037,16.90442 -3.58691,33.79643 -3.51244,50.80014 -1.14186,4.8777 4.31919,7.17382 7.62064,9.50718 0.69504,-6.90077 3.67379,1.81207 5.27487,-1.6259 1.15427,-1.86172 6.91319,2.08512 4.20749,5.48587 1.97342,0.81915 5.90786,0.63298 8.35291,2.25888 3.4628,-1.22873 6.40432,4.12061 8.72527,1.56385 2.25888,-2.39541 6.93801,-0.38476 8.06745,2.50712 3.0284,0.9805 2.12236,7.24829 5.90786,3.78549 1.72519,-2.04789 7.75716,-1.45214 8.30327,1.50179 1.588665,1.86172 7.062115,4.61707 9.172065,2.383 0.40958,-3.41315 4.19508,-7.38482 5.69687,-2.2713 4.45571,0.47164 8.63838,2.4823 12.98239,3.72344 2.82982,-2.30853 3.0284,-5.80856 8.10469,-4.23231 3.1401,2.383 4.71636,-1.75001 7.83163,-1.43973 1.05498,3.00358 6.45397,2.99117 7.6827,-0.62057 3.97167,-0.24823 4.5426,4.60465 8.12951,5.39899 2.30854,0.49646 7.83164,4.50536 6.65255,0.2234 -0.39717,-15.22887 0.12411,-30.51979 -0.8688,-45.69902 -1.42732,-7.48411 -1.25356,-15.11716 -1.77484,-22.65092 -1.63832,-6.56567 -2.54435,-13.31751 -2.56918,-20.08176 -24.83534,0.81916 -49.69551,-0.0496 -74.543265,-0.27305 -34.56593,-1.63831 -69.1691,-2.85464 -103.67298,-5.65963 -0.33511,4.1082 -0.67022,8.2288 -1.00533,12.337 z"
       id="state_ok"
       class="state-svg" />
  </g>
</svg>
