<?xml version="1.0" encoding="UTF-8" standalone="no"?>
<!-- Created with Inkscape (http://www.inkscape.org/) -->

<svg
   xmlns:dc="http://purl.org/dc/elements/1.1/"
   xmlns:cc="http://creativecommons.org/ns#"
   xmlns:rdf="http://www.w3.org/1999/02/22-rdf-syntax-ns#"
   xmlns:svg="http://www.w3.org/2000/svg"
   xmlns="http://www.w3.org/2000/svg"
   xmlns:sodipodi="http://sodipodi.sourceforge.net/DTD/sodipodi-0.dtd"
   xmlns:inkscape="http://www.inkscape.org/namespaces/inkscape"
   width="48.198845mm"
   height="39.674702mm"
   viewBox="0 0 170.78331 140.57965"
   id="svg2"
   version="1.1"
   inkscape:version="0.91 r13725"
   sodipodi:docname="oregon.svg">
  <defs
     id="defs4" />
  <sodipodi:namedview
     id="base"
     pagecolor="#ffffff"
     bordercolor="#666666"
     borderopacity="1.0"
     inkscape:pageopacity="0.0"
     inkscape:pageshadow="2"
     inkscape:zoom="0.35"
     inkscape:cx="-481.14458"
     inkscape:cy="-58.146734"
     inkscape:document-units="px"
     inkscape:current-layer="layer1"
     showgrid="false"
     inkscape:window-width="1920"
     inkscape:window-height="1017"
     inkscape:window-x="3832"
     inkscape:window-y="-8"
     inkscape:window-maximized="1" />
  <metadata
     id="metadata7">
    <rdf:RDF>
      <cc:Work
         rdf:about="">
        <dc:format>image/svg+xml</dc:format>
        <dc:type
           rdf:resource="http://purl.org/dc/dcmitype/StillImage" />
        <dc:title></dc:title>
      </cc:Work>
    </rdf:RDF>
  </metadata>
  <g
     inkscape:label="Layer 1"
     inkscape:groupmode="layer"
     id="layer1"
     transform="translate(-354.716,-333.63582)">
    <path
       inkscape:connector-curvature="0"
       style="fill-opacity:1"
       d="m 392.96977,335.95172 c -3.62415,9.44513 -5.49828,19.56048 -10.74833,28.32297 -3.54968,10.58698 -7.39723,21.01261 -12.62246,30.89214 -3.79791,8.20398 -9.92917,15.27852 -14.04978,23.20945 -1.27838,8.06745 -0.79433,16.19696 -0.44681,24.32647 46.20789,10.79798 92.41578,20.71474 138.62367,31.51272 4.28196,-16.32108 8.07987,-31.95953 12.64729,-48.16891 1.48937,-3.07804 3.90961,-7.52135 -1.36527,-6.72701 -3.20215,-2.20924 -0.28546,-5.52311 -0.47163,-8.57633 2.85464,-3.50003 5.4114,-7.22347 9.27137,-9.61888 2.172,-6.30503 6.73942,-11.40614 11.20755,-16.20938 2.0603,-4.31919 -3.05322,-4.86529 -4.20749,-8.03022 -0.31028,-4.70394 -4.41848,-5.28728 -8.21639,-6.19332 -9.46995,-2.73052 -19.08883,-5.21282 -28.80701,-6.87595 -6.08162,0.0372 -12.15083,0.0745 -18.23245,0.1117 -1.17909,-3.52486 -5.79615,2.30853 -8.82455,0.62057 -3.2394,1.01774 -5.48587,-3.26421 -8.15434,-1.58866 -3.23939,-0.0745 -6.4912,0.13652 -8.8742,-2.32095 -3.83514,-1.89895 -7.85646,-2.24647 -11.79089,-3.84755 -2.32095,3.76067 -7.06213,1.5142 -10.58698,1.6259 -2.04789,-2.03548 -7.18624,-3.74826 -7.48411,-5.96992 1.36526,-3.02839 0.96809,-7.36 0.6578,-10.66145 -0.52128,-4.86529 -5.85821,-3.26421 -7.75716,-5.57275 -0.54611,-5.39898 -6.9256,-0.70745 -9.76783,-0.26064 z"
       id="state_or"
       class="state-svg" />
  </g>
</svg>
