<svg xmlns="http://www.w3.org/2000/svg" width="182168.863" height="149951.63" viewBox="0 0 170.78331 140.57965"><path d="M38.254 2.316c-3.624 9.445-5.5 19.56-10.75 28.323-3.548 10.586-7.396 21.01-12.62 30.89-3.8 8.205-9.93 15.28-14.05 23.21-1.28 8.068-.795 16.197-.448 24.327 46.208 10.798 92.416 20.715 138.624 31.513 4.282-16.32 8.08-31.96 12.647-48.17 1.49-3.077 3.91-7.52-1.365-6.726-3.202-2.21-.285-5.523-.472-8.577 2.855-3.5 5.412-7.223 9.272-9.618 2.172-6.307 6.74-11.408 11.207-16.21 2.06-4.32-3.054-4.866-4.208-8.03-.31-4.705-4.42-5.288-8.217-6.194-9.47-2.73-19.088-5.213-28.807-6.876l-18.232.11c-1.18-3.524-5.796 2.31-8.825.622-3.238 1.018-5.484-3.264-8.153-1.59-3.24-.073-6.49.138-8.874-2.32-3.835-1.9-7.857-2.246-11.79-3.847-2.322 3.76-7.063 1.514-10.588 1.626-2.048-2.035-7.186-3.748-7.484-5.97 1.366-3.028.97-7.36.66-10.66-.523-4.866-5.86-3.265-7.758-5.573-.547-5.4-6.926-.708-9.768-.26z" class="state-svg"/></svg>