<?xml version="1.0" encoding="UTF-8" standalone="no"?>
<!-- Created with Inkscape (http://www.inkscape.org/) -->

<svg
   xmlns:dc="http://purl.org/dc/elements/1.1/"
   xmlns:cc="http://creativecommons.org/ns#"
   xmlns:rdf="http://www.w3.org/1999/02/22-rdf-syntax-ns#"
   xmlns:svg="http://www.w3.org/2000/svg"
   xmlns="http://www.w3.org/2000/svg"
   xmlns:sodipodi="http://sodipodi.sourceforge.net/DTD/sodipodi-0.dtd"
   xmlns:inkscape="http://www.inkscape.org/namespaces/inkscape"
   width="34.339943mm"
   height="22.144846mm"
   viewBox="0 0 121.67696 78.465984"
   id="svg2"
   version="1.1"
   inkscape:version="0.91 r13725"
   sodipodi:docname="pa.svg">
  <defs
     id="defs4" />
  <sodipodi:namedview
     id="base"
     pagecolor="#ffffff"
     bordercolor="#666666"
     borderopacity="1.0"
     inkscape:pageopacity="0.0"
     inkscape:pageshadow="2"
     inkscape:zoom="0.35"
     inkscape:cx="34.557627"
     inkscape:cy="635.34479"
     inkscape:document-units="px"
     inkscape:current-layer="layer1"
     showgrid="false"
     inkscape:window-width="1920"
     inkscape:window-height="1017"
     inkscape:window-x="3832"
     inkscape:window-y="-8"
     inkscape:window-maximized="1" />
  <metadata
     id="metadata7">
    <rdf:RDF>
      <cc:Work
         rdf:about="">
        <dc:format>image/svg+xml</dc:format>
        <dc:type
           rdf:resource="http://purl.org/dc/dcmitype/StillImage" />
        <dc:title></dc:title>
      </cc:Work>
    </rdf:RDF>
  </metadata>
  <g
     inkscape:label="Layer 1"
     inkscape:groupmode="layer"
     id="layer1"
     transform="translate(160.98627,-1089.241)">
    <path
       inkscape:connector-curvature="0"
       d="m -82.83127,1094.169 c -21.72007,4.1951 -43.27878,9.2093 -65.12296,12.759 -0.7571,-2.4823 0.59575,-10.4504 -2.99116,-5.3493 -2.7057,3.3883 -6.80149,4.6419 -10.04088,7.4096 1.88654,12.1012 3.26422,24.2893 6.75184,36.0553 1.4149,7.5586 2.8174,15.1048 4.23231,22.6634 10.98414,-1.7625 22.07999,-2.7926 32.90279,-5.4735 20.34239,-4.2819 40.99507,-8.0178 61.22576,-12.2501 3.07805,-3.8103 9.96641,-2.0975 11.13309,-7.6827 0.79433,-2.9291 6.03197,-4.9522 5.37417,-7.3228 -2.85464,-2.3457 -7.37242,-3.4379 -7.93093,-7.6082 -3.8972,1.3529 -5.48587,-4.8901 -3.87238,-6.6029 4.79083,-1.3653 -0.60816,-4.5674 0.68263,-7.3972 3.12769,-2.3334 1.39009,-6.3919 3.48762,-8.7749 4.80324,-3.3511 -3.69861,-1.3653 -4.61706,-4.9522 -1.67555,-2.7057 -0.34752,-8.9859 -5.16317,-7.3476 -2.90429,-1.4025 -4.80324,-4.6543 -8.79973,-2.1099 -5.75892,1.328 -11.51785,2.6684 -17.27676,3.9964 z"
       id="state_pa"
       class="state-svg" />
  </g>
</svg>
