<svg xmlns="http://www.w3.org/2000/svg" width="129788.761" height="83697.056" viewBox="0 0 121.67696 78.465984"><path d="M78.155 4.928c-21.72 4.195-43.28 9.21-65.123 12.76-.757-2.483.596-10.45-2.99-5.35C7.334 15.726 3.238 16.98 0 19.748c1.887 12.1 3.264 24.29 6.752 36.055 1.415 7.558 2.817 15.104 4.232 22.663 10.984-1.762 22.08-2.793 32.903-5.473 20.342-4.282 40.995-8.018 61.226-12.25 3.078-3.81 9.966-2.098 11.133-7.683.794-2.93 6.032-4.952 5.374-7.323-2.855-2.346-7.372-3.438-7.93-7.608-3.898 1.352-5.487-4.89-3.873-6.604 4.79-1.365-.61-4.568.682-7.397 3.127-2.335 1.39-6.393 3.487-8.776 4.803-3.35-3.7-1.366-4.617-4.952-1.676-2.706-.348-8.986-5.163-7.348-2.905-1.403-4.804-4.654-8.8-2.11C89.647 2.272 83.89 3.612 78.13 4.94z" class="state-svg"/></svg>