<svg xmlns="http://www.w3.org/2000/svg" width="88523.924" height="25557.231" viewBox="0 0 82.99118 23.959904"><path d="M5.678 3.48L6.842.443l2.326.607 2.326 1.822 9.888 1.214 9.89-.607h4.07l3.49 1.213 2.327-1.82h2.906l6.98.606 6.98 1.82 2.326 2.43h4.07l.582 3.644-.58 2.428-4.653.607-2.908 1.213-1.165 3.035-1.744 3.037-3.49 1.82H37.67l-2.907-1.213h-5.815l-2.91-1.214-4.653 1.214h-5.816l-2.907-2.428-3.492 1.214-4.653.607-.582-3.037 1.163-1.82L6.26 13.8l-1.164-3.644L.444 6.514 2.19 5.3zM69.09 19.88l-2.522.878 5.046 1.756 6.728-1.756 1.682-2.634-4.205.878zm11.775-6.145l-2.103-1.317 2.944-2.195.84 2.195z" class="jqvmap-region" display="block" fill="#0571b0" stroke="#fff" stroke-width=".889" stroke-linecap="round" stroke-linejoin="round" stroke-opacity=".25"/></svg>