<svg xmlns="http://www.w3.org/2000/svg" width="114640.373" height="87064.105" viewBox="0 0 107.47535 81.622593"><path d="M30.814.49c-5.287.495-10.724.533-15.192 3.81C11.652 6.47 7.58 8.257 3.36 9.87c2.743 4.108-5.312 3.4-2.904 7.993 2.817 2.78 6.453 5.126 10.55 4.07 3.14 3.91 4.753 8.614 8.104 12.263 1.13 3.426 6.367 2.557 8.502 5.536 2.705 1.713 3.674 5.275 6.975 6.218 3.71 2.42 4.17 7.92 9.01 8.986 4.48.77 4.68 5.92 6.628 9.16.472 4.157 2.508 6.007 5.946 7.397 4.17 2.22 2.185 8.973 7.038 10.128 4.505-1.713 7.2-5.747 10.4-9.11-2.916-4.878.36-4.12 3.737-5.51 2.42-2.98 6.23-4.097 7.757-7.796 2.693-2.482 4.79-5.61 6.702-8.563 3.488-.21 4.245-4.444 6.106-6.243-.347-5.125 1.614-9.792 3.873-14.235 1.278-2.62 8.725-5.586 4.306-7.87-7.41-6.64-15.862-11.79-24.464-16.717-5.523-3.327-12.088-.087-18.083-.074-3.19-.286-8.23 3.078-9.085-1.59-2.06-5.584-8.6-3.5-13.194-3.673L30.826.503z" class="state-svg"/></svg>