<?xml version="1.0" encoding="UTF-8" standalone="no"?>
<!-- Created with Inkscape (http://www.inkscape.org/) -->

<svg
   xmlns:dc="http://purl.org/dc/elements/1.1/"
   xmlns:cc="http://creativecommons.org/ns#"
   xmlns:rdf="http://www.w3.org/1999/02/22-rdf-syntax-ns#"
   xmlns:svg="http://www.w3.org/2000/svg"
   xmlns="http://www.w3.org/2000/svg"
   xmlns:sodipodi="http://sodipodi.sourceforge.net/DTD/sodipodi-0.dtd"
   xmlns:inkscape="http://www.inkscape.org/namespaces/inkscape"
   width="30.331932mm"
   height="23.035711mm"
   viewBox="0 0 107.47535 81.622593"
   id="svg2"
   version="1.1"
   inkscape:version="0.91 r13725"
   sodipodi:docname="sc.svg">
  <defs
     id="defs4" />
  <sodipodi:namedview
     id="base"
     pagecolor="#ffffff"
     bordercolor="#666666"
     borderopacity="1.0"
     inkscape:pageopacity="0.0"
     inkscape:pageshadow="2"
     inkscape:zoom="0.35"
     inkscape:cx="503.50816"
     inkscape:cy="740.46934"
     inkscape:document-units="px"
     inkscape:current-layer="layer1"
     showgrid="false"
     inkscape:window-width="1920"
     inkscape:window-height="1017"
     inkscape:window-x="3832"
     inkscape:window-y="-8"
     inkscape:window-maximized="1" />
  <metadata
     id="metadata7">
    <rdf:RDF>
      <cc:Work
         rdf:about="">
        <dc:format>image/svg+xml</dc:format>
        <dc:type
           rdf:resource="http://purl.org/dc/dcmitype/StillImage" />
        <dc:title></dc:title>
      </cc:Work>
    </rdf:RDF>
  </metadata>
  <g
     inkscape:label="Layer 1"
     inkscape:groupmode="layer"
     id="layer1"
     transform="translate(629.93688,-1191.209)">
    <path
       inkscape:connector-curvature="0"
       style="fill-opacity:1"
       d="m -599.12292,1191.6979 c -5.28729,0.4964 -10.72351,0.5337 -15.19164,3.8103 -3.97167,2.172 -8.04263,3.9592 -12.26253,5.5727 2.74294,4.1082 -5.31211,3.4008 -2.90428,7.993 2.8174,2.7802 6.45396,5.126 10.54975,4.071 3.1401,3.9096 4.75359,8.6135 8.10468,12.2625 1.12945,3.4256 6.36709,2.5568 8.50186,5.5355 2.7057,1.7128 3.67379,5.2749 6.97524,6.2182 3.71103,2.4202 4.17026,7.9185 9.01073,8.9859 4.48054,0.7695 4.67912,5.9202 6.62772,9.1596 0.47164,4.1579 2.50712,6.0072 5.94509,7.3973 4.17026,2.2216 2.18442,8.9735 7.03731,10.1277 4.50536,-1.7128 7.19865,-5.7465 10.4008,-9.11 -2.91669,-4.8777 0.35994,-4.1206 3.73586,-5.5107 2.42023,-2.9787 6.23055,-4.0958 7.75716,-7.7944 2.69329,-2.4823 4.79083,-5.61 6.7022,-8.5639 3.48762,-0.211 4.24472,-4.4433 6.10644,-6.243 -0.34752,-5.1259 1.61349,-9.7926 3.87237,-14.2359 1.27839,-2.6188 8.72527,-5.5852 4.30678,-7.8689 -7.40964,-6.6401 -15.86185,-11.7909 -24.463,-16.7182 -5.5231,-3.3263 -12.08877,-0.087 -18.08351,-0.074 -3.18974,-0.2855 -8.2288,3.078 -9.08519,-1.5887 -2.0603,-5.5851 -8.60115,-3.5 -13.19339,-3.6738 -3.47521,0.087 -6.96283,0.1738 -10.43804,0.2607 z"
       id="state_sc"
       class="state-svg" />
  </g>
</svg>
