<?xml version="1.0" encoding="UTF-8" standalone="no"?>
<!-- Created with Inkscape (http://www.inkscape.org/) -->

<svg
   xmlns:dc="http://purl.org/dc/elements/1.1/"
   xmlns:cc="http://creativecommons.org/ns#"
   xmlns:rdf="http://www.w3.org/1999/02/22-rdf-syntax-ns#"
   xmlns:svg="http://www.w3.org/2000/svg"
   xmlns="http://www.w3.org/2000/svg"
   xmlns:sodipodi="http://sodipodi.sourceforge.net/DTD/sodipodi-0.dtd"
   xmlns:inkscape="http://www.inkscape.org/namespaces/inkscape"
   width="41.978207mm"
   height="27.564339mm"
   viewBox="0 0 148.74168 97.668919"
   id="svg2"
   version="1.1"
   inkscape:version="0.91 r13725"
   sodipodi:docname="sd.svg">
  <defs
     id="defs4" />
  <sodipodi:namedview
     id="base"
     pagecolor="#ffffff"
     bordercolor="#666666"
     borderopacity="1.0"
     inkscape:pageopacity="0.0"
     inkscape:pageshadow="2"
     inkscape:zoom="0.35"
     inkscape:cx="1209.1494"
     inkscape:cy="564.86412"
     inkscape:document-units="px"
     inkscape:current-layer="layer1"
     showgrid="false"
     inkscape:window-width="1920"
     inkscape:window-height="1017"
     inkscape:window-x="3832"
     inkscape:window-y="-8"
     inkscape:window-maximized="1" />
  <metadata
     id="metadata7">
    <rdf:RDF>
      <cc:Work
         rdf:about="">
        <dc:format>image/svg+xml</dc:format>
        <dc:type
           rdf:resource="http://purl.org/dc/dcmitype/StillImage" />
        <dc:title></dc:title>
      </cc:Work>
    </rdf:RDF>
  </metadata>
  <g
     inkscape:label="Layer 1"
     inkscape:groupmode="layer"
     id="layer1"
     transform="translate(1335.5781,-999.55744)">
    <path
       inkscape:connector-curvature="0"
       style="fill-opacity:1"
       d="m -1335.5781,1077.4022 c 31.8726,1.961 63.7577,3.9096 95.6427,5.2873 4.4433,-0.012 9.11,-0.633 13.4168,-0.2855 2.2341,3.5993 6.5036,4.7784 9.5444,7.4469 4.4061,-1.7997 9.3335,-2.3458 13.9629,-2.3706 3.0409,3.3138 9.0108,2.8422 11.3565,6.6153 1.6383,5.9078 4.0586,2.3085 0.2234,-1.4273 -1.8989,-2.6933 1.8121,-5.7093 1.9362,-8.6756 1.4894,-3.5621 1.7128,-6.5533 -1.961,-8.3778 -0.6206,-2.5319 -0.906,-8.2536 2.9912,-7.2483 3.2518,-0.3475 0.484,-6.5532 1.3156,-9.3086 -0.3972,-12.0391 0.2358,-24.1651 -0.7943,-36.1546 -0.2979,-4.4433 -7.7696,-5.2004 -6.7271,-10.4256 1.3529,-1.5142 7.2111,-5.4362 3.4132,-6.7022 -33.7964,-1.1046 -67.6425,-1.2536 -101.3644,-3.9096 -12.1509,-0.7695 -24.2893,-1.539 -36.4401,-2.30856 -2.172,25.95236 -4.344,51.89236 -6.516,77.84476 z"
       id="state_sd"
       class="state-svg" />
  </g>
</svg>
