<svg xmlns="http://www.w3.org/2000/svg" width="158657.79" height="104180.179" viewBox="0 0 148.74168 97.668919"><path d="M0 77.845c31.873 1.96 63.758 3.91 95.643 5.287 4.443-.012 9.11-.633 13.417-.285 2.234 3.6 6.503 4.778 9.544 7.446 4.406-1.8 9.333-2.345 13.963-2.37 3.04 3.314 9.01 2.842 11.356 6.615 1.64 5.908 4.06 2.31.224-1.427-1.9-2.692 1.812-5.708 1.936-8.675 1.49-3.562 1.713-6.553-1.96-8.378-.622-2.53-.907-8.253 2.99-7.248 3.252-.348.484-6.554 1.316-9.31-.4-12.04.234-24.165-.796-36.154-.297-4.443-7.77-5.2-6.727-10.426 1.353-1.514 7.21-5.436 3.413-6.702-33.796-1.104-67.642-1.253-101.364-3.91L6.516 0 0 77.845z" class="state-svg"/></svg>