<svg xmlns="http://www.w3.org/2000/svg" width="193914.588" height="66395.289" viewBox="0 0 181.79493 62.24558"><path d="M176.88 2.397c-11.008-.137-22.042 1.86-32.977 3.388-12.71 3.55-26.05 3.3-39.07 4.99-20.28 1.8-40.524 4.083-60.768 6.143-5.672-2.122-.533 7.124-6.28 5.138-8.65.074-17.214 1.527-25.865.882-1.18 5.287-2.703 12.32-4.468 15.837-1.766 3.517-2.98 7.07-3.54 9.832-.564 2.763-6.84 3.775-2.233 7.567 4.607 3.792 1.655 5.665 1.49 6.058-.166.394 84.187-8.104 126.274-12.15-.286-3.153.894-6.59 4.38-7.063 3.86-.497 1.23-6.715 6.058-7.212 3.438-2.507 8.055-2.718 10.7-6.43 2.183-2.804 7.83-2.034 7.173-6.676 1.476-2.197 3.847-4.766 6.242-6.02 1.29-.484.348 2.21 2.135 1.477 2.954.694 2.73-5.412 6.48-4.792 4.095 1.577 3.325-3.624 6.155-5.188 2.545-1.166 4.73-8.29 1.142-8.18-1.006.796-2.024 1.578-3.03 2.372v.025z" class="state-svg"/></svg>