<?xml version="1.0" encoding="UTF-8" standalone="no"?>
<!-- Created with Inkscape (http://www.inkscape.org/) -->

<svg
   xmlns:dc="http://purl.org/dc/elements/1.1/"
   xmlns:cc="http://creativecommons.org/ns#"
   xmlns:rdf="http://www.w3.org/1999/02/22-rdf-syntax-ns#"
   xmlns:svg="http://www.w3.org/2000/svg"
   xmlns="http://www.w3.org/2000/svg"
   xmlns:sodipodi="http://sodipodi.sourceforge.net/DTD/sodipodi-0.dtd"
   xmlns:inkscape="http://www.inkscape.org/namespaces/inkscape"
   width="51.306568mm"
   height="17.567087mm"
   viewBox="0 0 181.79493 62.24558"
   id="svg2"
   version="1.1"
   inkscape:version="0.91 r13725"
   sodipodi:docname="tn.svg">
  <defs
     id="defs4" />
  <sodipodi:namedview
     id="base"
     pagecolor="#ffffff"
     bordercolor="#666666"
     borderopacity="1.0"
     inkscape:pageopacity="0.0"
     inkscape:pageshadow="2"
     inkscape:zoom="0.35"
     inkscape:cx="588.32249"
     inkscape:cy="755.52041"
     inkscape:document-units="px"
     inkscape:current-layer="layer1"
     showgrid="false"
     inkscape:window-width="1920"
     inkscape:window-height="1017"
     inkscape:window-x="3832"
     inkscape:window-y="-8"
     inkscape:window-maximized="1" />
  <metadata
     id="metadata7">
    <rdf:RDF>
      <cc:Work
         rdf:about="">
        <dc:format>image/svg+xml</dc:format>
        <dc:type
           rdf:resource="http://purl.org/dc/dcmitype/StillImage" />
        <dc:title></dc:title>
      </cc:Work>
    </rdf:RDF>
  </metadata>
  <g
     inkscape:label="Layer 1"
     inkscape:groupmode="layer"
     id="layer1"
     transform="translate(714.75124,-1225.6371)">
    <path
       inkscape:connector-curvature="0"
       d="m -537.87063,1228.0339 c -11.00897,-0.1366 -22.04279,1.8617 -32.97729,3.3883 -12.70933,3.5497 -26.05166,3.3014 -39.07128,4.9894 -20.28037,1.7997 -40.52347,4.0834 -60.76657,6.1437 -5.67205,-2.1224 -0.53368,7.1242 -6.2802,5.1383 -8.65076,0.074 -17.21471,1.5266 -25.86547,0.8812 -1.1791,5.2873 -2.70236,12.3201 -4.46818,15.8371 -1.76581,3.5169 -2.97886,7.0695 -3.54103,9.8325 -0.56216,2.763 -6.83956,3.7752 -2.23161,7.5672 4.60794,3.792 1.65642,5.6648 1.49067,6.0579 -0.16574,0.3932 84.18702,-8.1047 126.27427,-12.1508 -0.28544,-3.1525 0.89366,-6.5905 4.38129,-7.0621 3.85995,-0.4965 1.22872,-6.7146 6.05679,-7.2111 3.438,-2.5071 8.05503,-2.7181 10.69869,-6.4291 2.18443,-2.805 7.83163,-2.0355 7.17386,-6.6774 1.47689,-2.1968 3.84754,-4.766 6.24294,-6.0195 1.29077,-0.4841 0.34756,2.2092 2.13481,1.4769 2.95386,0.6951 2.73046,-5.4114 6.47875,-4.7908 4.09577,1.5762 3.32626,-3.6242 6.15611,-5.188 2.54434,-1.1667 4.72877,-8.2909 1.14183,-8.1792 -1.00533,0.7943 -2.02307,1.5763 -3.0284,2.3706 l 0,0.025 z"
       id="state_tn"
       class="state-svg" />
  </g>
</svg>
