<?xml version="1.0" encoding="UTF-8" standalone="no"?>
<!-- Created with Inkscape (http://www.inkscape.org/) -->

<svg
   xmlns:dc="http://purl.org/dc/elements/1.1/"
   xmlns:cc="http://creativecommons.org/ns#"
   xmlns:rdf="http://www.w3.org/1999/02/22-rdf-syntax-ns#"
   xmlns:svg="http://www.w3.org/2000/svg"
   xmlns="http://www.w3.org/2000/svg"
   xmlns:sodipodi="http://sodipodi.sourceforge.net/DTD/sodipodi-0.dtd"
   xmlns:inkscape="http://www.inkscape.org/namespaces/inkscape"
   width="84.797974mm"
   height="81.817467mm"
   viewBox="0 0 300.46526 289.90441"
   id="svg2"
   version="1.1"
   inkscape:version="0.91 r13725"
   sodipodi:docname="tx.svg">
  <defs
     id="defs4" />
  <sodipodi:namedview
     id="base"
     pagecolor="#ffffff"
     bordercolor="#666666"
     borderopacity="1.0"
     inkscape:pageopacity="0.0"
     inkscape:pageshadow="2"
     inkscape:zoom="0.35"
     inkscape:cx="150.23264"
     inkscape:cy="144.95221"
     inkscape:document-units="px"
     inkscape:current-layer="layer1"
     showgrid="false"
     inkscape:window-width="1920"
     inkscape:window-height="1017"
     inkscape:window-x="3832"
     inkscape:window-y="-8"
     inkscape:window-maximized="1" />
  <metadata
     id="metadata7">
    <rdf:RDF>
      <cc:Work
         rdf:about="">
        <dc:format>image/svg+xml</dc:format>
        <dc:type
           rdf:resource="http://purl.org/dc/dcmitype/StillImage" />
        <dc:title></dc:title>
      </cc:Work>
    </rdf:RDF>
  </metadata>
  <g
     inkscape:label="Layer 1"
     inkscape:groupmode="layer"
     id="layer1"
     transform="translate(276.66123,-387.41)">
    <path
       inkscape:connector-curvature="0"
       style="fill-opacity:1"
       d="m -187.9596,388.4395 c 2.90428,-0.1366 -1.06738,-2.2465 0,0 z m 0.89363,22.7254 c -2.03548,25.8655 -3.12769,51.8178 -5.80857,77.6337 -0.63298,5.3742 -1.22873,10.7483 -1.87413,16.1101 -22.14206,-1.0798 -44.2717,-2.3954 -66.30206,-4.8281 -5.16317,-0.5089 -10.32634,-0.9433 -15.48951,-1.3777 -0.83157,4.6419 2.81741,4.5675 5.01423,7.5959 2.805,2.2713 1.4025,7.4841 5.77134,8.0674 4.36883,0.5958 3.59932,5.7093 6.76425,7.8689 4.19507,3.9096 6.8263,9.8175 12.74657,11.2448 2.37059,1.5762 4.96459,3.9965 5.6224,6.7766 0.85639,4.915 5.62239,8.7129 4.30678,14.0622 -1.09221,6.3919 2.75534,11.9523 7.36,15.986 2.7057,3.6614 6.37949,5.9079 10.71109,7.1738 2.33336,2.4203 3.73585,4.8157 7.09936,6.0568 3.21457,0.2234 6.67737,5.3866 9.12243,1.4646 3.21457,-3.8972 6.80148,-7.9558 7.50894,-13.0941 1.56384,-3.5001 4.4433,-5.3618 8.06745,-6.2802 3.37592,-1.9735 6.6029,-2.6437 9.27137,0.7695 6.09403,0.7074 12.65969,0.6578 18.35656,2.7553 3.51244,1.7749 3.17733,5.6224 6.41673,7.8565 2.14718,2.5443 5.99473,4.1826 7.21106,7.2235 1.70037,2.5691 3.30145,5.2872 3.33868,8.7252 2.01066,5.3866 5.17558,10.5622 6.59049,16.0605 -0.29787,3.4379 5.77133,3.0904 6.14368,6.8387 2.78017,5.0639 5.42381,11.3813 11.43096,13.0196 4.07096,2.4823 0.0372,6.2554 1.12944,9.3086 4.07096,1.0798 -0.0124,5.8086 1.16668,8.2785 3.1401,1.6879 5.42381,3.9716 5.23764,7.9929 0.48405,4.1455 2.64364,8.4771 7.06212,9.3583 3.735862,2.3954 8.303272,2.6436 12.250122,4.2199 2.82982,2.2216 6.39191,5.0763 10.12776,3.5124 4.29437,0.571 8.40256,1.6011 11.62954,4.6543 1.77484,3.1525 8.07987,-1.1294 5.34935,-3.5869 -2.53194,-4.2075 -1.6135,-9.6685 -3.51245,-14.2235 -0.78192,-3.8103 -2.96634,-7.3848 -1.22873,-11.2945 1.45214,-6.0816 3.56209,-12.1136 5.01423,-18.2572 -4.18267,-1.2536 -2.56918,-6.7891 1.50179,-5.8458 4.95217,0.5213 4.53018,-7.9806 9.69335,-7.509 6.51602,-1.9362 11.2572,-7.4468 17.57464,-9.9912 8.57632,-3.4876 16.90442,-8.0178 23.23426,-14.9558 3.2021597,-3.6986 8.7997297,-4.9025 10.78556969,-9.6189 6.20573001,-2.7553 12.16324031,-6.1189 18.89025031,-7.4469 -1.20391,-3.2766 0.6454,-6.032 1.63832,-8.9611 0.48404,-3.711 0.23581,-7.5337 1.46455,-11.0958 -3.90961,-2.8174 0.47163,-6.094 1.71278,-9.1969 -0.24823,-3.4752 1.76243,-7.7572 0.1117,-10.7483 0.37235,-3.6366 -1.8493,-6.3795 -4.15784,-9.048 -3.05322,-3.2766 -1.37767,-8.5763 -4.80323,-11.8157 -3.14011,-5.6721 -1.97343,-12.6473 -2.79258,-18.8903 0.0248,-6.2057 0.23581,-12.4114 -0.62058,-18.5799 -3.2642103,-2.8671 -6.8511303,2.8918 -9.3334203,-1.7004 -3.84756,-2.5692 -9.50719,-2.6064 -12.0763597,-7.0497 -2.86705,-3.0781 -4.74118,3.5248 -8.91143,1.1915 -2.37059,-3.3883 -4.45572,0.037 -7.42206,0.2234 -2.8174,-1.4273 -7.53376,-1.8369 -7.55858,2.1844 -3.42557,2.9415 -7.38483,-1.1543 -11.09585,-1.5887 -3.72344,1.7128 -6.4912,-4.7536 -7.81923,-2.3209 -0.18617,3.3014 -3.12769,6.3298 -6.36708,4.1454 -4.0089,-0.1861 -6.09403,-3.0904 -8.15433,-4.828 -3.66139,-2.1596 -5.33694,2.8794 -8.61356,1.0922 -1.8369,-1.7252 -2.32095,-4.4682 -4.8653,-7.0125 -3.79791,-3.5125 -6.24297,3.9344 -8.84937,0.2855 -2.54435,-2.6189 -6.91319,-1.0302 -9.854712,-3.3387 -4.41848,0.7322 -6.87595,-0.2979 -5.12593,-5.1011 -2.34577,-2.2962 -2.82982,1.5017 -5.92027,-0.1738 -0.73228,-0.5089 -4.28196,2.2092 -6.20574,-1.3777 -2.35818,-2.3582 -6.36708,-3.9965 -5.18799,-8.0054 0.0372,-13.1313 0.31029,-26.2502 2.0603,-39.2823 0.37235,-3.711 0.74469,-7.422 1.10462,-11.1455 -21.90624,-0.7819 -43.81248,-1.5762 -65.7063,-2.7553 -0.6454,7.5338 -1.2908,15.0799 -1.93619,22.6137 z m 131.983542,210.1882 c -6.45396,8.899 3.63656,-4.0586 0,0 z"
       id="state_tx"
       class="state-svg" />
  </g>
</svg>
