<svg xmlns="http://www.w3.org/2000/svg" width="320496.28" height="309231.371" viewBox="0 0 300.46526 289.90441"><path d="M88.702 1.03c2.904-.137-1.068-2.247 0 0zm.893 22.725c-2.035 25.865-3.127 51.818-5.808 77.634-.633 5.373-1.23 10.747-1.874 16.11-22.142-1.08-44.272-2.397-66.302-4.83-5.163-.508-10.326-.943-15.49-1.377-.83 4.642 2.818 4.567 5.015 7.596 2.805 2.27 1.403 7.483 5.772 8.066 4.368.596 3.6 5.71 6.764 7.87 4.196 3.91 6.827 9.817 12.747 11.244 2.37 1.576 4.965 3.996 5.623 6.776.856 4.915 5.622 8.713 4.307 14.063-1.093 6.39 2.755 11.95 7.36 15.985 2.705 3.66 6.38 5.908 10.71 7.173 2.334 2.42 3.736 4.816 7.1 6.057 3.215.224 6.677 5.387 9.122 1.465 3.214-3.897 6.8-7.956 7.508-13.094 1.564-3.5 4.444-5.362 8.068-6.28 3.376-1.974 6.603-2.644 9.27.77 6.095.706 12.66.657 18.358 2.754 3.512 1.775 3.177 5.623 6.416 7.857 2.148 2.544 5.995 4.182 7.212 7.223 1.7 2.57 3.3 5.288 3.338 8.726 2.01 5.386 5.176 10.562 6.59 16.06-.297 3.438 5.772 3.09 6.144 6.84 2.78 5.063 5.424 11.38 11.43 13.018 4.072 2.483.04 6.256 1.13 9.31 4.072 1.08-.012 5.808 1.167 8.277 3.142 1.69 5.425 3.973 5.24 7.994.483 4.146 2.643 8.478 7.06 9.36 3.737 2.394 8.305 2.642 12.25 4.22 2.83 2.22 6.393 5.075 10.13 3.51 4.293.572 8.402 1.602 11.63 4.655 1.774 3.152 8.08-1.13 5.348-3.588-2.532-4.207-1.613-9.668-3.512-14.223-.782-3.81-2.967-7.386-1.23-11.296 1.453-6.08 3.563-12.113 5.015-18.257-4.182-1.253-2.568-6.79 1.503-5.846 4.952.523 4.53-7.98 9.693-7.508 6.516-1.936 11.257-7.446 17.575-9.99 8.577-3.488 16.905-8.02 23.235-14.957 3.202-3.698 8.8-4.902 10.786-9.62 6.206-2.754 12.164-6.117 18.89-7.445-1.203-3.277.646-6.032 1.64-8.962.483-3.71.235-7.533 1.464-11.095-3.91-2.818.47-6.094 1.713-9.197-.25-3.475 1.762-7.757.11-10.75.374-3.635-1.848-6.378-4.157-9.047-3.053-3.277-1.377-8.577-4.803-11.816-3.14-5.672-1.973-12.648-2.792-18.89.024-6.206.235-12.412-.62-18.58-3.265-2.868-6.852 2.89-9.334-1.7-3.847-2.57-9.507-2.607-12.076-7.05-2.867-3.08-4.74 3.524-8.91 1.19-2.372-3.387-4.457.038-7.423.224-2.817-1.427-7.533-1.837-7.558 2.185-3.425 2.94-7.385-1.155-11.096-1.59-3.723 1.714-6.49-4.753-7.82-2.32-.185 3.302-3.127 6.33-6.366 4.146-4.01-.188-6.094-3.092-8.154-4.83-3.662-2.16-5.337 2.88-8.614 1.093-1.837-1.725-2.32-4.468-4.865-7.013-3.798-3.512-6.243 3.935-8.85.286-2.544-2.62-6.913-1.03-9.854-3.34-4.42.733-6.876-.297-5.126-5.1-2.346-2.296-2.83 1.502-5.92-.174-.733-.51-4.282 2.21-6.206-1.378-2.357-2.358-6.366-3.996-5.187-8.005.037-13.132.31-26.25 2.06-39.283.372-3.71.745-7.422 1.105-11.146-21.906-.78-43.813-1.575-65.707-2.754L89.596 23.78zM221.58 233.943c-6.455 8.9 3.635-4.06 0 0z" class="state-svg"/></svg>