<?xml version="1.0" encoding="UTF-8" standalone="no"?>
<!-- Created with Inkscape (http://www.inkscape.org/) -->

<svg
   xmlns:dc="http://purl.org/dc/elements/1.1/"
   xmlns:cc="http://creativecommons.org/ns#"
   xmlns:rdf="http://www.w3.org/1999/02/22-rdf-syntax-ns#"
   xmlns:svg="http://www.w3.org/2000/svg"
   xmlns="http://www.w3.org/2000/svg"
   xmlns:sodipodi="http://sodipodi.sourceforge.net/DTD/sodipodi-0.dtd"
   xmlns:inkscape="http://www.inkscape.org/namespaces/inkscape"
   width="45.692928mm"
   height="25.458445mm"
   viewBox="0 0 161.90408 90.207081"
   id="svg2"
   version="1.1"
   inkscape:version="0.91 r13725"
   sodipodi:docname="va.svg">
  <defs
     id="defs4" />
  <sodipodi:namedview
     id="base"
     pagecolor="#ffffff"
     bordercolor="#666666"
     borderopacity="1.0"
     inkscape:pageopacity="0.0"
     inkscape:pageshadow="2"
     inkscape:zoom="0.35"
     inkscape:cx="280.33721"
     inkscape:cy="331.31357"
     inkscape:document-units="px"
     inkscape:current-layer="layer1"
     showgrid="false"
     inkscape:window-width="1920"
     inkscape:window-height="1017"
     inkscape:window-x="3832"
     inkscape:window-y="-8"
     inkscape:window-maximized="1" />
  <metadata
     id="metadata7">
    <rdf:RDF>
      <cc:Work
         rdf:about="">
        <dc:format>image/svg+xml</dc:format>
        <dc:type
           rdf:resource="http://purl.org/dc/dcmitype/StillImage" />
        <dc:title></dc:title>
      </cc:Work>
    </rdf:RDF>
  </metadata>
  <g
     inkscape:label="Layer 1"
     inkscape:groupmode="layer"
     id="layer1"
     transform="translate(406.76584,-773.46872)">
    <path
       inkscape:connector-curvature="0"
       style="fill-opacity:1"
       d="m -299.89964,773.46882 c -0.19859,1.8121 0.29787,7.3104 -2.97876,5.3245 -3.20215,-0.8316 -7.96816,-3.9717 -10.21463,-3.3883 0.8688,4.6171 -1.81208,8.4025 -3.71103,12.337 -3.7855,1.4149 -2.84223,7.2359 -7.2483,6.9256 -2.01065,2.1596 -1.82448,6.5905 -3.04081,9.594 -3.83514,1.415 -6.66495,-0.5957 -9.03554,-2.172 0.13652,8.0675 -4.61707,14.8317 -7.33518,22.1421 -2.09754,2.1472 1.47696,4.7164 -0.91845,7.1614 -1.67555,4.4185 -4.70395,3.3759 -7.6827,5.2004 -3.37592,1.3653 -6.08162,0.6206 -6.70219,5.7217 -2.56917,1.4149 -5.99474,3.2642 -8.57632,0.5833 -2.95393,1.8742 -6.23056,3.9841 -9.69336,1.9859 -3.33868,-0.012 -4.84047,-8.1295 -7.53376,-3.649 -4.05855,5.0763 -9.79265,9.2838 -12.67211,15.0055 0.53369,4.0337 -5.53551,4.1206 -7.96816,6.3919 -5.2997,2.4202 4.49295,-0.1366 6.40432,-0.087 6.90077,-0.9805 13.82637,-1.7004 20.80162,-1.688 2.42023,-3.289 6.18091,-2.2464 9.64371,-2.0479 9.75541,-0.3971 19.42394,-2.6312 29.14212,-3.711 15.94874,-1.7376 31.57477,-5.2997 47.21322,-8.7501 14.45936,-3.1277 28.91872,-6.2429 43.39049,-9.3706 -2.03548,-3.3015 -3.41315,-8.2785 -7.96816,-5.1384 -2.46989,2.5196 -8.20398,-2.2589 -3.3511,-3.078 3.28904,-2.0107 -2.17201,-5.0515 -2.23406,-7.4097 -3.38833,-0.7695 -3.57451,-6.3546 0.67022,-4.4681 -0.211,-1.7004 -1.53903,-4.4929 -2.01066,-7.0497 1.82448,-4.3564 -1.04256,-6.1685 -4.61707,-6.4043 0.38476,-4.2447 -3.59932,-3.6366 -6.47878,-4.9274 -4.13302,0.2607 -8.7625,-0.3103 -12.29977,-2.0603 -1.5142,-2.9911 -1.12944,-6.3546 1.55144,-8.5391 1.72519,-3.5124 -0.34752,-7.0745 -4.09579,-7.782 -3.28904,-1.0301 -8.65079,-0.3599 -7.11177,-5.3369 -1.03015,-0.3723 -2.54435,-1.3156 -3.33868,-1.3156 z m 48.6033,26.7964 c 0.54611,5.8458 -3.90961,10.7979 -3.2518,16.7306 -0.42199,5.1011 3.27662,7.0994 4.31919,1.1419 2.12236,-3.7731 -0.28547,-8.0303 0.99292,-12.0764 0.49645,-3.1401 4.54259,-4.8156 4.36883,-8.3529 -2.14718,0.8564 -4.29437,1.7128 -6.44155,2.5568 z"
       id="state_va"
       class="state-svg" />
  </g>
</svg>
