<svg xmlns="http://www.w3.org/2000/svg" width="172697.681" height="96220.894" viewBox="0 0 161.90408 90.207081"><path d="M106.866 0c-.198 1.812.298 7.31-2.98 5.325-3.2-.832-7.967-3.972-10.213-3.39.87 4.618-1.812 8.404-3.71 12.338-3.787 1.415-2.843 7.236-7.25 6.926-2.01 2.16-1.824 6.59-3.04 9.593-3.835 1.415-6.665-.596-9.036-2.172.137 8.068-4.617 14.833-7.335 22.143-2.098 2.147 1.477 4.716-.918 7.16-1.676 4.42-4.704 3.377-7.683 5.202-3.375 1.365-6.08.62-6.7 5.722-2.57 1.414-5.996 3.264-8.578.583-2.954 1.874-6.23 3.984-9.693 1.986-3.34-.012-4.842-8.13-7.535-3.65-4.058 5.077-9.792 9.285-12.672 15.006.534 4.034-5.535 4.12-7.968 6.392-5.3 2.42 4.493-.136 6.404-.087 6.9-.98 13.826-1.7 20.8-1.688 2.42-3.29 6.182-2.247 9.645-2.05 9.755-.396 19.423-2.63 29.142-3.71 15.948-1.737 31.574-5.3 47.213-8.75 14.46-3.128 28.92-6.243 43.39-9.37-2.035-3.302-3.413-8.28-7.968-5.14-2.47 2.52-8.204-2.258-3.35-3.077 3.288-2.01-2.173-5.05-2.235-7.41-3.388-.77-3.574-6.354.67-4.468-.21-1.7-1.54-4.493-2.01-7.05 1.824-4.356-1.043-6.168-4.617-6.404.384-4.243-3.6-3.635-6.48-4.926-4.132.26-8.762-.31-12.3-2.06-1.513-2.99-1.128-6.355 1.552-8.54 1.726-3.512-.347-7.074-4.095-7.78-3.29-1.032-8.65-.36-7.112-5.338C109.175.943 107.66 0 106.865 0zm48.604 26.797c.546 5.845-3.91 10.797-3.252 16.73-.422 5.1 3.276 7.1 4.32 1.142 2.12-3.774-.287-8.03.992-12.077.496-3.14 4.542-4.816 4.37-8.353-2.15.856-4.296 1.713-6.443 2.557z" class="state-svg"/></svg>