<?xml version="1.0" encoding="UTF-8" standalone="no"?>
<!-- Created with Inkscape (http://www.inkscape.org/) -->

<svg
   xmlns:dc="http://purl.org/dc/elements/1.1/"
   xmlns:cc="http://creativecommons.org/ns#"
   xmlns:rdf="http://www.w3.org/1999/02/22-rdf-syntax-ns#"
   xmlns:svg="http://www.w3.org/2000/svg"
   xmlns="http://www.w3.org/2000/svg"
   xmlns:sodipodi="http://sodipodi.sourceforge.net/DTD/sodipodi-0.dtd"
   xmlns:inkscape="http://www.inkscape.org/namespaces/inkscape"
   width="15.645483mm"
   height="11.389326mm"
   viewBox="0 0 55.436747 40.355879"
   id="svg2"
   version="1.1"
   inkscape:version="0.91 r13725"
   sodipodi:docname="vi.svg">
  <defs
     id="defs4" />
  <sodipodi:namedview
     id="base"
     pagecolor="#ffffff"
     bordercolor="#666666"
     borderopacity="1.0"
     inkscape:pageopacity="0.0"
     inkscape:pageshadow="2"
     inkscape:zoom="0.35"
     inkscape:cx="706.26536"
     inkscape:cy="500.79707"
     inkscape:document-units="px"
     inkscape:current-layer="layer1"
     showgrid="false"
     inkscape:window-width="1920"
     inkscape:window-height="1017"
     inkscape:window-x="3832"
     inkscape:window-y="-8"
     inkscape:window-maximized="1" />
  <metadata
     id="metadata7">
    <rdf:RDF>
      <cc:Work
         rdf:about="">
        <dc:format>image/svg+xml</dc:format>
        <dc:type
           rdf:resource="http://purl.org/dc/dcmitype/StillImage" />
        <dc:title></dc:title>
      </cc:Work>
    </rdf:RDF>
  </metadata>
  <g
     inkscape:label="Layer 1"
     inkscape:groupmode="layer"
     id="layer1"
     transform="translate(832.69408,-992.80342)">
    <path
       inkscape:connector-curvature="0"
       d="m -826.47045,1031.5118 -2.76655,-2.1672 -3.45708,-2.1625 0.69051,-2.888 3.45707,-1.4416 4.84261,0.7208 2.07149,-3.6112 3.45704,0 2.07377,2.1648 7.60689,1.4464 3.45474,0.7208 2.76889,2.1673 -1.38328,2.8832 -4.14755,0 -9.68296,2.1672 z m 27.3995,-2.7731 -0.5391,-1.9637 1.61726,-0.9842 3.78051,0.4909 2.70005,-1.4751 2.15864,0.4933 0.54142,2.4594 0,0 2.6977,1.9636 0.54138,1.9661 -2.16094,0.9818 -3.23909,-0.9818 -3.78052,1.4703 -1.61729,-1.4703 -0.54136,-1.9661 z m -10.05687,-24.3258 4.94128,1.2908 3.09001,-0.6466 4.32188,2.5791 1.85584,-0.6441 1.23186,-1.935 1.85355,-3.2257 3.7048,1.935 1.85355,-1.2884 8.09783,1.1639 0.91989,-4.80618 -3.45708,-1.5135 -6.17541,0 -10.50195,-3.2257 -4.32187,0.6418 -7.41418,-1.286 -2.46833,1.286 -1.85357,-1.286 -4.9436,-0.6489 c 0,0 -2.91565,0.9842 -0.61704,2.5839 3.70478,2.5767 1.85354,7.09068 1.85354,7.09068 z"
       id="state_vi"
       class="state-svg" />
  </g>
</svg>
