<svg xmlns="http://www.w3.org/2000/svg" width="59132.534" height="43046.271" viewBox="0 0 55.436747 40.355879"><path d="M6.224 38.708L3.457 36.54 0 34.38l.69-2.89 3.458-1.44 4.842.72 2.072-3.61h3.457l2.072 2.163L24.2 30.77l3.454.72 2.77 2.168-1.384 2.883h-4.148L15.21 38.71zm27.4-2.773l-.54-1.963 1.617-.985 3.782.49 2.7-1.474 2.158.493.542 2.46 2.698 1.963.54 1.966-2.16.98-3.24-.98-3.78 1.47-1.617-1.47-.54-1.967zM23.565 11.61l4.942 1.29 3.09-.646 4.32 2.58 1.857-.645 1.232-1.936 1.854-3.226 3.705 1.935 1.854-1.288 8.097 1.163.92-4.806L51.98 4.52h-6.176L35.302 1.292l-4.322.642L23.566.65l-2.468 1.285L19.244.65 14.3 0s-2.915.984-.616 2.584c3.704 2.577 1.853 7.09 1.853 7.09z" class="state-svg"/></svg>