<svg xmlns="http://www.w3.org/2000/svg" width="36687.776" height="70417.705" viewBox="0 0 34.39479 66.016596"><path d="M0 7.844C.236 15.29 5.77 21.757 4.617 29.29c-3.078 5.25 5.61 9.05 2.755 14.374 1.117 1.973 5.784 2.432 5.04 6.516 1.34 5.225 3.55 10.35 2.283 15.837 4.158-.633 8.763-1.452 12.573-2.445-.26-2.644 1.874-7.137-.658-9.694.248-9.482 1.254-18.94 1.403-28.434-4.034-2.992.397-4.704 2.63-6.43 2.434-2.83 4.84-6.292 3.228-10.053C30.62 6.94 32.606 1.59 30.906 0 20.603 2.606 10.315 5.225.012 7.832z" class="state-svg"/></svg>