<svg xmlns="http://www.w3.org/2000/svg" width="152151.243" height="110002.001" viewBox="0 0 142.6418 103.12687"><path d="M42.134.72c.062 3.413 3.636 6.69 4.034 10.128-2.383 2.89-2.21 6.44-1.64 9.57-2.245 3.275 2.024 5.98.833 9.208-4.467 1.887-3.015-4.592-6.03-6.193-4.147-2.78 1.823-4.803 1.45-6.727C37.68 15.328 38 21.52 36.2 21.88c-5.3.77-9.605-3.387-14.694-3.97C15.376 15.54 9.74 11.853 5.98 6.342c-3.886-1.216-2.433 6.17-4.035 8.626-.78 3.475 3.215 6.28 1.75 10.19.646 4.79-1.6 9.37.224 14.013-1.317 3.575 5.894 6.877 3.648 7.932-4.282-1.304-7.695 3.97-2.793 5.386 1.95 1.204-.757 7.844-4.096 6.74-2.272 2.668 1.588 8.514 5.138 5.175 4.68-1.924 3.413 4.357 7.236 3.885 3.487-.298 5.287 4.108 5.635 6.963.048 3.08-.188 7.472-.324 9.657 3.264 2.184 6.218 5.287 10.5 4.493 3.972.82 5.833-4.046 9.892-.62 3.736.595 7.906 1.923 10.91 4.542 3.76 1.142 7.47-2.21 10.165 1.303 4.27 1.614 8.278.037 12.212-1.738 1.23 2.21 5.486 1.64 8.688 1.614 6.64-.235 13.256-.198 19.635 1.925 8.676 1.787 17.103 4.282 25.63 6.702l16.644-77.646C118.055 20.604 93.778 14.05 69.75 7.287 60.725 5.386 51.876 2.916 43.113 0l-.52.385-.46.335zm-7.298 7.993c-1.8-1.787-4.158-1.117-.968 3.065-.41-4.703 5.548.596 5.287-4.28-.918-1.776-3.637-.126-4.32 1.215zm2.867 2.37c-3.885 3.774 1.688 2.706.198-.31l-.197.31z" class="state-svg"/></svg>