<?xml version="1.0" encoding="UTF-8" standalone="no"?>
<!-- Created with Inkscape (http://www.inkscape.org/) -->

<svg
   xmlns:dc="http://purl.org/dc/elements/1.1/"
   xmlns:cc="http://creativecommons.org/ns#"
   xmlns:rdf="http://www.w3.org/1999/02/22-rdf-syntax-ns#"
   xmlns:svg="http://www.w3.org/2000/svg"
   xmlns="http://www.w3.org/2000/svg"
   xmlns:sodipodi="http://sodipodi.sourceforge.net/DTD/sodipodi-0.dtd"
   xmlns:inkscape="http://www.inkscape.org/namespaces/inkscape"
   width="31.323187mm"
   height="33.285851mm"
   viewBox="0 0 110.98767 117.94199"
   id="svg2"
   version="1.1"
   inkscape:version="0.91 r13725"
   sodipodi:docname="wi.svg">
  <defs
     id="defs4" />
  <sodipodi:namedview
     id="base"
     pagecolor="#ffffff"
     bordercolor="#666666"
     borderopacity="1.0"
     inkscape:pageopacity="0.0"
     inkscape:pageshadow="2"
     inkscape:zoom="0.35"
     inkscape:cx="805.30203"
     inkscape:cy="540.85631"
     inkscape:document-units="px"
     inkscape:current-layer="layer1"
     showgrid="false"
     inkscape:window-width="1920"
     inkscape:window-height="1017"
     inkscape:window-x="3832"
     inkscape:window-y="-8"
     inkscape:window-maximized="1" />
  <metadata
     id="metadata7">
    <rdf:RDF>
      <cc:Work
         rdf:about="">
        <dc:format>image/svg+xml</dc:format>
        <dc:type
           rdf:resource="http://purl.org/dc/dcmitype/StillImage" />
        <dc:title></dc:title>
      </cc:Work>
    </rdf:RDF>
  </metadata>
  <g
     inkscape:label="Layer 1"
     inkscape:groupmode="layer"
     id="layer1"
     transform="translate(931.73063,-955.27655)">
    <path
       inkscape:connector-curvature="0"
       d="m -897.3352,955.92831 c -5.03906,3.4132 -10.81039,6.1065 -16.79272,7.2483 -3.5745,-1.3404 -6.87595,-1.3901 -6.91318,3.3263 -0.59575,4.1454 0.63298,8.7253 -0.58334,12.6225 -2.50712,4.0461 -8.57633,5.0018 -9.13484,10.4008 -3.26422,3.4504 2.74293,3.7979 2.76775,6.8635 2.22166,3.5993 -2.64364,5.88309 -1.65072,9.49479 0.35993,3.6365 -0.49646,8.055 1.41491,11.0834 1.65072,4.3192 7.29794,0.2607 8.24121,4.8777 1.93619,2.805 6.78907,1.2784 7.6827,5.9327 2.66846,6.3299 12.03912,6.0196 13.91325,12.8955 0.84398,4.1951 0.4344,9.11 2.40783,12.8087 4.04614,1.3032 2.40782,5.3865 0.31028,7.7075 -0.9805,4.9149 3.14011,10.3512 8.37774,10.2395 2.82982,1.9858 6.03198,2.0478 9.71818,1.4769 16.17215,-0.9557 32.3567,-1.8989 48.52884,-2.8546 -0.0248,-5.5231 -2.45747,-10.6863 -2.30853,-16.2963 -2.10995,-2.5319 -1.06739,-5.1756 -0.0496,-7.9309 0.39717,-3.5249 3.81032,-6.1189 1.87413,-9.7678 -1.3032,-3.649 -1.09221,-7.7076 2.14719,-10.2643 -0.24823,-3.5125 -0.62058,-6.243 -0.19859,-9.8423 -1.4149,-5.2128 3.27663,-9.3086 4.57983,-14.0994 1.14186,-1.4025 3.90962,-10.35119 0.90604,-6.11889 -3.28904,4.72879 -6.19332,9.94159 -10.15258,14.01259 -1.06738,2.5567 -3.98408,5.6472 -6.46637,5.5851 -3.18975,-1.5638 0.34752,-5.5727 1.11703,-7.9557 0.58334,-3.649 3.97167,-5.2749 5.07629,-8.50189 -4.1082,-1.6011 -3.43798,-6.243 -4.39366,-9.8299 0.0248,-3.8351 -1.52661,-6.305 -5.32452,-6.9132 -2.6561,-4.555 -8.73772,-3.4503 -13.14379,-5.1135 -8.84938,-2.3209 -17.6367,-5.4486 -26.89565,-6.1933 -3.07805,-0.6702 -3.52486,-6.8387 -6.83872,-5.8706 -2.12236,-1.9114 -4.77842,-0.8688 -7.22348,0.1613 -3.47521,-1.6383 0.84398,-5.6968 1.86172,-7.9185 2.70571,-1.6631 -1.89895,-2.656 -2.86704,-1.2411 z"
       id="state_wi"
       class="state-svg" />
  </g>
</svg>
