<svg xmlns="http://www.w3.org/2000/svg" width="118386.849" height="125804.791" viewBox="0 0 110.98767 117.94199"><path d="M34.395.652c-5.04 3.413-10.81 6.106-16.792 7.248-3.575-1.34-6.876-1.39-6.913 3.326-.596 4.146.633 8.726-.584 12.623-2.507 4.045-8.576 5-9.135 10.4-3.263 3.45 2.744 3.798 2.77 6.863 2.22 3.6-2.645 5.883-1.652 9.495.36 3.636-.496 8.055 1.415 11.083 1.65 4.32 7.298.262 8.242 4.88 1.936 2.804 6.79 1.277 7.682 5.932 2.67 6.33 12.04 6.02 13.913 12.895.844 4.195.435 9.11 2.408 12.81 4.046 1.302 2.408 5.385.31 7.706-.98 4.915 3.14 10.352 8.378 10.24 2.83 1.986 6.032 2.048 9.718 1.477 16.173-.956 32.357-1.9 48.53-2.855-.025-5.523-2.458-10.686-2.31-16.296-2.11-2.533-1.067-5.177-.05-7.932.398-3.525 3.812-6.12 1.875-9.768-1.304-3.65-1.093-7.707 2.147-10.264-.25-3.513-.62-6.243-.2-9.842-1.414-5.213 3.278-9.31 4.58-14.1 1.143-1.402 3.91-10.35.907-6.12-3.29 4.73-6.194 9.943-10.153 14.014-1.066 2.557-3.983 5.647-6.465 5.585-3.19-1.564.347-5.573 1.117-7.956.583-3.65 3.972-5.275 5.076-8.502-4.108-1.6-3.438-6.243-4.393-9.83.024-3.835-1.527-6.304-5.325-6.913-2.656-4.555-8.738-3.45-13.144-5.113-8.85-2.322-17.637-5.45-26.895-6.194-3.078-.67-3.524-6.84-6.838-5.87-2.123-1.912-4.78-.87-7.224.16-3.475-1.638.844-5.697 1.862-7.918 2.706-1.663-1.9-2.656-2.867-1.24z" class="state-svg"/></svg>