<?xml version="1.0" encoding="UTF-8" standalone="no"?>
<!-- Created with Inkscape (http://www.inkscape.org/) -->

<svg
   xmlns:dc="http://purl.org/dc/elements/1.1/"
   xmlns:cc="http://creativecommons.org/ns#"
   xmlns:rdf="http://www.w3.org/1999/02/22-rdf-syntax-ns#"
   xmlns:svg="http://www.w3.org/2000/svg"
   xmlns="http://www.w3.org/2000/svg"
   xmlns:sodipodi="http://sodipodi.sourceforge.net/DTD/sodipodi-0.dtd"
   xmlns:inkscape="http://www.inkscape.org/namespaces/inkscape"
   width="27.445271mm"
   height="27.090704mm"
   viewBox="0 0 97.247021 95.990677"
   id="svg2"
   version="1.1"
   inkscape:version="0.91 r13725"
   sodipodi:docname="wv.svg">
  <defs
     id="defs4" />
  <sodipodi:namedview
     id="base"
     pagecolor="#ffffff"
     bordercolor="#666666"
     borderopacity="1.0"
     inkscape:pageopacity="0.0"
     inkscape:pageshadow="2"
     inkscape:zoom="0.35"
     inkscape:cx="139.38517"
     inkscape:cy="700.49574"
     inkscape:document-units="px"
     inkscape:current-layer="layer1"
     showgrid="false"
     inkscape:window-width="1920"
     inkscape:window-height="1017"
     inkscape:window-x="3832"
     inkscape:window-y="-8"
     inkscape:window-maximized="1" />
  <metadata
     id="metadata7">
    <rdf:RDF>
      <cc:Work
         rdf:about="">
        <dc:format>image/svg+xml</dc:format>
        <dc:type
           rdf:resource="http://purl.org/dc/dcmitype/StillImage" />
        <dc:title></dc:title>
      </cc:Work>
    </rdf:RDF>
  </metadata>
  <g
     inkscape:label="Layer 1"
     inkscape:groupmode="layer"
     id="layer1"
     transform="translate(265.8138,-1136.8673)">
    <path
       inkscape:connector-curvature="0"
       d="m -233.42315,1137.5251 c -1.98583,2.7678 1.61349,6.2306 0.31029,9.6189 -0.22341,5.0142 -0.78193,10.0657 -1.04257,15.0551 -2.40782,4.4433 -5.49828,9.1224 -10.12775,11.3317 -3.90962,-1.6508 -4.8653,4.0337 -7.14901,6.1809 -1.93619,2.8298 3.27663,6.1188 -0.37234,8.3033 -3.18975,4.4433 -3.22698,-5.9575 -5.53552,-0.8813 -1.63831,3.2146 0.0248,7.4717 -1.67554,10.3388 -2.25889,1.9114 -0.65781,6.4415 -5.16317,5.9699 -2.76776,0.1614 -1.79967,7.6827 1.24114,8.4522 2.78017,1.8245 3.09046,5.8831 6.82631,7.3476 2.383,2.4327 2.82981,6.4291 6.68978,7.5089 2.03548,2.7182 3.81032,6.1561 7.75717,6.0568 3.26421,0.6206 5.92027,-4.7908 8.96108,-1.6755 1.8493,1.0053 4.8777,-0.7075 5.68445,-2.2713 0.53369,-5.672 4.24472,-3.3635 7.48411,-5.4486 2.96634,-1.1667 5.98233,-1.2164 6.97525,-5.5107 -1.56385,-3.2146 0.37234,-6.2058 1.93619,-9.4824 2.76775,-5.9699 5.85821,-11.9274 5.79615,-18.6793 3.28904,-2.867 4.61707,4.4185 8.75008,1.7501 2.03549,-2.1969 1.39009,-7.0373 3.22699,-9.4203 4.30678,0.484 3.6862,-4.915 7.149,-6.4664 2.84223,-3.86 4.36884,-8.4398 3.79791,-13.2803 1.31562,-1.6011 6.32985,2.0107 8.97349,2.6685 4.09579,4.1578 5.38658,-2.4575 3.53727,-5.0267 -2.48229,-2.8298 -6.35467,-4.5922 -9.45754,-5.8954 -4.10819,1.2163 -6.75184,6.7891 -11.64196,4.9273 -2.30853,-0.2854 -2.95392,4.9398 -6.03197,4.8157 -3.58691,0.8812 -4.70394,5.4362 -7.48411,7.7199 -1.36526,-0.074 -1.22874,-5.9823 -2.01066,-8.2412 -0.0124,-4.8777 -2.19683,-6.5781 -6.80148,-4.7412 -5.22523,0.7447 -10.43805,1.5266 -15.65086,2.3706 -1.45215,-8.0054 -2.84223,-16.0356 -4.26955,-24.0534 l -0.4344,0.4344 -0.22341,0.2234 z"
       id="state_wv"
       class="state-svg" />
  </g>
</svg>
