<svg xmlns="http://www.w3.org/2000/svg" width="84480.597" height="37.303mm" viewBox="0 0 79.200559 132.17669"><path d="M1.193 4.394c-.248 17.835.15 35.683-.67 53.518C.473 69.095-.57 80.377.436 91.51c1.923 12.412 3.65 24.835 4.778 37.346 3.81 1.353 4.58-2.383 5.46-5.188-.37-4.828 5.3-3.748 6.07-.05.894 2.557 5.064 6.54.956 8.254-.186 1.142 7.658-1.117 7.298-3.587-.546-3.736.794-8.514-3.562-10.165-2.842-1.092-3.76-6.938-.397-7.037 17.474-2.31 35.01-4.456 52.56-5.958 3.352 1.328 8.39-.31 3.687-3.103-2.234-2.482 1.18-6.243-.335-9.494-.384-3.848-3.264-7.323-1.626-11.357.013-3.623 3.09-6.652 2.396-10.3-4.37-.56-1.663-6.343-5.287-8.316-4.32-7.224-4.17-16.185-7.398-23.843-2.507-10.04-4.145-20.366-8.998-29.637-.634-2.967-1.34-6.02-.895-9.073C37.16 1.465 19.177 2.917 1.193 4.38z" class="state-svg"/></svg>