<svg xmlns="http://www.w3.org/2000/svg" width="61818.202" height="28500.051" viewBox="0 0 57.954566 26.718797"><path d="M17.832 0c.425.202 1.042 1.276 1.332 1.828.49.933-.475 1.118.74 1.406.603.144 1.287-.8 1.48-.984.47-.447.775-.85 1.036.14.105.403 1.338 1.8 1.775 2.11.58.414 1.063.448 1.628.984l1.332 1.266c.535.508.817.71 1.184 1.406.34.65.83 1.07 1.183 1.407.79.75-1.937.42-3.108.42-.307.002.532 1.263.592 1.548.18.85.405.8 1.184.986 1.113.264 1.185-.267 1.185-1.125 0-.57.89.852 1.036 1.407.203.77.693 1.102 1.332 1.406.63.3 1.326.49 1.776.703.786.374.768.318.592.985-.108.41.11 1.27 0 1.688-.235.894.955.155.444 1.125-.22.42-1.518.722-1.776.844-.74.35-1.404.245-2.07.563-.8.38-.652.647-.15 1.125.283.268 1.833-.084 2.072-.14.704-.168 1.45-.142 2.22-.142.993 0 1.553-.035 2.368-.422.612-.29.444-.854.444-1.686 0-.917-.26-1.345.592-1.547 1.036-.246 1.25-.058 1.923.422.276.195 2.167.383 2.368.42.798.152 1.25.486 1.628.845.538.51 1.254.91 1.628 1.265.554.526 1.074.677 1.776.844.902.214 1.274-.367 1.628-.703.358-.34.148-1.48.148-1.968 0-.437 2.71.654 2.812.703.792.377 1.283.236 1.776.703.69.657.228 1.106 1.33.844.842-.2 1.354.25 2.073.422.778.185.592.676.592 1.547v2.11c0 .994-.594.81-1.332.985-.61.144-1.45-.254-1.776-.563-.634-.603-.803-.383-1.035-1.266-.218-.826-.31-.92-1.036-1.265-.35-.165-.997.704-1.776.704-.84 0-1.162.482-1.628.703-.653.31-1.163.422-2.072.422-.33 0-.814-.827-1.48-.985-.598-.143-1.73 0-1.923 0-.61 0 .706 1.53.74 1.546.82.39 1.83-.075.148.564-.656.25-1.567-.14-2.22-.14-1.078 0-1.184-.153-1.184-1.126 0-.958-.55-.844-1.48-.844-.574 0-.328 1.274-.886 1.407-.92.22-.837-.618-1.184.704-.137.518-1.23-.044-1.628-.422-.437-.415-1.407.158-.296.422.95.226-.47 1.125-1.036 1.125-.988 0-.834-.636-1.332-1.267-.494-.626-1.224-.155-1.48-1.125-.13-.49-1.143-.613-1.627-.844-.736-.35-1.294-.685-1.923-.984-.92-.437-2.05-.28-3.108-.28-.552 0 .295-1.024.295-1.548v-2.11c0-1.144-.157-.88-1.184-1.124-.554-.132-.975.562-1.774.562-.975 0-1.184-.442-1.184-1.266 0-.9-.816-.387-1.48-.703-.815-.386-1.48-.565-1.48.423 0 .745-.823.828-1.48.985-.96.228-.978-.676-1.627-.985-.732-.347-1.517-.228-2.22-.562-.192-.09-.597 1.02-1.036 1.126-.76.18-1.804-.112-2.517-.282-.857-.203-.423-.843-1.48-.843-.804 0-1.492-.216-1.923-.42-.4-.192.664-.845-1.036-.845-1.086 0-1.24-.108-1.628-.844-.44-.833-.087-1.11-1.332-1.405-.374-.09-1.09-.905-1.184-1.266-.157-.598-1.98-.514-.59-.844.745-.178 1.387-.225 2.218-.422.716-.17 1.6-.48 2.072-.703.488-.23 1.786.074 2.072.14.733.176.684.45 1.627 0 .572-.27.485-1.003 1.035-1.264.524-.25 2.097-.14 2.664-.14.136 0 .25-1.8.295-1.97.11-.413.295-1.262.444-1.828.046-.18 1.42-.788 1.627-.984.41-.39.958-.58 1.48-.703.848-.2 1.187-.144 1.627-.562.455-.432-.09-1.26.148-1.828z" class="state-svg"/></svg>