<svg xmlns="http://www.w3.org/2000/svg" width="40.688mm" height="171986.555" viewBox="0 0 144.1711 161.2374"><path d="M37.73 19.76c-3.09-.075-3.785 5.497-7.918 3.648-.92-3.562-4.456-3.5-6.938-5.238-4.642.92-2.942 5.685-3.327 9.197-.645 6.256-.52 12.672-1.104 18.89-2.718 2.892-3.03 7.174-.298 10.166 2.88 3.25.72 9.333 5.076 11.282 1.218 4.455-3.586 5.994-6.713 7.558-4.084 3.053-4.07 8.514-4.816 12.995-1.55 3.028-5.97 2.966-6.105 6.168.583 2.706 7.67.472 4.244 5.635-.807 3.414-3.898 4.283-6.976 4.693-4.468 1.8-3.34 5.833.956 6.752 18.232 9.73 35.397 21.26 53.38 31.425 7.188 3.96 13.99 8.95 21.436 12.263 14.534 3.512 29.477 4.282 44.284 6.044 7.087-48.876 14.174-97.74 21.26-146.616C109.94 9.744 75.698 4.88 41.467 0l-3.723 19.784z" class="state-svg"/></svg>