<svg xmlns="http://www.w3.org/2000/svg" width="48.342mm" height="307017.007" viewBox="0 0 171.28899 287.82844"><path d="M15.575 5.1c-.124 5.015.497 10.19-2.47 14.585-2.308 4.567-3.165 10.227-8.042 12.883C3.586 35.188.73 36.763.607 40.573-1.8 44.905 3.697 47.586 4.22 51.72c1.91 4.206 2.903 8.612 2.022 13.217 0 3.624-3.463 6.218-2.78 10.103.062 3.686-2.78 7.285.05 10.6 3.2 6.205 7.918 12.324 8.327 19.473-.67 3.438-1.23 6.665 2.246 8.9 1.986 2.42 5.573 4.54 3.463 8.017-2.15 4.803-1.416 9.978-1.354 15.092 2.085 3.314 3.512 8.39 8.266 8.105 1.837 2.89 1.204 6.007-.273 8.85-3.104 1.898-5.413 3.387-4.544 7.545.335 4.332 5.3 6.628 5.412 11.183 1.812 7.695 5.126 14.794 9.42 21.41.88 3.19 2.68 5.386 3.6 7.955-.3 4.133-2.396 8.055-2.992 12.25-2.06 3.24 1.477 6.852 4.952 6.355 5.002.186 9.023 4.108 13.665 5.014 3.724-.683 5.883 3.6 7.534 6.342 1.91 3.363 2.942 7.447 7.15 8.54 3.114 1.414 7.682.06 8.898 4.28 2.99 3.377-2.966 6.268 1.75 6.417 3.388 2.32 6.9-2.16 9.383-.92 2.644 2.558 5.027 5.214 6.12 8.75 5.336 6.083 1.786 14.61 3.462 21.746 18.282 2.408 36.54 5.858 54.945 6.677 3.45 1.477 7.683-5.498 3.525-5.77-3.885.793-3.512-4.99-1.688-5.785 3.91-1.092 6.107-4.753 5.772-8.737.583-4.94 4.058-9.22 8.96-10.425 4.258-2.532-.41-4.443-.98-7.186-.285-4.53-2.42-8.453-4.493-12.276 2.508-4.543-2.754-4.12-3.92-7.745-28.05-42.324-56.1-84.635-84.163-126.958 7.782-27.85 15.564-55.703 23.346-83.54C71.948 12.795 44.593 6.403 17.226 0c-.56 1.713-1.117 3.413-1.663 5.126zm29.95 229.266c-.336 3.785 9.916 3.798 5.832 2.57-2.023-.436-3.934-3.054-5.833-2.57zm-6.405.47c.41 4.606 7.21.634 1.626-.048-.546.012-1.093.025-1.626.05zm31.848 22.913c-.25 1.96 5.485 7.446 3.922 2.94-.782-1.19-2.545-2.817-3.922-2.94zm-2.408 14.433c-.174 1.924 3.97 4.83 1.638 1.564-.583-.83-2.085-4.766-1.638-1.564z" class="state-svg"/></svg>