<svg xmlns="http://www.w3.org/2000/svg" width="209744.678" height="175809.422" viewBox="0 0 196.63564 164.82133"><path d="M130.02 1.083c2.1 3.624 1.863 7.596 1.44 11.593-5.113.67-2.667-5.82-6.9-4.953-7.67-.087-15.316 1.403-23.01 1.477-12.524.36-25.283 2.656-37.645.795-3.19-1.95-3.524-7.633-8.067-6.616-11.32-.15-22.564 2.22-33.834 3.164C14.78 7.326 7.582 8.244.37 9.176-1.39 13.21 3.6 14.6 5.41 17.044c.993 2.83-1.936 10.45 2.718 8.813 5.1-1.49 10.03-3.637 15.49-3.376 4.145-1.017 8.23-.905 12.275.56 5.076.992 9.643 3.834 14.16 6.18 2.198 2.408 6.827 2.32 7.41 6.206-.173 4.058 5.363-1.167 8.068.658 3.96-.993 6.505-4.568 9.546-6.827 6.032 2.098.77-3.6 4.058-4.927 3.885-1.03 8.217-1.725 11.605.98 3.772.708 6.738 2.483 8.153 6.194 4.568.025 3.575 5.126 6.802 6.578 3.674.608 3.698 5.61 7.82 5.337 3.61.446 6.763 1.426 7.247 5.522 2.545 2.62 4.866 5.287 3.835 9.197.224 4.566.15 9.096-1.787 13.34.484 4.568 1.7 9.856 4.07 13.38 2.794-4.294.212-4.803-2.158-7.483 2.718-2.185 6.032-.274 9.06.198 1.018 3.91-2.68 6.95-4.32 10.165-4.095 2.743 2.05 5.076 3.39 7.82 3.86 4.145 5.398 9.854 9.345 13.975.968 2.842 3.115 9.27 5.746 3.835 3.153-.298 4.816 4.27 6.554 6.714-.025 2.805 2.395 8.738 4.455 7.993 3.575-.993 7.497.807 10.277 3.215 3.176 4.096 5.684 8.663 5.66 13.988 1.7 3.388 5.646.546 7.21-1.415 4.642.558 9.01-1.552 11.443-5.548-1.253-2.93-.707-5.995-.397-8.9-.05-2.705 5.374-3.958 2.793-8.08-1.218-7.856-.237-16.084-2.322-23.89-3.054-8.602-9.36-15.813-12.908-24.278-1.874-2.992-5.263-4.866-5.734-8.74-1.167-2.828-3.314-6.142-.087-8.327-.485-4.418-6.033-6.727-8.49-10.438-6.678-6.913-10.29-16.06-15.33-24.128-2.667-6.863-5.323-13.74-7.334-20.826-4.257.088-9.06-1.277-12.982-.434l-.422.46-.323.36zm65.67 135.558c-2.358 5.686.894.473.82-2.37-.274.795-.547 1.577-.82 2.37zm-5.82 12.3c3.177-2.444 4.567-8.488 1.29-2.084-.434.695-.856 1.39-1.29 2.085zm-2.793 2.756c1.812-1.514 2.532-2.57.223-.223l-.223.223zm-7.1 5.164c-6.49 4.58 5.002-2.656.41-.236l-.41.236zm-13.305 3.996c-4.232 3.922 7.087-.397 5.09-1.005-2.235-.694-3.178-.88-5.09 1.006zm-5.697 3.922c.1.2.497-.372 0 0z" class="state-svg"/></svg>