<svg xmlns="http://www.w3.org/2000/svg" width="122054.502" height="127692.779" viewBox="0 0 114.4261 119.71198"><path d="M.092 5.93c-.918 8.762 5.312 15.75 6.566 24.078 1.688 8.154 4.27 16.085 6.243 24.127 1.167 6.057 2.694 12.35 6.864 17.066-1.055 4.345 4.183 3.936 3.215 7.994-2.347 5.523-4.432 11.977-1.044 17.538.062 3.264 1.167 6.702-.47 9.78 3.66 1.167 1.798 4.977 3.81 7.46 1.674 3.313 4.566 5.895 8.476 4.964 15.328-.012 30.644-1.626 45.96-2.383 4.12-.72 8.278-.92 12.46-.732-.967 5.263 3.774 5.15 2.595-.11-1.117-2.657-3.65-7.733.732-8.218 3.97.62 7.967 1.13 11.988 1.266-1.042-4.716-.992-9.395.62-13.987.25-4.393 3.253-8.352 2.744-12.67-.894-3.638 4.046-6.53 3.537-9.993-2.72 1.7-6.566-.88-6.63-3.96-.694-3.87-3.362-7.235-7.483-7.52-1.65-4.84-3.25-10.14-6.193-14.187-3.872-1.328-7.608-3.71-8.9-7.806-2.556-2.892-6.49-3.984-8.265-7.646-2.583-2.73-6.505-3.512-9.508-5.2-.943-3.14-3.984-5.077-4.89-8.28-1.688-3.263-3.687-5.77-7.633-4.678-2.893-1.948-8.876-4.195-6.592-8.65 2.507-2.495 4.667-5.102-.993-3.86C31.567 2.193 15.817 4.054.08 5.93z" class="state-svg"/></svg>