<svg xmlns="http://www.w3.org/2000/svg" width="57381.551" height="63813.332" viewBox="0 0 53.795207 59.824996"><path d="M38.2 58.994h.24c.81 0 1.59-.277 2.387-.415 1.045-.183 1.51-1.49 2.387-1.87.938-.41 1.21-1.26 1.91-1.87.204-.178.41-.536.478-.624 1.372-1.194-1.432-2.336 1.67-1.66.07.015 2.46-.95 2.866-1.04 1.173-.255 2.44-.22 3.343-.416 1.14-.248-1.145-1.786-1.67-2.7-.496-.862-.24-2.153-.24-3.116 0-1.214-.25-1.916-.477-2.7-.272-.948-.868-1.587-1.432-2.078-.595-.518-1.708-1.046-2.626-1.246-1.223-.266-1.125-1.04-2.865-1.04-.832 0-.946-2.058-1.194-2.49-.727-1.265-2.15-.01-2.627-1.663-.31-1.074-.944-1.03-1.672-1.662-.684-.595-1.713-.953-2.388-1.246-1.154-.503-1.87-1.04-3.342-1.04-.584 0-1.7-1.833-1.91-2.077-.7-.81-1.026-1.308-1.67-1.87-.286-.248-2.256.185-3.105 0-.124-.027 0-2.834 0-3.115 0-.49-1.56-1.258-1.67-1.455-.22-.378.476-2.46.476-3.115 0-1.02-.033-2.19-.24-2.91-.274-.952-.235-2.076-1.432-2.076-1.253 0 .692-1.64.955-1.87.417-.363.332-2.195.477-2.7.39-1.36-.716-1.83-.716-2.908 0-.068-1.925-1.15-2.15-1.246-.684-.298-1.316-1.146-1.91-1.662-.912-.795-1.105-1.17-1.91-1.87-.783-.682-1.893-.62-3.103-.83C13.935.222 13 0 11.7 0c-.732 0-1.693 1.264-2.15 1.662-1.032.897-1.35-.494-1.91 1.454-.053.185-.775 1.657-.955 2.285-.323 1.124-.234 1.853-.477 2.7-.213.74-.93 1.16-1.194 2.08-.305 1.06-.156 2.14-.716 3.114-.575 1-1.672.613-1.672 2.285 0 1.423.648 1.54 1.194 2.492.374.652.757 1.804.955 2.493.2.693 1.05 1.827 1.433 2.493.094.164-.24.846-.24 1.246L0 29.082c1.053 1.832 1.308 1.172 3.104 0 .978-.638 1.77-.654 2.865-.416.9.196.847 2.494.847.53 0-1.447-.317.22.962.625 2.206.698 1.996.57.1-.53-.427-.248 1.997-.93 1.43 1.038-.295 1.032-1.916-.027-1.43 1.662.177.62 3.638-.17 3.82-.208 1.035-.225 1.796 1.246 2.864 1.246 1.038 0 2.338.416 3.58.416.922 0 2.612.464 3.344.623 1.47.32 2.12.398 3.104 1.04.674.44-.418 2.698-.478 2.907-.31 1.077 3.306.01 3.343 0 1.54-.27 1.715 1.4 1.91 2.077.386 1.347.59 1.712 1.91 2.286 1.46.635 1.91 1.608 1.91 2.908 0 1.948.825 2.553 1.193 4.155.28 1.214-.273 1.55.717 2.7 1.044 1.21 1.79 1.662 2.387 2.7.537.934.478 1.72.478 2.908 0 1.095.295 1.197-.717 2.077" class="state-svg"/></svg>