<svg xmlns="http://www.w3.org/2000/svg" width="67013.654" height="117761.983" viewBox="0 0 62.8253 110.40186"><path d="M47.903.56c-11.32 1.153-22.775 2.456-34.02 3.325-3.227.484-5.225 6.305-8.55 3.698C.577 4.06 2.054 9.855 2.34 13.107c1.366 18.38 3.39 36.75 4.27 55.13-.943 4.58-1.725 9.794 1.688 13.542.124 3.71 1.738 7.794-1.415 10.735-2.27 3.388-3.165 7.56-6.23 10.45.11 2.582-2.507 10.178 2.023 6.405 4.33-.745 8.998-1.9 13.268-1.663 2.93 5.064 3.313-.77 6.528-1.6 2.52-3.253 5.933 2.543 6.628 1.29-1.564-4.233 3.785-4.68 6.33-6.48 1.352.783 7.51 4.196 6.578-.794-.57-3.065 2.507-5.845 4.53-7.868 3.86-1.726 5.374-4.84 5.163-8.974 2.272-1.24 6.12-1.253 8.652-3.065 5.25-1.278.322-4.32 1.514-7.347-1.03-15.59-3.475-31.19-5.064-46.78C55.747 17.414 55.015 8.702 54.146 0c-2.085.2-4.158.385-6.243.583z" class="state-svg"/></svg>