<svg xmlns="http://www.w3.org/2000/svg" width="167099.21" height="83613.165" viewBox="0 0 156.65551 78.387337"><path d="M94.325.742C90.9-.214 86.878 2.12 90.13 5.432c1.887 3.91-3.872 5.115-6.442 6.542-3.648.658-5.845 1.6-5.336 5.982-1.428 3.302-6.58 4.022-7.844 7.844-2.68 1.738.918 7.72-3.525 7.348-3.798.757-5.412-3.463-8.8.136-2.805.633-1.365 8.664-4.778 3.848-2.818-3.153-6.914.174-7.646 3.488-2.372 1.328-4.22-4.63-7.473-2.37-4.12.756-9.283.582-12.312 3.61.1 3.29-4.207 4.692-2.11 7.51 2.905 3.3-2.768 3.326-4.79 4.095-4.43 1.676-.845 5.4-.944 8.34.41 4.283-4.666 1.788-6.813.895-3.103-2.843-7.77-.472-8.85 3.14 3.55 2.83-.05 5.908.51 9.507-4.307 2.532-3.96 3.388 1.166 2.917 7.25.012 14.447-1.18 21.72-.944-.868-4.642 1.217-6.193 5.66-5.2 30.197-3.736 60.593-5.833 90.802-9.222 5.337-.87 10.178-2.954 14.584-6.057 4.095-.992 5.013-3.362 6.354-6.64 4.294-5.075 8.85-10.002 13.392-14.892-4.06-1.54-3.76-6.84-7.708-8.626-3.227-1.552-2.57-5.784-6.404-6.653-2.954-3.278.993-9.037-3.75-11.01-3.747-.012-2.94-5.77-5.67-4.356-3.662.757-4.556 5.932-8.713 4.083-3.338-.285-6.838-1.477-9.705.88-3.724 1.03-4.952-4.48-9.234-2.556-4.356 1.02-2.693-6.44-7.012-6.527-1.44-1.13-2.63-.21-4.133.2z" class="state-svg"/></svg>