<svg xmlns="http://www.w3.org/2000/svg" width="159619.022" height="160614.319" viewBox="0 0 149.64283 150.57593"><path d="M.012 148.243c5.983.78 11.977 1.55 17.96 2.333.533-4.133 1.055-8.28 1.588-12.412 12.04 1.105 24.08 2.31 36.105 3.45-1.117-3.896-1.725-7.42 3.525-5.584 22.7 1.588 45.277 4.704 68.028 5.572 3.04-.744 9.507 2.644 9.916-1.253 3.798-28.46 4.655-57.206 6.938-85.814.67-9.67 1.726-19.312 2.507-28.968 3.984.806 1.452-5.97 2.57-8.515 2.22-5.436-3.563-4.182-7.113-4.778C101.887 8.18 61.722 4.095 21.57 0 14.386 49.41 7.2 98.833 0 148.243z" class="state-svg"/></svg>