<svg xmlns="http://www.w3.org/2000/svg" width="166267.306" height="127138.462" viewBox="0 0 155.8756 119.1923"><path d="M97.79 2.383c-3.35 1.39-6.764 2.085-10.34 1.775-6.29.894-12.62 3.388-16.034 9.073-3.525 4.258-6.07 9.297-8.912 13.902-2.048 2.93-7.223 4.63-6.888 8.49-.21 4.417 7.16.905 5.498 5.435-3.34 2.855.993 5.25.695 8.18.62 4.306-5.288 2.47-6.653 4.964-2.01 3.364-4.158 8.217-8.962 7.51-3.773-.534-6.64 2.544-9.904 3.264-3.102-.93-5.832-2.544-9.42-1.626-6.59.26-13.18 2.458-18.902 5.623-.36 2.197.757 7.758 3.935 7.62 1.923 3.08 2.594 6.157-.782 8.342-1.874 2.184-2.233 5.275-5.163 6.578C3.562 92.925 2.63 95.866 0 97.145c.41 3.81-.273 9.048 5.064 6.354 27.48-5.288 54.933-10.774 82.2-17.054 1.217 4.778 7.038 1.638 7.994 4.965.794 3.637 1.688 9.185 6.615 8.54 3.897 2.358 8.564 4.567 13.268 5.237 3.365.584 8.913 1.775 7.994 6.28-.41 2.445-2.01 9.383 2.445 7.36 6.577-2.047 13.602-3.524 18.69-8.5 4.01-3.092 8.39-5.76 11.606-9.757-3.71-3.028-5.772.57-8.453 3.004-3.61 1.936-7.46 4.356-11.37 5.36-3.226-.78-5.993-1.066-7.67 2.57-1.277 2.533-6.03 3.7-4.94-.186 5.29-2.32-2.692-4.927-.408-7.707 1.477-3.884.695-8.526.52-12.67-1.774-9.16-4.58-18.32-3.15-27.753-.1-5.536 1.922-11.133-.634-16.396-1.514-3.176-.583-8.476-5.026-9.11-3.71-.818.93-5.348-1.95-7.694-2.11-3.016-3.933-6.094-1.91-9.693.472-7.162-4.754-13.12-4.406-20.293-2.88.807-5.77 1.6-8.65 2.408z" class="state-svg"/></svg>