<svg xmlns="http://www.w3.org/2000/svg" width="99026.083" height="107208.015" viewBox="0 0 92.836951 100.50751"><path d="M80.215 4.456c-6.02 2.556-9.16 8.564-14.236 12.374-5.064 1.067-10.04 2.172-14.547 4.816-4.232 1.998-5.448-5.077-9.52-3.265-3.884 1.677-6.813-1.364-10.065-2.99C21.174 16.817 10.562 18.667 0 20.826c1.8 22.13 5.114 44.098 7.286 66.19-.857 4.742 5.04 2.806 7.732 1.838 3.4.51 5.995 2.68 6.8 6.13 1.565 3.08 7.225-1.08 8.64 3.153 2.718 1.9 5.535-2.89 8.725-.72 3.128.05 6.975 1.875 8.49-1.936 1.85-.68 6.664-4.777 6.714-.88.472 3.14 4.74 4.43 7.162 5.834 4.38.78 2.878-4.853 5.224-6.84-.137-3.4.26-7.11 1.725-10.09 3.14-3.487 4.715 5.623 6.18.484-2.507-2.817-1.23-6.714 1.154-9.197 1.328-5.038 5.027-2.99 8.068-5.447 3.636-3.922 8.18-8.155 7.41-13.988.545-5.846 1.464-12.1-.66-17.66 1.826-3.08 3.204-5.326 1.193-9.1C89.313 19.25 88.668 9.52 86.967 0c-2.246 1.49-4.505 2.98-6.752 4.456z" class="state-svg"/></svg>