<svg xmlns="http://www.w3.org/2000/svg" style="display: none;"> <symbol id="icon-ak" viewBox="0 0 256.98251 191.3079"><g> <path d="M124.58 3.297c-2.817.682-6.044.397-8.49-.422-2.99 1.514-6.986 5.002-10.238 2.333-3.848 1.154-4.356 4.766-6.48 7.41-2.258 3.128-5.224 4.53-9.072 3.897-3.102-1.167-6.813-1.427-9.308 1.216 2.52 5.388 7.93 10.092 7.223 16.422-2.296 3.65 7.832 3.71 3.327 6.23.186 3.476 3.81 7.05 3.61 9.78-2.915 2.743-6.502-.47-9.568-1.315-4.02-.794-3.388-4.158-1.018-6.48-1.948-1.873-9.122-2.245-8.08 1.39-2.494.05-4.728-2.06-7.782-.954-4.617-.547-7.41.806-3.65 5.026 4.57 1.8 1.317 5.857 1.454 9.395.943 3.264 4.542 6.07 8.278 5.175 3.972-.074 7.286 4.456 11.43 2.048 2.682-1.613 6.616-1.23 5.946 2.346-3.14 2.57-1.688 7.608-3.45 10.86-2.433 2.333-5.623 1.973-8.18.2-1.886 1.7-5.833 4.566-7.794 2.754.894-4.605-5.92-4.506-6.84-.757-1.5 4.928-7.78 5.536-10.312 9.47-.87 3.004-1.924 8.316 2.16 7.82 1.563 1.378-1.49 5.957-3.44 6.85 2.012 2.72 3.29 5.698 3.377 9.11 2.122 1.925 7.88 2.46 9.31-.197 3.04-1.18 2.22 5.088 2.58 7.41 3.066 3.66-4.99 1.588-1.998 5.66-1.055 3.635-2.184 6.23 2.482 3.375 3.426-.584 6.343-.857 7.025 2.594 3.215-4.853 2.805 3.45 4.034 5.783.732-.93 1.613-7.062 4.89-3.797-.21 5.61 6.615-.56 7.174-.05.67 3.624-2.023 5.262-3.55 7.956-1.874 2.78-2.57 6.987-5.225 8.9-4.803-.523-4.183 5.087-6.826 6.23-3.29-.894-7.113.88-10.477 1.75-1.675 2.99-4.48 5.212-7.173 2.246-3.178.062-6.988.844-9.47 2.892-3.078 3.016-7.844 3.86-11.99 2.842-3.45-2.37-8.824 4.232-3.86 2.867 3.103-2.37 5.784.795 8.998.783 2.743-1.428 5.176-3.413 8.49-2.557 2.88-4.158 6.33-.397 9.83-1.44 2.867-.484 8.7-4.853 6.528.82.112-3.612 4.245-3.39 6.876-2.532 5.225 1.19.36-3.922 2.582-4.258 4.307-2.544 9.333-2.99 13.9-4.617 6.802-3.96 14.423-7.075 20.12-12.536 5.3-3.686-3.45-4.32-1.502-7.844 2.085-3.016 5.684-4.73 9.27-5.585 1.863-3.81 4.382-7.584 7.3-10.575 3.09-1.638 5.994-4.208 9.717-2.88 3.313.882 4.64 6.603-.646 4.543-1.576-2.333-6.9-.112-6.516 2.99-.26 3.03-3.177 5.24-3.798 8.267 5.945 1.055.298 4.394-1.713 4.717 2.073 2.37 7.025.744 9.396-1.415 1.55-2.296 4.257-4.717 6.714-5.238 2.247 3.475 6.33-1.44 7.124 3.376.883 3.45 7.473-6.032 4.147-3.848-3.76 3.86-4.692 3.55-2.408-1.54 1.774-6.018-2.185 7.66-1.8 1.007-1.006-3.96-1.155-7.485 3.785-7.945 3.35-1.067 6.665-1.08 7.186 3.128.522 4.32 4.717 3.525 7.386 5.908 2.99 2.732 5.908 2.42 9.68 2.21 5.387-.583 9.942 5.014 15.242 3.935 3.09-.522 6.33-6.454 5.325-.286-2.805 3.512-.025 5.113 3.103 6.714 3.884 1.675 7.285 3.897 9.854 7.26 1.626 3.75 7.51.348 7.67 3.017-4.753 1.552-1.526 4.394.26 6.79 2.248 2.42.41 7.1 4.52 7.223 1.414 1.59 4.33 9.234 4.976 6.677-.434-2.88-.87-9.755 1.998-4.666.46 1.762 1.29 10.798 2.57 5.883 1.327-6.057 3.946.223 2.755 3.636 4.132 2.098-1.528 4.133.855 6.057.857-4.02 1.626-.447 2.68 1.936 1.304 1.24 1.912 4.89 3.886 4.617-2.084-2.134-3.648-7.732.497-3.723 3.004 3.463 5.027 2.63 3.4-2.06-3.288-3.302.35-6.156 3.203-2.843 3.873-.062 3.525 6.467 6.553 5.623 4.11-3.935 1.862-9.768.857-14.522-4.096-1.923-8.738-3.152-12.685-5.04-1.86-6.614-7.807-10.784-10.425-17.09-.546-4.132-5.846-3.25-7.137-6.49-2.88-2.135-3.35-5.462-5.66-7.882-2.047-1.9-6.478 1.18-6.838 3.65.732 3.834-4.01 3.772-6.28 5.857.062-5.3-5.337-7.633-8.316-11.294-1.652-2.47-1.64-6.654-5.524-2.905-2.942.298-7.92-.385-6.628-4.493.124-34.38.248-68.76.385-103.127-3.413-2.333-7.298-5.176-11.357-5.46-3.127 2.134-6.292 1.352-9.172-.77-3.376.285-6.354-.807-9.557-3.588-3.822-3.4-10.65.21-13.627-4.53 1.402-4.418-3.997-5.995-6.206-2.594-2.594.323-.807-5.35-4.518-6.12-3.19-3.536-4.977-1.587-7.273 1.503zM35.89 57.994c-.833 3.86 5.298 1.626 5.857 5.784.298 4.74 6.665 4.84 2.904-.1-.123-3.996-4.864-2.27-6.28-5.498-.942-2.507-1.116-2.308-2.48-.198zM14.59 86.74c3.19 5.038 1.8 1.7.162-1.59-.447.013 0 1.242-.162 1.59zm27.107 18.38c1.576 2.222 6.193 6.926 7.72 2.52 2.805-4.096-4.06-3.587-6.49-4.567-2.272-1.117-1.093.67-1.23 2.048zm113.838 23.31c.075 3.983 3.488-2.458 0 0zm-39.06 18.232c-3.97 3.61-8.985 5.796-13.105 9.16.273 3.413 1.228 9.482 5.796 6.39 3.103-1.786 6.18-3.598 9.246-5.423-2.283-4.11-1.005-3.91-5.647-4.32-5.15.112 1.316-4.63 3.277-2.01 4.642-1.29 4.902-2.93 1.862-4.543.868-1.34-1.242.757-1.44.732zM59.93 169.846c1.762 3.513 4.38-2.47 0 0zm-44.41.422c.66 3.054-5.013 6.007 1.305 4.456 5.212.583 4.294-5.4.012-4.766-.434.1-.87.2-1.316.298zm77.188.857c1.95 3.61 1.626-2.52 0 0zM63.504 172.8c4.01.608 1.23-3.785 0 0zm-60.816.112c-6.007 3.177-.546 2.246 2.842.72 3.587.198 6.268-.596 1.043-1.812-1.29.36-2.582.72-3.885 1.092zm8.998 1.713c1.59.26-2.768-.733 0 0z"/> </g></symbol> <symbol id="icon-al" viewBox="0 0 79.200559 132.17669"><g> <path d="M1.193 4.394c-.248 17.835.15 35.683-.67 53.518C.473 69.095-.57 80.377.436 91.51c1.923 12.412 3.65 24.835 4.778 37.346 3.81 1.353 4.58-2.383 5.46-5.188-.37-4.828 5.3-3.748 6.07-.05.894 2.557 5.064 6.54.956 8.254-.186 1.142 7.658-1.117 7.298-3.587-.546-3.736.794-8.514-3.562-10.165-2.842-1.092-3.76-6.938-.397-7.037 17.474-2.31 35.01-4.456 52.56-5.958 3.352 1.328 8.39-.31 3.687-3.103-2.234-2.482 1.18-6.243-.335-9.494-.384-3.848-3.264-7.323-1.626-11.357.013-3.623 3.09-6.652 2.396-10.3-4.37-.56-1.663-6.343-5.287-8.316-4.32-7.224-4.17-16.185-7.398-23.843-2.507-10.04-4.145-20.366-8.998-29.637-.634-2.967-1.34-6.02-.895-9.073C37.16 1.465 19.177 2.917 1.193 4.38z"/> </g></symbol> <symbol id="icon-ar" viewBox="0 0 103.4193 91.635318"><g> <path d="M.012 3.134C2.16 9.214 1.874 15.57 1.912 21.9c2.667 15.154 1.4 30.582 1.823 45.885L3.81 81.6c2.557 3.97 6.268-1.8 9.545 1.823 1.9 2.185-1.093 9.36 3.686 8.055l65.583-1.34c2.445-3.227.51-7.323-1.59-10.202 4.097-2-1.972-4.915 1.044-8.105.93-3.437.77-7.868 4.692-9.543-2.335-3.81 2.58-6.504 3.958-9.78 4.68-.472 1.96-4.096 3.276-6.728 1.39-3.315 3.178-6.554 6.02-8.167 1.49-5.114.26-3.314-1.9-6.963-3.425-4.12 2.42-4.915 2.93-8.49-.062-2.408 4.108-8.303 1.514-8.377-3.29 1.055-6.627-.224-9.954-.41-.11-4.195 5.46-4.816 5.238-9.06.72-4.804-4.443-4.568-7.87-4.047L0 3.134z"/> </g></symbol> <symbol id="icon-as" viewBox="0 0 57.954566 26.718797"><g> <path d="M17.832 0c.425.202 1.042 1.276 1.332 1.828.49.933-.475 1.118.74 1.406.603.144 1.287-.8 1.48-.984.47-.447.775-.85 1.036.14.105.403 1.338 1.8 1.775 2.11.58.414 1.063.448 1.628.984l1.332 1.266c.535.508.817.71 1.184 1.406.34.65.83 1.07 1.183 1.407.79.75-1.937.42-3.108.42-.307.002.532 1.263.592 1.548.18.85.405.8 1.184.986 1.113.264 1.185-.267 1.185-1.125 0-.57.89.852 1.036 1.407.203.77.693 1.102 1.332 1.406.63.3 1.326.49 1.776.703.786.374.768.318.592.985-.108.41.11 1.27 0 1.688-.235.894.955.155.444 1.125-.22.42-1.518.722-1.776.844-.74.35-1.404.245-2.07.563-.8.38-.652.647-.15 1.125.283.268 1.833-.084 2.072-.14.704-.168 1.45-.142 2.22-.142.993 0 1.553-.035 2.368-.422.612-.29.444-.854.444-1.686 0-.917-.26-1.345.592-1.547 1.036-.246 1.25-.058 1.923.422.276.195 2.167.383 2.368.42.798.152 1.25.486 1.628.845.538.51 1.254.91 1.628 1.265.554.526 1.074.677 1.776.844.902.214 1.274-.367 1.628-.703.358-.34.148-1.48.148-1.968 0-.437 2.71.654 2.812.703.792.377 1.283.236 1.776.703.69.657.228 1.106 1.33.844.842-.2 1.354.25 2.073.422.778.185.592.676.592 1.547v2.11c0 .994-.594.81-1.332.985-.61.144-1.45-.254-1.776-.563-.634-.603-.803-.383-1.035-1.266-.218-.826-.31-.92-1.036-1.265-.35-.165-.997.704-1.776.704-.84 0-1.162.482-1.628.703-.653.31-1.163.422-2.072.422-.33 0-.814-.827-1.48-.985-.598-.143-1.73 0-1.923 0-.61 0 .706 1.53.74 1.546.82.39 1.83-.075.148.564-.656.25-1.567-.14-2.22-.14-1.078 0-1.184-.153-1.184-1.126 0-.958-.55-.844-1.48-.844-.574 0-.328 1.274-.886 1.407-.92.22-.837-.618-1.184.704-.137.518-1.23-.044-1.628-.422-.437-.415-1.407.158-.296.422.95.226-.47 1.125-1.036 1.125-.988 0-.834-.636-1.332-1.267-.494-.626-1.224-.155-1.48-1.125-.13-.49-1.143-.613-1.627-.844-.736-.35-1.294-.685-1.923-.984-.92-.437-2.05-.28-3.108-.28-.552 0 .295-1.024.295-1.548v-2.11c0-1.144-.157-.88-1.184-1.124-.554-.132-.975.562-1.774.562-.975 0-1.184-.442-1.184-1.266 0-.9-.816-.387-1.48-.703-.815-.386-1.48-.565-1.48.423 0 .745-.823.828-1.48.985-.96.228-.978-.676-1.627-.985-.732-.347-1.517-.228-2.22-.562-.192-.09-.597 1.02-1.036 1.126-.76.18-1.804-.112-2.517-.282-.857-.203-.423-.843-1.48-.843-.804 0-1.492-.216-1.923-.42-.4-.192.664-.845-1.036-.845-1.086 0-1.24-.108-1.628-.844-.44-.833-.087-1.11-1.332-1.405-.374-.09-1.09-.905-1.184-1.266-.157-.598-1.98-.514-.59-.844.745-.178 1.387-.225 2.218-.422.716-.17 1.6-.48 2.072-.703.488-.23 1.786.074 2.072.14.733.176.684.45 1.627 0 .572-.27.485-1.003 1.035-1.264.524-.25 2.097-.14 2.664-.14.136 0 .25-1.8.295-1.97.11-.413.295-1.262.444-1.828.046-.18 1.42-.788 1.627-.984.41-.39.958-.58 1.48-.703.848-.2 1.187-.144 1.627-.562.455-.432-.09-1.26.148-1.828z"/> </g></symbol> <symbol id="icon-az" viewBox="0 0 144.1711 161.2374"><g> <path d="M37.73 19.76c-3.09-.075-3.785 5.497-7.918 3.648-.92-3.562-4.456-3.5-6.938-5.238-4.642.92-2.942 5.685-3.327 9.197-.645 6.256-.52 12.672-1.104 18.89-2.718 2.892-3.03 7.174-.298 10.166 2.88 3.25.72 9.333 5.076 11.282 1.218 4.455-3.586 5.994-6.713 7.558-4.084 3.053-4.07 8.514-4.816 12.995-1.55 3.028-5.97 2.966-6.105 6.168.583 2.706 7.67.472 4.244 5.635-.807 3.414-3.898 4.283-6.976 4.693-4.468 1.8-3.34 5.833.956 6.752 18.232 9.73 35.397 21.26 53.38 31.425 7.188 3.96 13.99 8.95 21.436 12.263 14.534 3.512 29.477 4.282 44.284 6.044 7.087-48.876 14.174-97.74 21.26-146.616C109.94 9.744 75.698 4.88 41.467 0l-3.723 19.784z"/> </g></symbol> <symbol id="icon-ca" viewBox="0 0 171.28899 287.82844"><g> <path d="M15.575 5.1c-.124 5.015.497 10.19-2.47 14.585-2.308 4.567-3.165 10.227-8.042 12.883C3.586 35.188.73 36.763.607 40.573-1.8 44.905 3.697 47.586 4.22 51.72c1.91 4.206 2.903 8.612 2.022 13.217 0 3.624-3.463 6.218-2.78 10.103.062 3.686-2.78 7.285.05 10.6 3.2 6.205 7.918 12.324 8.327 19.473-.67 3.438-1.23 6.665 2.246 8.9 1.986 2.42 5.573 4.54 3.463 8.017-2.15 4.803-1.416 9.978-1.354 15.092 2.085 3.314 3.512 8.39 8.266 8.105 1.837 2.89 1.204 6.007-.273 8.85-3.104 1.898-5.413 3.387-4.544 7.545.335 4.332 5.3 6.628 5.412 11.183 1.812 7.695 5.126 14.794 9.42 21.41.88 3.19 2.68 5.386 3.6 7.955-.3 4.133-2.396 8.055-2.992 12.25-2.06 3.24 1.477 6.852 4.952 6.355 5.002.186 9.023 4.108 13.665 5.014 3.724-.683 5.883 3.6 7.534 6.342 1.91 3.363 2.942 7.447 7.15 8.54 3.114 1.414 7.682.06 8.898 4.28 2.99 3.377-2.966 6.268 1.75 6.417 3.388 2.32 6.9-2.16 9.383-.92 2.644 2.558 5.027 5.214 6.12 8.75 5.336 6.083 1.786 14.61 3.462 21.746 18.282 2.408 36.54 5.858 54.945 6.677 3.45 1.477 7.683-5.498 3.525-5.77-3.885.793-3.512-4.99-1.688-5.785 3.91-1.092 6.107-4.753 5.772-8.737.583-4.94 4.058-9.22 8.96-10.425 4.258-2.532-.41-4.443-.98-7.186-.285-4.53-2.42-8.453-4.493-12.276 2.508-4.543-2.754-4.12-3.92-7.745-28.05-42.324-56.1-84.635-84.163-126.958 7.782-27.85 15.564-55.703 23.346-83.54C71.948 12.795 44.593 6.403 17.226 0c-.56 1.713-1.117 3.413-1.663 5.126zm29.95 229.266c-.336 3.785 9.916 3.798 5.832 2.57-2.023-.436-3.934-3.054-5.833-2.57zm-6.405.47c.41 4.606 7.21.634 1.626-.048-.546.012-1.093.025-1.626.05zm31.848 22.913c-.25 1.96 5.485 7.446 3.922 2.94-.782-1.19-2.545-2.817-3.922-2.94zm-2.408 14.433c-.174 1.924 3.97 4.83 1.638 1.564-.583-.83-2.085-4.766-1.638-1.564z"/> </g></symbol> <symbol id="icon-co" viewBox="0 0 154.2001 121.48341"><g> <path d="M.012 106.7c49.51 5.078 98.684 10.253 148.18 14.783 2-35.323 4.01-70.646 6.008-105.97C107.694 10.34 61.19 5.177 14.683 0 9.68 35.968 5.003 70.733 0 106.7z"/> </g></symbol> <symbol id="icon-ct" viewBox="0 0 35.248568 33.943048"><g> <path d="M25.717 1.043C17.14 2.953 8.577 4.865 0 6.79c2.693 7.694 3.4 15.923 3.028 24.003-3.25 5.337 3.24 2.954 4.928-.26 2.594-2.347 5.2-4.605 7.434-7.3 2.557 1.677 5.933-2.307 9.234-1.81 3.7-.845 7.062-2.78 10.625-4.047C33.82 11.58 32.405 5.796 30.98 0l-5.276 1.043z"/> </g></symbol> <symbol id="icon-da" viewBox="0 0 187 124.6"><g> <path d="M138.4 0c-.7 2.2 1.1 3.9 1 6-1.5.4-.7 2.3-1.7 3-.4 0-.7.1-1 .1-.2-.8-.2-1.8-1.2-2.1-.2-2.4 2.1-4.5 1-7h1.9z"/> <path d="M137.6 9c1.1-.7.2-2.5 1.7-3 2.5 9.7 6 19.1 9.4 28.5.9 2.4 2.6 1.7 4.1 1.7 10.8.1 21.7 0 32.5 0v1.7c-9 6.7-18 13.3-27 19.9-1.9 1.4-.7 3-.2 4.4 3.4 10.5 6.9 21 9.6 32.1-2.8-2.1-5.6-4.3-8.3-6.4 0-.7 0-1.4.1-2.2.8.1 1.8.2 1.7-1-.1-1-.8-1.4-1.7-.9 1-2-.6-3.1-1.5-4.3-5.5-7.7-11-15.3-16.4-23-1-1.4-2.8-2.5-2-4.7 13-4 25.9-8 38.9-12.1.7-.1 1-.4.3-1l-25.4.3c-4.8 0-13.2 6.7-14.2 11.5-.1.4.4.9.6 1.3-2.6.3-3-1.7-3.6-3.5.2-.3.5-.5.7-.8 1.6-1.6 1.1-3.7 1.1-5.6-.3-10.8-.4-21.8-.4-32.9z"/> <path d="M159.4 85.9c0 .7 0 1.4-.1 2.2-6.7-3.7-12.4-8.8-18.6-13.2-2.1-1.5-3.4-1.6-5.5 0-9 6.8-18.1 13.4-28.2 20.8 3.7-11.7 6.9-22.3 10.5-32.8 1-3 .3-4.4-2.1-6-8.9-6.2-17.7-12.6-26.3-20.2h28.6c8.1 0 8.1 0 10.5-7.4.2-.8.6-1.5 1-2.2.7 0 1.4 0 2.2.1-2.6 12.9-2.6 12.9-15.2 12.7-2.3 0-4.6-.3-7-.3-3.6-.1-7.2 0-10.9 0v.9l36.9 11.4c-2.8 2.5-5.5 3.5-8 4.7-1.9.9-4.4 1-5.2 3.4-2.7 8-5.4 16-8.1 23.9.4.2.7.4 1.1.6 7.1-10 14.3-20 21.4-30 1 2.3 1 4.2 1.1 6.1.1 2.8-1.3 6.6.6 8.2 6.5 5.7 13.3 11.2 20.9 15.6.1.1.3-.1.5-.2-.1.4-.1 1.1-.1 1.7z"/> <path d="M95.3 47.9c-15.6 3.4-30.6 6.6-45.5 9.9l-36.6 7.8c-1.4.3-3.1 1.2-3.9-.8C8.1 61.9 6 59.3 6 56c0-1 1.7-.7 2.6-.8 26.2-3.6 52.4-7.1 78.6-10.8 3.3-.5 5.4.8 8.1 3.5zM21.4 83.4c-3.1-1.2-4.7-4.5-5.7-7.4-1-2.9 2.6-2.2 4.1-2.6 26.2-7 52.4-13.8 78.6-20.6 1.4-.4 2.9-1.2 4.3 0 .6.5 1.5 1.1 1.6 1.8.2.9-.9 1.2-1.7 1.5C76.1 65 49.7 74 23.3 82.9c-.5.2-1 .3-1.9.5zM83.6 39.7c-26.8 1.9-52.5 3.6-78.2 5.4-5.7.4-4.6-3.9-5.2-7-.8-4.4 2.6-2.8 4.5-2.9 23-.2 46-.2 68.9-.6 4.1 0 6.7 1.7 10 5.1z"/> <path d="M112.2 60c-.7 2.1-2.2 2.7-3.7 3.4-24 11.2-48 22.5-72 33.7-2.7 1.3-9.3-2.5-9.4-5.5-.1-2.1 2.1-1.8 3.3-2.3 18.1-7 36.3-13.9 54.5-20.7 7.3-2.8 14.8-5.1 22.1-8 1.9-.7 3.3-.5 5.2-.6zM110.9 68.9c-.1 3.4-1.5 4.8-3.6 5.9-19.6 11-39.2 22-58.7 33.2-5 2.9-6.1-2-10-3.8 24.5-11.9 48.1-23.5 72.3-35.3zM52.5 113.8c14.7-8.7 29.2-17.2 43.6-25.7l7.8-4.5c.7-.4 1.5-.9 2.2-.2.7.7.1 1.6-.2 2.3-.5 1.6-2 2.2-3.2 3-13.1 8.8-26.4 17.4-39.4 26.4-4.1 3-7.2 3.4-10.8-1.3zM101.5 99c0 2.9-1.5 4.9-3.8 6.6-7.8 5.7-15.6 11.3-23.1 17.3-2.9 2.3-5.2 2.3-8.1-.5 9.6-6.6 19.1-13.2 28.6-19.6 2-1.4 3.7-3.4 6.4-3.8z"/> <path d="M131.4 27c-.7 0-1.4 0-2.2-.1 1.4-6.8 3.5-13.5 6.2-19.9 1 .4 1 1.3 1.2 2.1-1.8 6-3.5 11.9-5.2 17.9z"/> <path d="M185.4 37.9v-1.7c.5.1 1.1.2 1.6.3-.3.8-.8 1.3-1.6 1.4z"/> <path d="M101.4 99l.1-.1v.1"/> <path d="M131.4 27c1.7-6 3.5-11.9 5.2-17.9.3 0 .7-.1 1-.1v33.2c0 1.9.5 4-1.1 5.6-.5-.8-1-1.2-1.8-.5.4.4.7.8 1.1 1.2.6 1.8 1.1 3.7 3.6 3.5h-.1c-.8 2.2 1.1 3.3 2 4.7 5.4 7.7 11 15.3 16.4 23 .9 1.3 2.5 2.4 1.5 4.3-.2.1-.4.2-.5.2-7.5-4.4-14.3-9.9-20.9-15.6-1.9-1.6-.4-5.4-.6-8.2-.1-1.9 0-3.8-1.1-6.1-7.1 10-14.3 20-21.4 30-.4-.2-.7-.4-1.1-.6 2.7-8 5.3-16 8.1-23.9.8-2.4 3.4-2.5 5.2-3.4 2.5-1.3 5.1-2.2 8-4.7L98 40.3v-.9h10.9c2.3 0 4.6.3 7 .3 12.9.2 12.9.2 15.5-12.7z"/> <path d="M139.5 52.1c-.2-.4-.7-.9-.6-1.3 1.1-4.8 9.4-11.5 14.2-11.5l25.4-.3c-.1.3-.2.6-.2 1-13 4-26 8-38.8 12.1-.1-.1 0 0 0 0zM159.4 85.9V84c1-.5 1.6-.1 1.7.9.1 1.2-.8 1.1-1.7 1z"/> <path d="M178.2 39.9c.1-.3.1-.6.2-1 .8.6.6.9-.2 1z"/> <path d="M135.8 48.6c-.4-.4-.7-.8-1.1-1.2.8-.7 1.4-.3 1.8.5l-.7.7z"/> </g></symbol> <symbol id="icon-dc" viewBox="0 0 8.94869 10.637929"><g> <path d="M3.38 10.638l.227-3.242L0 2.648 3.516 0 8.95 5.707l-5.57 4.93z"/> </g></symbol> <symbol id="icon-de" viewBox="0 0 21.42877 34.805511"><g> <path d="M3.705.112C-.912.422-.602 4.48 1.335 7.72c4.157 8.55 4.79 18.096 7.484 27.07 4.28.136 8.45-.61 12.61-1.552-1.49-2.693-.845-7.92-4.122-7.92-3.6-1.488-5.175-4.578-6.08-8.165-1.13-3.86-4.494-6.156-6.803-9.123C2.13 5.77 5.592 1.204 4.102 0l-.41.112z"/> </g></symbol> <symbol id="icon-fl" viewBox="0 0 196.63564 164.82133"><g> <path d="M130.02 1.083c2.1 3.624 1.863 7.596 1.44 11.593-5.113.67-2.667-5.82-6.9-4.953-7.67-.087-15.316 1.403-23.01 1.477-12.524.36-25.283 2.656-37.645.795-3.19-1.95-3.524-7.633-8.067-6.616-11.32-.15-22.564 2.22-33.834 3.164C14.78 7.326 7.582 8.244.37 9.176-1.39 13.21 3.6 14.6 5.41 17.044c.993 2.83-1.936 10.45 2.718 8.813 5.1-1.49 10.03-3.637 15.49-3.376 4.145-1.017 8.23-.905 12.275.56 5.076.992 9.643 3.834 14.16 6.18 2.198 2.408 6.827 2.32 7.41 6.206-.173 4.058 5.363-1.167 8.068.658 3.96-.993 6.505-4.568 9.546-6.827 6.032 2.098.77-3.6 4.058-4.927 3.885-1.03 8.217-1.725 11.605.98 3.772.708 6.738 2.483 8.153 6.194 4.568.025 3.575 5.126 6.802 6.578 3.674.608 3.698 5.61 7.82 5.337 3.61.446 6.763 1.426 7.247 5.522 2.545 2.62 4.866 5.287 3.835 9.197.224 4.566.15 9.096-1.787 13.34.484 4.568 1.7 9.856 4.07 13.38 2.794-4.294.212-4.803-2.158-7.483 2.718-2.185 6.032-.274 9.06.198 1.018 3.91-2.68 6.95-4.32 10.165-4.095 2.743 2.05 5.076 3.39 7.82 3.86 4.145 5.398 9.854 9.345 13.975.968 2.842 3.115 9.27 5.746 3.835 3.153-.298 4.816 4.27 6.554 6.714-.025 2.805 2.395 8.738 4.455 7.993 3.575-.993 7.497.807 10.277 3.215 3.176 4.096 5.684 8.663 5.66 13.988 1.7 3.388 5.646.546 7.21-1.415 4.642.558 9.01-1.552 11.443-5.548-1.253-2.93-.707-5.995-.397-8.9-.05-2.705 5.374-3.958 2.793-8.08-1.218-7.856-.237-16.084-2.322-23.89-3.054-8.602-9.36-15.813-12.908-24.278-1.874-2.992-5.263-4.866-5.734-8.74-1.167-2.828-3.314-6.142-.087-8.327-.485-4.418-6.033-6.727-8.49-10.438-6.678-6.913-10.29-16.06-15.33-24.128-2.667-6.863-5.323-13.74-7.334-20.826-4.257.088-9.06-1.277-12.982-.434l-.422.46-.323.36zm65.67 135.558c-2.358 5.686.894.473.82-2.37-.274.795-.547 1.577-.82 2.37zm-5.82 12.3c3.177-2.444 4.567-8.488 1.29-2.084-.434.695-.856 1.39-1.29 2.085zm-2.793 2.756c1.812-1.514 2.532-2.57.223-.223l-.223.223zm-7.1 5.164c-6.49 4.58 5.002-2.656.41-.236l-.41.236zm-13.305 3.996c-4.232 3.922 7.087-.397 5.09-1.005-2.235-.694-3.178-.88-5.09 1.006zm-5.697 3.922c.1.2.497-.372 0 0z"/> </g></symbol> <symbol id="icon-ga" viewBox="0 0 114.4261 119.71198"><g> <path d="M.092 5.93c-.918 8.762 5.312 15.75 6.566 24.078 1.688 8.154 4.27 16.085 6.243 24.127 1.167 6.057 2.694 12.35 6.864 17.066-1.055 4.345 4.183 3.936 3.215 7.994-2.347 5.523-4.432 11.977-1.044 17.538.062 3.264 1.167 6.702-.47 9.78 3.66 1.167 1.798 4.977 3.81 7.46 1.674 3.313 4.566 5.895 8.476 4.964 15.328-.012 30.644-1.626 45.96-2.383 4.12-.72 8.278-.92 12.46-.732-.967 5.263 3.774 5.15 2.595-.11-1.117-2.657-3.65-7.733.732-8.218 3.97.62 7.967 1.13 11.988 1.266-1.042-4.716-.992-9.395.62-13.987.25-4.393 3.253-8.352 2.744-12.67-.894-3.638 4.046-6.53 3.537-9.993-2.72 1.7-6.566-.88-6.63-3.96-.694-3.87-3.362-7.235-7.483-7.52-1.65-4.84-3.25-10.14-6.193-14.187-3.872-1.328-7.608-3.71-8.9-7.806-2.556-2.892-6.49-3.984-8.265-7.646-2.583-2.73-6.505-3.512-9.508-5.2-.943-3.14-3.984-5.077-4.89-8.28-1.688-3.263-3.687-5.77-7.633-4.678-2.893-1.948-8.876-4.195-6.592-8.65 2.507-2.495 4.667-5.102-.993-3.86C31.567 2.193 15.817 4.054.08 5.93z"/> </g></symbol> <symbol id="icon-gu" viewBox="0 0 53.795207 59.824996"><g> <path d="M38.2 58.994h.24c.81 0 1.59-.277 2.387-.415 1.045-.183 1.51-1.49 2.387-1.87.938-.41 1.21-1.26 1.91-1.87.204-.178.41-.536.478-.624 1.372-1.194-1.432-2.336 1.67-1.66.07.015 2.46-.95 2.866-1.04 1.173-.255 2.44-.22 3.343-.416 1.14-.248-1.145-1.786-1.67-2.7-.496-.862-.24-2.153-.24-3.116 0-1.214-.25-1.916-.477-2.7-.272-.948-.868-1.587-1.432-2.078-.595-.518-1.708-1.046-2.626-1.246-1.223-.266-1.125-1.04-2.865-1.04-.832 0-.946-2.058-1.194-2.49-.727-1.265-2.15-.01-2.627-1.663-.31-1.074-.944-1.03-1.672-1.662-.684-.595-1.713-.953-2.388-1.246-1.154-.503-1.87-1.04-3.342-1.04-.584 0-1.7-1.833-1.91-2.077-.7-.81-1.026-1.308-1.67-1.87-.286-.248-2.256.185-3.105 0-.124-.027 0-2.834 0-3.115 0-.49-1.56-1.258-1.67-1.455-.22-.378.476-2.46.476-3.115 0-1.02-.033-2.19-.24-2.91-.274-.952-.235-2.076-1.432-2.076-1.253 0 .692-1.64.955-1.87.417-.363.332-2.195.477-2.7.39-1.36-.716-1.83-.716-2.908 0-.068-1.925-1.15-2.15-1.246-.684-.298-1.316-1.146-1.91-1.662-.912-.795-1.105-1.17-1.91-1.87-.783-.682-1.893-.62-3.103-.83C13.935.222 13 0 11.7 0c-.732 0-1.693 1.264-2.15 1.662-1.032.897-1.35-.494-1.91 1.454-.053.185-.775 1.657-.955 2.285-.323 1.124-.234 1.853-.477 2.7-.213.74-.93 1.16-1.194 2.08-.305 1.06-.156 2.14-.716 3.114-.575 1-1.672.613-1.672 2.285 0 1.423.648 1.54 1.194 2.492.374.652.757 1.804.955 2.493.2.693 1.05 1.827 1.433 2.493.094.164-.24.846-.24 1.246L0 29.082c1.053 1.832 1.308 1.172 3.104 0 .978-.638 1.77-.654 2.865-.416.9.196.847 2.494.847.53 0-1.447-.317.22.962.625 2.206.698 1.996.57.1-.53-.427-.248 1.997-.93 1.43 1.038-.295 1.032-1.916-.027-1.43 1.662.177.62 3.638-.17 3.82-.208 1.035-.225 1.796 1.246 2.864 1.246 1.038 0 2.338.416 3.58.416.922 0 2.612.464 3.344.623 1.47.32 2.12.398 3.104 1.04.674.44-.418 2.698-.478 2.907-.31 1.077 3.306.01 3.343 0 1.54-.27 1.715 1.4 1.91 2.077.386 1.347.59 1.712 1.91 2.286 1.46.635 1.91 1.608 1.91 2.908 0 1.948.825 2.553 1.193 4.155.28 1.214-.273 1.55.717 2.7 1.044 1.21 1.79 1.662 2.387 2.7.537.934.478 1.72.478 2.908 0 1.095.295 1.197-.717 2.077"/> </g></symbol> <symbol id="icon-hi" viewBox="0 0 139.07717 88.581088"><g> <path d="M13.04 1.89C9.96 6.608 15.805 6.906 18.92 8.57c3.798.2 4.356-5.312 3.3-8.142-3.375-.955-6.217-.236-9.196 1.477zM1.483 6.82c-4.99 6.342 4.517.596.782-.112l-.62.087-.175.025zm49.26 9.892c-.77 2.594 2.37 8.353 5.45 7.695 2.99-1.812 4.63 2.147 8.042.695 1.527-1.837-4.68-3.97-4.592-7.546-1.18-4.716-4.07-3.972-7.397-1.59-.51.25-1.006.498-1.515.746zm24.75 12.45c4.443 1.178 9.817 3.71 13.962.582-1.303-2.023-6.28-.732-8.812-1.067-1.787.012-4.394-2.023-5.15.484zm15.054 5.435c2.892 3.04 4.518 8.477 8.986 9.184 2.93-.857 8.49-.82 9.085-4.258-2.595-3.115-7.162-4.157-11.022-5.324-3.14-1.49-5.1-4.034-7.05.41zm-8.762 1.24c-.36 4.58 6.888 4.94 4.555.684-.334-1.553-4.753-2.16-4.554-.684zM111.15 54.07c.336 3.04 3.948 4.876.585 7.632-.807 3.003-6.876 3.562-3.128 6.863 2.93 1.812 2.495 6.02 3.624 8.862-.892 3.34-1.774 8.415 2.136 10.004 3.475 3.662 5.585-2.395 7.683-4.567 1.575-2.097 4.777-5.09 7.37-3.214 3.774-1.007 7.82-3.005 9.657-6.48-3.463-1.626-6.057-3.96-6.913-7.807-2.98-6.615-11.108-7.77-16.855-11.145-1.602-.646-2.806-2.01-4.146-.137z"/> </g></symbol> <symbol id="icon-ia" viewBox="0 0 127.57882 83.616979"><g> <path d="M2.556 1.66c-4.245-.063-2.68 7.05.894 7.806.67 2.57-.93 6.28-1.75 9.123-2.644 3.5-1.155 6.763 1.29 9.83 1.515 5.385 2.78 10.983 5.027 16.208.745 3.996 1.6 7.918 4.232 11.17.024 4.332 1.576 8.303 2.854 12.3-.05 4.394.037 8.75 2.582 12.523 27.553-1.265 55.156-2.17 82.734-3.263.956 1.775 4.034 8.825 5.424 5.275-1.19-3.103 1.477-5.61 4.43-5.858-1.09-3.252 1.478-5.697 3.104-7.795 1.576-3.625-1.725-4.99-2.99-7.832.855-3.6 2.22-6.578 6.366-6.777 3.574-1.03 8.154-2.245 8.254-6.714 2.184-3.773 4.63-9.94-.323-12.635-3.4-1.314-2.172-6.54-6.466-6.378-.796-2.445-1.056-5.908-5.202-5.225-3.413-.993-5.647-4.307-6.665-7.447-1.688-3.587 2.495-5.858 2.048-9.036-4.74-.496-1.476-8.067-6.242-6.79-33.2.51-66.4 1.007-99.602 1.515z"/> </g></symbol> <symbol id="icon-id" viewBox="0 0 126.38597 204.93814"><g> <path d="M25.307 77.882c.645 3.81 2.817 6.516 6.13 8.415.498 3.748-.756 6.777-3.76 9.073-2.854 3.35-5.436 7.41-7.558 10.96.483 3.636-3.19 4.393-5.25 5.957-2.198 2.867-5.313 5.336-4.88 9.308-.793 3.016 5.822.708 5.078 5.387-6.442 13.863-8.415 29.18-12.573 43.837-.98 3.92-1.514 6.093-2.495 10.027 70.646 15.937 77.274 16.694 116.147 24.09 3.413-21.843 6.826-43.7 10.24-65.544-3.302-1.042-.72-8.092-5.25-6.168-1.54 2.11-2.012 6.143-6.418 4.306-3.86-2.468-8.453-1.662-12.574-.694-3.14-2.184-7.335-2.494-9.544 1.093-2.172-.063-4.083-4.21-3.463-6.654 2.37-4.94-3.538-7.31-6.27-10.264-1.215-7.298-4.318-14.447-3.1-21.956-2.31-.012-5.276 3.34-8.032 4.505-2.743.225-5.61-3.834-5.088-6.59 1.477-6.664 5.05-12.87 7.298-19.36 2.42-3.278 1.39-6.914-2.992-6.976-1.923-4.183-6.106-7.025-6.962-11.828-1.626-3.265-1.763-8.03-6.28-8.39-1.23-2.297-3.948-5.55-2.37-8.354 2.593-3.698-.423-7.074-1.9-10.55-2.644-3.785.682-8.29.83-12.423 1.118-5.4 2.235-10.787 3.34-16.186L42.062 0 25.307 77.882z"/> </g></symbol> <symbol id="icon-il" viewBox="0 0 84.563354 151.53389"><g> <path d="M14.683 3.14c-.36 3.202 5.213 2.27 4.63 6.293 2.568 2.594 7.086 5.225 5.435 9.643-.384 3.774-3.24 6.752-3.822 10.426-2.954 3.364-7.522 3.7-11.555 4.89-1.998 3.066-1.303 6.094 1.59 8.03.78 4.034-1.34 6.293-3.4 9.16 1.75 4.505-2.968 3.55-4.42 6.23C4.48 61.686.52 62.53 0 66.055c.236 4.902 1.65 10.19 4.07 14.372C8.64 85.34 13.23 90.23 19.226 93.42c-.757 3.576-.794 8.317 4.258 7.088 2.544 0 7.67.472 7.77 3.326-.237 5.45-4.47 10.227-4.072 15.552 1.987 4.753 6.616 7.77 10.663 10.45 4.182-.36 6.652 1.577 7.322 5.71 1.254 3.276 4.766 5.87 2.148 9.52.682 2.16 3.202 9.556 5.35 5.026 1.5-3.7 6.713-5.933 10.015-3.053 3.847 3.052 7.372.582 3.885-3.477-1.217-4.207 3.24-6.156 6.665-6.615 1.253-1.924-1.986-5.535 1.737-7.41 2.234-4.927-.695-11.654 4.12-15.5 1.776-3.688 4.01-7.41 5.462-11.135.16-3.723-.87-7.074-2.904-10.127-.56-5.697 1.626-11.282.024-16.942-1.44-18.617-2.755-37.296-4.555-55.864-1.266-3.847-1.998-8.018-5.014-10.885-2.817-2.27-.633-7.36-2.445-9.085-18.32 1.03-36.64 2.073-54.958 3.103z"/> </g></symbol> <symbol id="icon-in" viewBox="0 0 62.8253 110.40186"><g> <path d="M47.903.56c-11.32 1.153-22.775 2.456-34.02 3.325-3.227.484-5.225 6.305-8.55 3.698C.577 4.06 2.054 9.855 2.34 13.107c1.366 18.38 3.39 36.75 4.27 55.13-.943 4.58-1.725 9.794 1.688 13.542.124 3.71 1.738 7.794-1.415 10.735-2.27 3.388-3.165 7.56-6.23 10.45.11 2.582-2.507 10.178 2.023 6.405 4.33-.745 8.998-1.9 13.268-1.663 2.93 5.064 3.313-.77 6.528-1.6 2.52-3.253 5.933 2.543 6.628 1.29-1.564-4.233 3.785-4.68 6.33-6.48 1.352.783 7.51 4.196 6.578-.794-.57-3.065 2.507-5.845 4.53-7.868 3.86-1.726 5.374-4.84 5.163-8.974 2.272-1.24 6.12-1.253 8.652-3.065 5.25-1.278.322-4.32 1.514-7.347-1.03-15.59-3.475-31.19-5.064-46.78C55.747 17.414 55.015 8.702 54.146 0c-2.085.2-4.158.385-6.243.583z"/> </g></symbol> <symbol id="icon-ks" viewBox="0 0 157.43946 83.570606"><g> <path d="M0 78.974c31.103 1.452 62.194 3.364 93.322 4.158 21.372.087 42.745.782 64.117.223-.31-15.75.285-31.55-.584-47.262-.757-3.513-.21-7.782-1.713-10.848-3.773-2.52-7.47-6.442-8.29-10.885-.534-3.115 5.336-5.697 1.6-8.24-3.748.67-5.026-4.147-8.898-3.017C94.613 2.085 49.658 1.453 4.73 0L0 78.974z"/> </g></symbol> <symbol id="icon-ky" viewBox="0 0 156.65551 78.387337"><g> <path d="M94.325.742C90.9-.214 86.878 2.12 90.13 5.432c1.887 3.91-3.872 5.115-6.442 6.542-3.648.658-5.845 1.6-5.336 5.982-1.428 3.302-6.58 4.022-7.844 7.844-2.68 1.738.918 7.72-3.525 7.348-3.798.757-5.412-3.463-8.8.136-2.805.633-1.365 8.664-4.778 3.848-2.818-3.153-6.914.174-7.646 3.488-2.372 1.328-4.22-4.63-7.473-2.37-4.12.756-9.283.582-12.312 3.61.1 3.29-4.207 4.692-2.11 7.51 2.905 3.3-2.768 3.326-4.79 4.095-4.43 1.676-.845 5.4-.944 8.34.41 4.283-4.666 1.788-6.813.895-3.103-2.843-7.77-.472-8.85 3.14 3.55 2.83-.05 5.908.51 9.507-4.307 2.532-3.96 3.388 1.166 2.917 7.25.012 14.447-1.18 21.72-.944-.868-4.642 1.217-6.193 5.66-5.2 30.197-3.736 60.593-5.833 90.802-9.222 5.337-.87 10.178-2.954 14.584-6.057 4.095-.992 5.013-3.362 6.354-6.64 4.294-5.075 8.85-10.002 13.392-14.892-4.06-1.54-3.76-6.84-7.708-8.626-3.227-1.552-2.57-5.784-6.404-6.653-2.954-3.278.993-9.037-3.75-11.01-3.747-.012-2.94-5.77-5.67-4.356-3.662.757-4.556 5.932-8.713 4.083-3.338-.285-6.838-1.477-9.705.88-3.724 1.03-4.952-4.48-9.234-2.556-4.356 1.02-2.693-6.44-7.012-6.527-1.44-1.13-2.63-.21-4.133.2z"/> </g></symbol> <symbol id="icon-la" viewBox="0 0 126.03846 107.08299"><g> <path d="M0 1.45c.124 9.344-.298 19.013 2.073 28.06 2.58 3.09 3.5 6.84 3.91 10.762 2.32 3.45 6.54 6.143 5.696 10.823 1.997 2.705-.26 7.062.098 10.4.522 3.277-5.41 6.07-2.494 8.837 1.328 2.805-1.142 6.59-.658 9.867.472 3.996-2.942 7.074-1.924 11.083 6.43-2.98 13.628-1.068 20.442-1.353 7.1 2.11 14.348 6.044 21.794 5.287 3.637-2.792 7.373.447 11.146 1.155 1.34-4.22-5.238-1.006-7.2-2.73-2.37-.448-3.586-2.856-1.45-4.22 2.58-1.366 5.063-1.354 7.024.05 2.668-1.726 6.95-.3 7.77 2.953-.41 4.493 4.244 2.11 6.553 3.91 4.754 1.86-1.75 5.05 1.03 6.665 3.576 1.204 7.113 3.65 10.7 4.083 4.356-.062 3.487-5.622 8.03-5.176 2.27-3.6 5.51-.31 5.45 2.867 1.897 2.036 4.963-4.567 2.456-4.542.273-4.183 2.693-3.984 5.35-6.715 1.973 1.18 1.13 3.5 1.75 5.163 4.132.485 9.233 1.353 11.592 5.04 3.462.1 6.416 1.365 6.9-3.178-3.326-.335-5.15-4.815-9.122-3.96-2.867.076-7.82-2.01-7.633-4.678 2.01-4.493 2.768-2.16 2.52-5.436 3.574 1.352 7.062-2.818 3.996-5.548.57-5.734-4.63-.187-4.146 2.718-1.688 1.502-7.882-1.192-5.71-4.06 2.123-2.282 5.213-5.584 2.718-8.625-.16-4.046-3.338-6.466-5.548-9.16.646-3.35 2.805-9.122-2.93-6.776-12.944 1.59-26.025.856-39.033 1.39-1.997-4.617-.023-9.63.2-14.385 3.3-6.032 6.777-11.977 10.24-17.922-2.533-3.5 4.368-5.523-.92-8.043-.657-2.668-1.6-5.77-2.88-8.477C67.693 3.733 68.91-1.48 63.3.394 42.198.742 21.098 1.102 0 1.45z"/> </g></symbol> <symbol id="icon-ma" viewBox="0 0 73.301232 38.411376"><g> <path d="M41.335 1.564c-1.29 3.847-4.977 4.344-8.428 5.126C22.21 9.57 11.597 12.4.687 14.286.55 20.206-.765 26.188.65 32.046c13.23-3.227 26.734-5.324 39.717-9.234 4.43 3.488 7.46 8.353 10.276 13.144 2.644-.968.013-6.392 4.68-6.677 3.636-4.072 2.27 5.93 3.934 3.25 2.644-3.835 7.57-4.84 11.68-6.466-.137-4.232-2.744-10.612-7.92-9.346 2.036-.124 6.07 1.08 6.095 4.74 1.055 2.782-3.165 4.606-5.4 5.264-4.182.633-6.193-2.185-7.843-5.548-1.714-2.544-4.445-8.142-7.82-4.468-2.346-2.135-3.885-5.014-1.65-7.82C49.252 5.983 47.924 1.193 44.81 0c-1.154.51-2.31 1.018-3.463 1.54zm30.606 35.1c-1.984 3.425 3.787-3.03.1-.398l-.1.397zm-14 1.588c1.975.968 7.56-2.805 2.21-2.52-.732.845-1.476 1.676-2.21 2.52z"/> </g></symbol> <symbol id="icon-md" viewBox="0 0 96.590517 47.792339"><g> <path d="M64.267 1.57C42.782 5.52 21.41 10.05 0 14.33c.918 3.75 1.626 7.546 2.21 11.37 2.655-2.36 4.083-6.64 8.178-6.63 2.657-2.295 3.314-6.515 7.162-4.405 4.294.224 6.74-6.64 11.183-4.778 3.264 2.023 7.024 3.463 9.11 6.938 5.2.136 4.567 4.63 7.124 6.156 3.388 1.38 6.658-1.012 8.346-3.135 1.893 2.138 5.204 4.322 6.264 6.274.544 1-1.46 1.866-4.734 5.11.112 3.685-4.763 5.764-2.23 9.55 3.847 1.625 7.943 1.488 11.952 1.737 2.693 1.96 8.477 1.278 4.703-2.607.51-3.4-3.822-4.158-4.12-7.496-2.11-3.314-1.763-6.79-.447-10.327 2.086-3.003-3.51-4.74-.495-6.714 1.55-1.9.533-5.163 3.698-5.834 2.01-3.75 6.33-1.8 2.917 1.265-3.153 3.7-1.005 5.586.707 7.82 1.75 4.406-.844 6.292-1.9 9.072-.272-1.005 4.494-1.253 3.998 2.222-3.91 2.035-1.8 7.595 1.353 9.072 3.698 1.23 6.925-2.234 8.663 2.656 1.863 4.654 6.107 1.005 9.198-.025 3.4-1.502 4.307-6.12 3.45-9.557-1.402-1.96-5.982 1.142-8.85.497-4.79 1.563-6.08-1.552-6.552-5.76C78.8 19.394 78.23 11.5 74.48 4.588 74.43-.775 71.12-.626 66.95.975c-.907.2-1.8.385-2.706.584zm13.578 40.45c1.638 1.23.732 6.17 2.557 5.747-.596-1.626-.447-6.194-2.557-5.747z"/> </g></symbol> <symbol id="icon-me" viewBox="0 0 76.768549 122.55949"><g> <path d="M31.335 1.986c-2.68 1.626-4.58 3.4-6.007 5.82-2.843.745-6.194-1.7-6.057-4.89-3.685-1.017-4.132 4.568-5.423 7.088-1.353 5.324-4.06 10.413-4.927 15.75-.075 3.773 1.24 8.23-1.676 11.282.1 3.624-.93 7.67 2.482 10.128-1.7 7.074-7.732 12.858-6.714 20.553-5.3-2.743-2.16 3.066-1.353 5.87 4.355 13.752 8.923 27.504 12.72 41.393.26 3.736 7.212 1.675 5.623 7.074 3.6 2.483 2.557-4.865 3.302-7.285-1.254-4.085 3.35-5.748.82-9.46 1.165-1.302 3.623-7.32 5.72-4.293 2.52 1.278 6.554-2.346 8.366-3.96-1.216-4.99 5.226-2.17 5.87-6.602-1.376-3.24.92-6.764-.706-9.234-3.004-1.973 4.38-5.746 4.108-.967 2.818.595 2.67 3.475 4.543 4.877 2.408-3.5-2.67-4.73.434-7.484 3.015-1.005 3.847-4.915 7.446-4.108-.21 1.812 1.278 4.145 2.805 1.713 3.65-3.6 6.505-8.787 11.63-10.35 1.453-3.24 4.146-7.125.882-10.228-.683-2.035-4.568-6.007-5.15-3.202-.932 3.227-5.785-.806-6.107-2.755.124-3.475.36-8.9-4.717-7.21-4.915 1.687-4.518-3.774-5.82-6.964-3.054-10.114-6.12-20.23-9.185-30.345C40.693 2.645 37.156.57 33.308 0l-1.973 1.973zm25.406 75.71c-3.487 2.11 2.322 6.404 1.404 1.514 1.836-1.117.16-2.98-1.403-1.514zM47.05 87.39c3.922 8.278 3.264-4.457 0 0z"/> </g></symbol> <symbol id="icon-mi" viewBox="0 0 162.20547 170.76935"><g> <path d="M161.808 127.218l-4.01-10.24-2.816-11.232-3.004-4.01-3.214-2.208-1.998 1.402-4.816 2.21-2.408 6.217-3.413 4.618-1.404.794-1.812-.795s-3.214-1.813-3.003-2.607c.2-.807.597-6.23.597-6.23l4.22-1.602.992-4.207.806-3.216 3.016-2.01-.41-12.437-1.998-2.805-1.613-1.005-1.005-2.606 1.006-1.005 2.01.398.2-2-3.004-2.816-1.613-3.202h-3.202l-5.622-1.812-6.826-4.208h-3.413l-.795.795-1.204-.596-3.81-2.818-3.61 2.21-3.613 2.817.397 4.406 1.204.41 2.606.594.61 1.006-3.216 1.005-3.215.397-1.8 2.21-.396 2.606.397 2.01.397 6.814-4.405 2.607-.807-.2v-5.213l1.6-3.003.808-3.016-1.005-1.005-2.407 1.005-1.204 5.213-3.414 1.403-2.21 2.408-.198 1.205.807 1.005-.807 3.215-2.805.596v1.415l1.005 3.004-1.402 7.62-2.01 5.026.806 5.81.596 1.414-1.006 3.003-.397 1.006-.397 3.412 4.406 7.422 3.612 8.018 1.812 6.02-1.006 5.82-1.203 7.422-3.017 6.43-.398 3.413-4.046 3.822 5.473-.2 26.585-2.804 9.036-1.23.11 2.06 8.516-1.5 12.77-1.862 4.792-.57.174-.733.198-1.8 2.607-4.616 2.483-2.16-.273-6.267 1.973-1.986 1.353-.42.286-4.42 1.9-3.76 1.302.757.21.794.994.2 2.407-1.204-.397-11.828zM17.538 9.085l2.27-2.557 2.694-.992 6.665-4.83L32.01 0l.57.57-6.392 6.38-4.108 2.42-2.557 1.13-1.986-1.415zm106.95 39.878l.806 3.103 4.01.2 1.612-1.503s-.1-1.8-.51-1.998c-.396-.21-1.997-2.31-1.997-2.31l-2.72.3-1.997.198-.41 1.402 1.204.608zM0 45.265l.894-.72 3.413-1.006 4.406-2.806V39.53l.807-.806 7.422-1.204 3.016-2.408 5.41-2.606.2-1.6 2.407-3.613 2.21-1.006 1.6-2.21 2.818-2.804 5.412-3.003 5.82-.608 1.403 1.402-.397 1.204-4.616 1.204-1.8 3.81-2.817 1.005-.596 3.016-3.015 4.01-.397 3.214 1.005.596 1.204-1.403 4.406-3.612 1.614 1.602h2.805l4.01 1.203 1.81 1.403 1.8 3.823 3.413 3.4 4.816-.2 1.813-1.203 1.998 1.613 2.012.596 1.6-1.005h1.404l2.01-1.203 5.015-4.406 4.22-1.414 8.23-.397 5.61-2.41 3.214-1.6 1.8.198v7.025l.608.398 3.61 1.006 2.41-.608 7.62-2 1.402-1.4 1.812.595v8.626l4.01 3.81 1.6.806 1.614 1.204-1.614.397-.993-.397-4.617-.596-2.606.794-2.817-.198-4.01 1.812h-2.21l-7.222-1.614-6.416.2-2.408 3.213-8.626.808-3.016 1.005-1.402 3.81-1.6 1.403-.61-.198-1.8-2.01-5.62 3.015h-.808l-1.403-2.01-1.004.198-2.408 5.425-1.204 5.014-3.947 8.687-1.452-1.29-1.7-1.28-2.42-12.77-4.394-1.7-2.543-2.83-15.043-3.414-3.55-1.278L14.41 53.07l-9.793-1.413L0 45.265z"/> </g></symbol> <symbol id="icon-mn" viewBox="0 0 140.3124 156.5831"><g> <path d="M37.545.012c-.857 3.128 1.154 9.21-1.626 10.352L0 10.326c1.44 3.562 2.706 7.15 1.204 10.935.062 7.125-.98 14.72 3.115 21.038 2.53 4.692.794 10.513 1.86 15.64 1.02 8.488 2.185 16.965 4.407 25.22.062 4.752 1.092 9.68.037 14.31-1.948 2.16-6.094 4.083-2.755 7.173 2.345 2.272 6.267 3.65 5.683 7.572.348 14.77.31 29.577.522 44.37 33.163-.47 66.326-.93 99.49-1.4-.186-4.494-.57-9.844-5.412-11.755-3.748-2.06-7.744-3.848-9.47-8.068-.893-4.48-6.602-1.44-7.508-5.722-1.937-2.594-6.566-.46-8.155-4.692-2.06-2.606-.645-6.826-1.365-10.053-1.663-3.637 2.048-6.193 1.824-9.358-.25-3.997-6.653-4.78-2.78-9.222.508-5.548 6.69-6.615 9.444-10.66.298-4.805-.906-10.104.646-14.61 2.184-3.897 6.417-6.33 10.277-7.77 2.383-2.58 4.542-5.67 7.608-7.21 3.152-6.17 7.496-12.4 14.658-14.15 5.647-2.457 11.32-4.865 16.88-7.496.905-3.91-4.593-.223-6.28.037-1.02-4.803-5.214-3.835-9.036-3.562-2.793-1.08-6.628 3.513-7.447-.82-1.403-4.343-5.598.895-7.298 2.645-2.892 2.023-7.72 1.44-10.004-.695 1.167-3.786-5.722-.484-5.622-4.915-.2-2.855-4.32 1.613-7.162-1.49-3.773-1.13-6.826-3.996-10.29-5.436-3.09.498-7.272-2.953-8.315 1.863-1.453.98-8.875 2.27-7.36-1.912-3.712.04-7.485-.06-9.346-2.17-3.227.732-7.1-.51-7.323-4.258-1.09-4.07-1.786-8.204-2.332-12.386C40.87.57 39.245.05 37.545 0z"/> </g></symbol> <symbol id="icon-mo" viewBox="0 0 138.67913 123.98904"><g> <path d="M1.37 2.985c-2.968-.57-.237 5.026.086 6.95 3.04 4.12 5.597 9.755 10.61 11.443 3.49-.297 4.482 3.314 3.464 6.008-3.996 2.035-2.135 6.242.236 8.774 1.117 3.165 5.722 3.786 6.07 6.963 2.606 16.098 1.39 32.444 1.873 48.678 0 7.1.1 14.2.893 21.262 31.016-1.167 62.033-2.234 93.05-3.115 3.747-1.39 5.398 2.134 6.59 4.94.645 4.32-3.55 5.535-5.14 8.514 2.942.795 6.914.807 10.19-.1 1.813-4.454 2.322-9.245 2.955-13.924 1.042-3.513 6.54-3.587 5.72-7.484 1.702-3.65.175-5.71-2.754-5.313-2.668-2.247-3.525-6.244-3.55-9.433 1.8-3.525-2.58-6.293-3.028-9.793-.82-4.02-6.628-1.08-8.552-4.543-3.276-2.903-7.744-4.89-8.576-9.63-1.167-3.984 1.887-8.03 2.693-11.964 2.732-4.382-1.662-5.834-5.373-5.586-3.3.484-6.627-1.427-5.97-5.088 1.068-5.052-5.845-5.027-7.98-8.6-3.35-4.22-8.34-7.51-9-13.245-1.364-3.922-2.63-8.514-.768-12.485-2.856-1.664-2.83-7.162-6.666-6.07-25.68.956-51.36 1.9-77.026 2.855z"/> </g></symbol> <symbol id="icon-mp" viewBox="0 0 40.743619 67.309796"><g> <path d="M0 64.7l2.038 1.427 1.708 1.183L0 64.7zm.152-11L3.9 49.79l-.333 3.705-3.415.208zm8.74-11.736l2.5-6.52 2.5 6.52h-5zm9.994-13.037v-6.52l3.745-1.304 1.25 6.52-4.994 1.304zM35.278 12.22L32 6.113l1.092-3.668L38.557 0l2.187 3.668V9.78l-5.466 2.44z"/> </g></symbol> <symbol id="icon-ms" viewBox="0 0 75.19184 130.43204"><g> <path d="M25.37 4.704c-1.8 2.16-5 3.91-5.745 7.484-1.738 2.755 1.774 7.124-3.34 7.534-1.836 2.445-5.92 5.486-4.22 8.9-1.687 2.27-4.455 4.9-4.318 8.7-2.68 3.3 1.924 6.552-.335 8.836-.56 2.284 2.792 5.486 1.675 8.725-2.383 3.364-2.023 8.13-.757 11.83 1.986 2.977.968 6.875 4.63 8.612-1.18 3.14-1.75 4.654-2.32 7.832-3.166 6.156-7.535 11.94-9.794 18.418.012 3.7-1.787 7.62-.174 11.133 14.15-.446 28.385.31 42.435-1.86 3.413 2.742-2.718 7.93 1.65 10.114 3.5 2.01 2.83 6.43 4.83 9.47 2.568-2.308 3.114-7.683 7.222-5.05 3.983-.833 8.5-3.75 12.274-.796 4.493.906 7.46-.335 5.486-5.287-1.005-12.537-3.71-24.91-4.766-37.422.174-27.292 1.837-54.585.794-81.878L25.37 4.692z"/> </g></symbol> <symbol id="icon-mt" viewBox="0 0 218.54111 137.65189"><g> <path d="M0 25.278c1.043 3.426 4.034 6.703 3.972 10.215-1.862 3.463-1.24 6.814.645 10.115 4.22.484 5.188 4.27 6.529 7.646 1.774 4.145 3.164 8.54 6.664 11.592 1.093 2.743 6.54 1.465 5.387 5.858-2.768 7.708-6.764 15.18-8.762 23.036.024 4.146 4.22 6.516 7.11 2.755 2-3.016 6.99-3.773 5.822 1.204-.62 6.577 2.247 12.845 3.215 19.274 2.358 2.483 6.54 4.27 7.05 7.832-.882 2.37-.484 10.897 2.88 6.38 2.295-2.346 6.118-.36 8.5 1.067 4.072-2.023 9.012-1.502 12.834.856 4.58.508 1.887-6.206 7.385-5.065 3.365-.52 2.496 8.304 3.985 5.09.695-4.047 1.353-8.118 2.085-12.164 44.148 5.574 88.308 11.122 132.456 16.682 3.6-35.298 7.186-70.597 10.785-105.882-35.794-2.843-71.427-7.336-106.973-12.4C78.417 14.258 45.34 8.56 12.61 1.15 8.825.394 3.934-2.063 4.505 3.87c-1.5 7.135-3.003 14.284-4.493 21.42z"/> </g></symbol> <symbol id="icon-nc" viewBox="0 0 191.46743 82.561087"><g> <path d="M169.89 1.303c-22.713 4.717-45.34 9.93-68.09 14.46-15.812 1.874-31.5 5.05-47.386 6.13-4.12-1.017-1.453 4.618-3.103 6.864-3.25 1.664-4.33 5.697-6.242 7.92-4.022-1.69-6.293 1.81-7.87 4.926-1.352-.707-3.673.037-4.23-1.75-2.508 2.433-5.425 4.63-5.35 8.452-4.543 1.366-7.832 4.742-11.52 7.398-3.275 1.166-7.148 2.68-9.183 5.4.906 5.038-3.7 4.094-6.33 6.564-2.457 5.82 3.4 3.302 6.926 3.103 7.956-1.477 16.533-.608 23.806-4.63 6.255-2.357 11.68-7.322 18.692-7.037 8.067-.794 16.32-.744 24.35-.856 3.712.658 4.17 5.945 6.926 6.218 6.665-1.005 13.492-2.073 20.17-2.22 6.676 1.687 11.927 6.763 18.02 9.84 4.456 3.277 8.602 7.026 12.946 10.476 3.91-1.066 7.844-1.96 11.902-2.134 1.316-5.647 2.532-11.53 6.69-15.86 5.213-5.3 11.456-10.29 19.027-11.532 3.61 2.42 4.58-3.6 6.54-5.622 3.376-6.206-3.03 4.853-3.054-1.514-4.803.868-6.74-.323-4.083-4.965 3.438-5.275-3.388-3.115-2.63-7.472-1.764-4.665 3.524 2.72 6.28 1.007 3.487.15 6.33-2.32 6.937-5.71.56-3.6 5.697-3.35 4.07-8.042-4.988-3.016 5.276-.82.498-4.878-4.37-4.27-6.504-10.34-8.974-15.837-1.91.434-3.823.88-5.746 1.316zm21.26 29.44c1.925 3.24-5.758 5.288-.645 3.34 1.713-2.384.26-6.48.298-9.46-.918-2.543.46 5.673.348 6.133z"/> </g></symbol> <symbol id="icon-nd" viewBox="0 0 138.89676 87.972505"><g> <path d="M0 82.152c32.84 1.85 65.644 4.592 98.547 4.852l40.35.97c.012-6.865-1.713-13.43-3.103-20.07-1.576-9.21-2.545-18.48-2.644-27.827-3.24-5.163-5.1-11.17-4.32-17.302-.545-4.034.833-8.154.373-12.04-.186-4.976-3.512-5.72-7.83-5.113C90.156 5.04 58.904 4.32 27.776 1.825 21.36 1.215 14.957.608 8.54 0 5.696 27.38 2.854 54.772 0 82.152z"/> </g></symbol> <symbol id="icon-ne" viewBox="0 0 174.36868 86.644494"><g> <path d="M.025 52.438c13.355 1.192 26.4 3.376 39.754 4.543-.46 8.826-.883 17.663-1.317 26.487 45.29 1.6 90.604 2.284 135.906 3.177-.386-1.452-3.886-5.026-5.003-7.633-2.47-2.617-.447-6.366-3.04-9.11-3.005-3.958-2.06-8.86-2.73-13.39-2.062-3.55-1.8-7.758-2.844-11.494-3.65-3.537-2.904-8.7-4.902-13.02-1.402-3.847-2.705-7.682-3.25-11.753-4.357 1.638-3.588-3.81-6.02-5.324-2.98-2.087-6.914-2.298-9.582-4.88-4.704.088-9.495 1.292-13.814 2.41-3.128-2.732-7.484-3.886-9.818-7.523C96.474 6.12 79.57 4.32 62.69 3.55 43.452 2.246 24.19 1.328 4.965 0 2.892 17.475 1.452 34.963 0 52.438z"/> </g></symbol> <symbol id="icon-nh" viewBox="0 0 32.747354 72.515107"><g> <path d="M8.718 1.6C6.98 1.094 3.914.71 4.932 5.326c.273 4.505-.906 9.73 2.768 13.144.41 3.45.1 6.65-2.693 9.047C4.77 31.03-2.415 30.72.85 34.12 2.29 43.24.153 52.773.08 62.057c1.49 2.42 1.216 5.448.943 8.377-1.328 4.704 6.007-.062 8.55.074 4.88-1.602 10.5-2.16 14.944-4.394.956-3.848 5.424-3.413 7.373-6.156 3.214-4.37-3.736-3.39-2.482-8.18-4.754.013-5.3-3.053-5.784-6.975C18.858 29.935 14.54 14.46 9.364 0c-.224.534-.435 1.055-.66 1.59z"/> </g></symbol> <symbol id="icon-nj" viewBox="0 0 28.674502 65.999233"><g> <path d="M3.732 2.805c1.278 3.71-2.26 5.958-2.557 9.27 3.55 2.024.608 6.046-1.142 7.113-.51 4.79 4.977 2.085 5.163 6.38 1.7 2.718 5.86 3.748 7.77 6.13-.186 3.24-4.778 4.345-5.82 7.522-.324 3.81-5.077 3.96-5.19 7.398-1.228 2.953-.917 6.317 2.11 8.03 3.538 3.425 8.515 4.952 13.32 5.436.594 1.924-2.285 8.91 1.364 4.456 1.862-3.004.732-7.385 3.86-9.942 3.103-5.064 6.243-10.972 6.057-16.892-1.676-5.05.992-11.183-2.247-15.91-1.365 1.637-7.658 1.525-5.126-.994 2.966-1.726 4.183-4.493 2.966-7.832.26-2.867 1.96-6.727-2.097-7.683C16.763 3.86 11.216 2.644 6.177 0c-.82.93-1.626 1.862-2.445 2.793z"/> </g></symbol> <symbol id="icon-nm" viewBox="0 0 149.64283 150.57593"><g> <path d="M.012 148.243c5.983.78 11.977 1.55 17.96 2.333.533-4.133 1.055-8.28 1.588-12.412 12.04 1.105 24.08 2.31 36.105 3.45-1.117-3.896-1.725-7.42 3.525-5.584 22.7 1.588 45.277 4.704 68.028 5.572 3.04-.744 9.507 2.644 9.916-1.253 3.798-28.46 4.655-57.206 6.938-85.814.67-9.67 1.726-19.312 2.507-28.968 3.984.806 1.452-5.97 2.57-8.515 2.22-5.436-3.563-4.182-7.113-4.778C101.887 8.18 61.722 4.095 21.57 0 14.386 49.41 7.2 98.833 0 148.243z"/> </g></symbol> <symbol id="icon-nv" viewBox="0 0 137.74245 212.72439"><g> <path d="M0 83.033c28.497 42.956 56.993 85.924 85.49 128.88 4.543 3.29 3.96-4.306 4.06-7.087.458-6.74.446-13.95 1.34-20.404 2.544-2.52 5.286-2.482 7.545-.484 3.252-.2 4.79 7.323 7.484 1.576 3.4-1.018 3.3-4.518 3.884-7.956 9.31-50.725 18.617-101.463 27.938-152.19C99.614 16.92 61.486 8.453 23.358 0 15.576 27.678 7.794 55.355.012 83.045z"/> </g></symbol> <symbol id="icon-ny" viewBox="0 0 155.8756 119.1923"><g> <path d="M97.79 2.383c-3.35 1.39-6.764 2.085-10.34 1.775-6.29.894-12.62 3.388-16.034 9.073-3.525 4.258-6.07 9.297-8.912 13.902-2.048 2.93-7.223 4.63-6.888 8.49-.21 4.417 7.16.905 5.498 5.435-3.34 2.855.993 5.25.695 8.18.62 4.306-5.288 2.47-6.653 4.964-2.01 3.364-4.158 8.217-8.962 7.51-3.773-.534-6.64 2.544-9.904 3.264-3.102-.93-5.832-2.544-9.42-1.626-6.59.26-13.18 2.458-18.902 5.623-.36 2.197.757 7.758 3.935 7.62 1.923 3.08 2.594 6.157-.782 8.342-1.874 2.184-2.233 5.275-5.163 6.578C3.562 92.925 2.63 95.866 0 97.145c.41 3.81-.273 9.048 5.064 6.354 27.48-5.288 54.933-10.774 82.2-17.054 1.217 4.778 7.038 1.638 7.994 4.965.794 3.637 1.688 9.185 6.615 8.54 3.897 2.358 8.564 4.567 13.268 5.237 3.365.584 8.913 1.775 7.994 6.28-.41 2.445-2.01 9.383 2.445 7.36 6.577-2.047 13.602-3.524 18.69-8.5 4.01-3.092 8.39-5.76 11.606-9.757-3.71-3.028-5.772.57-8.453 3.004-3.61 1.936-7.46 4.356-11.37 5.36-3.226-.78-5.993-1.066-7.67 2.57-1.277 2.533-6.03 3.7-4.94-.186 5.29-2.32-2.692-4.927-.408-7.707 1.477-3.884.695-8.526.52-12.67-1.774-9.16-4.58-18.32-3.15-27.753-.1-5.536 1.922-11.133-.634-16.396-1.514-3.176-.583-8.476-5.026-9.11-3.71-.818.93-5.348-1.95-7.694-2.11-3.016-3.933-6.094-1.91-9.693.472-7.162-4.754-13.12-4.406-20.293-2.88.807-5.77 1.6-8.65 2.408z"/> </g></symbol> <symbol id="icon-oh" viewBox="0 0 92.836951 100.50751"><g> <path d="M80.215 4.456c-6.02 2.556-9.16 8.564-14.236 12.374-5.064 1.067-10.04 2.172-14.547 4.816-4.232 1.998-5.448-5.077-9.52-3.265-3.884 1.677-6.813-1.364-10.065-2.99C21.174 16.817 10.562 18.667 0 20.826c1.8 22.13 5.114 44.098 7.286 66.19-.857 4.742 5.04 2.806 7.732 1.838 3.4.51 5.995 2.68 6.8 6.13 1.565 3.08 7.225-1.08 8.64 3.153 2.718 1.9 5.535-2.89 8.725-.72 3.128.05 6.975 1.875 8.49-1.936 1.85-.68 6.664-4.777 6.714-.88.472 3.14 4.74 4.43 7.162 5.834 4.38.78 2.878-4.853 5.224-6.84-.137-3.4.26-7.11 1.725-10.09 3.14-3.487 4.715 5.623 6.18.484-2.507-2.817-1.23-6.714 1.154-9.197 1.328-5.038 5.027-2.99 8.068-5.447 3.636-3.922 8.18-8.155 7.41-13.988.545-5.846 1.464-12.1-.66-17.66 1.826-3.08 3.204-5.326 1.193-9.1C89.313 19.25 88.668 9.52 86.967 0c-2.246 1.49-4.505 2.98-6.752 4.456z"/> </g></symbol> <symbol id="icon-ok" viewBox="0 0 184.59748 96.320638"><g> <path d="M0 12.35c21.732 1.39 43.49 2.147 65.235 3.065-1.7 16.904-3.587 33.796-3.513 50.8-1.142 4.878 4.32 7.174 7.62 9.507.696-6.9 3.675 1.812 5.276-1.626 1.154-1.86 6.913 2.086 4.207 5.486 1.974.82 5.908.633 8.353 2.26 3.463-1.23 6.404 4.12 8.725 1.563 2.26-2.395 6.938-.385 8.068 2.507 3.03.98 2.123 7.248 5.91 3.786 1.724-2.048 7.756-1.452 8.302 1.5 1.59 1.863 7.062 4.62 9.172 2.384.41-3.413 4.195-7.384 5.697-2.27 4.457.47 8.64 2.48 12.983 3.723 2.83-2.31 3.03-5.81 8.105-4.233 3.14 2.383 4.716-1.75 7.832-1.44 1.055 3.004 6.454 2.992 7.682-.62 3.972-.248 4.543 4.605 8.13 5.4 2.308.495 7.83 4.504 6.652.222-.397-15.228.125-30.52-.868-45.7-1.428-7.483-1.254-15.116-1.775-22.65-1.638-6.565-2.544-13.317-2.568-20.08-24.836.818-49.696-.05-74.544-.274C70.112 4.02 35.508 2.805 1.005 0L0 12.337z"/> </g></symbol> <symbol id="icon-or" viewBox="0 0 170.78331 140.57965"><g> <path d="M38.254 2.316c-3.624 9.445-5.5 19.56-10.75 28.323-3.548 10.586-7.396 21.01-12.62 30.89-3.8 8.205-9.93 15.28-14.05 23.21-1.28 8.068-.795 16.197-.448 24.327 46.208 10.798 92.416 20.715 138.624 31.513 4.282-16.32 8.08-31.96 12.647-48.17 1.49-3.077 3.91-7.52-1.365-6.726-3.202-2.21-.285-5.523-.472-8.577 2.855-3.5 5.412-7.223 9.272-9.618 2.172-6.307 6.74-11.408 11.207-16.21 2.06-4.32-3.054-4.866-4.208-8.03-.31-4.705-4.42-5.288-8.217-6.194-9.47-2.73-19.088-5.213-28.807-6.876l-18.232.11c-1.18-3.524-5.796 2.31-8.825.622-3.238 1.018-5.484-3.264-8.153-1.59-3.24-.073-6.49.138-8.874-2.32-3.835-1.9-7.857-2.246-11.79-3.847-2.322 3.76-7.063 1.514-10.588 1.626-2.048-2.035-7.186-3.748-7.484-5.97 1.366-3.028.97-7.36.66-10.66-.523-4.866-5.86-3.265-7.758-5.573-.547-5.4-6.926-.708-9.768-.26z"/> </g></symbol> <symbol id="icon-pa" viewBox="0 0 121.67696 78.465984"><g> <path d="M78.155 4.928c-21.72 4.195-43.28 9.21-65.123 12.76-.757-2.483.596-10.45-2.99-5.35C7.334 15.726 3.238 16.98 0 19.748c1.887 12.1 3.264 24.29 6.752 36.055 1.415 7.558 2.817 15.104 4.232 22.663 10.984-1.762 22.08-2.793 32.903-5.473 20.342-4.282 40.995-8.018 61.226-12.25 3.078-3.81 9.966-2.098 11.133-7.683.794-2.93 6.032-4.952 5.374-7.323-2.855-2.346-7.372-3.438-7.93-7.608-3.898 1.352-5.487-4.89-3.873-6.604 4.79-1.365-.61-4.568.682-7.397 3.127-2.335 1.39-6.393 3.487-8.776 4.803-3.35-3.7-1.366-4.617-4.952-1.676-2.706-.348-8.986-5.163-7.348-2.905-1.403-4.804-4.654-8.8-2.11C89.647 2.272 83.89 3.612 78.13 4.94z"/> </g></symbol> <symbol id="icon-pr" viewBox="0 0 82.99118 23.959904"><g> <path d="M5.678 3.48L6.842.443l2.326.607 2.326 1.822 9.888 1.214 9.89-.607h4.07l3.49 1.213 2.327-1.82h2.906l6.98.606 6.98 1.82 2.326 2.43h4.07l.582 3.644-.58 2.428-4.653.607-2.908 1.213-1.165 3.035-1.744 3.037-3.49 1.82H37.67l-2.907-1.213h-5.815l-2.91-1.214-4.653 1.214h-5.816l-2.907-2.428-3.492 1.214-4.653.607-.582-3.037 1.163-1.82L6.26 13.8l-1.164-3.644L.444 6.514 2.19 5.3zM69.09 19.88l-2.522.878 5.046 1.756 6.728-1.756 1.682-2.634-4.205.878zm11.775-6.145l-2.103-1.317 2.944-2.195.84 2.195z"/> </g></symbol> <symbol id="icon-ri" viewBox="0 0 15.586368 19.175698"><g> <path d="M0 1.837c1.427 5.784 2.842 11.555 4.27 17.34 3.177-.61 5.783-2.843 7.248-5.66 5.175.942 4.964-3.277 1.874-6.17C11.17 4.94 9.47.758 6.268 0 4.183.608 2.085 1.23 0 1.837z"/> </g></symbol> <symbol id="icon-sc" viewBox="0 0 107.47535 81.622593"><g> <path d="M30.814.49c-5.287.495-10.724.533-15.192 3.81C11.652 6.47 7.58 8.257 3.36 9.87c2.743 4.108-5.312 3.4-2.904 7.993 2.817 2.78 6.453 5.126 10.55 4.07 3.14 3.91 4.753 8.614 8.104 12.263 1.13 3.426 6.367 2.557 8.502 5.536 2.705 1.713 3.674 5.275 6.975 6.218 3.71 2.42 4.17 7.92 9.01 8.986 4.48.77 4.68 5.92 6.628 9.16.472 4.157 2.508 6.007 5.946 7.397 4.17 2.22 2.185 8.973 7.038 10.128 4.505-1.713 7.2-5.747 10.4-9.11-2.916-4.878.36-4.12 3.737-5.51 2.42-2.98 6.23-4.097 7.757-7.796 2.693-2.482 4.79-5.61 6.702-8.563 3.488-.21 4.245-4.444 6.106-6.243-.347-5.125 1.614-9.792 3.873-14.235 1.278-2.62 8.725-5.586 4.306-7.87-7.41-6.64-15.862-11.79-24.464-16.717-5.523-3.327-12.088-.087-18.083-.074-3.19-.286-8.23 3.078-9.085-1.59-2.06-5.584-8.6-3.5-13.194-3.673L30.826.503z"/> </g></symbol> <symbol id="icon-sd" viewBox="0 0 148.74168 97.668919"><g> <path d="M0 77.845c31.873 1.96 63.758 3.91 95.643 5.287 4.443-.012 9.11-.633 13.417-.285 2.234 3.6 6.503 4.778 9.544 7.446 4.406-1.8 9.333-2.345 13.963-2.37 3.04 3.314 9.01 2.842 11.356 6.615 1.64 5.908 4.06 2.31.224-1.427-1.9-2.692 1.812-5.708 1.936-8.675 1.49-3.562 1.713-6.553-1.96-8.378-.622-2.53-.907-8.253 2.99-7.248 3.252-.348.484-6.554 1.316-9.31-.4-12.04.234-24.165-.796-36.154-.297-4.443-7.77-5.2-6.727-10.426 1.353-1.514 7.21-5.436 3.413-6.702-33.796-1.104-67.642-1.253-101.364-3.91L6.516 0 0 77.845z"/> </g></symbol> <symbol id="icon-tn" viewBox="0 0 181.79493 62.24558"><g> <path d="M176.88 2.397c-11.008-.137-22.042 1.86-32.977 3.388-12.71 3.55-26.05 3.3-39.07 4.99-20.28 1.8-40.524 4.083-60.768 6.143-5.672-2.122-.533 7.124-6.28 5.138-8.65.074-17.214 1.527-25.865.882-1.18 5.287-2.703 12.32-4.468 15.837-1.766 3.517-2.98 7.07-3.54 9.832-.564 2.763-6.84 3.775-2.233 7.567 4.607 3.792 1.655 5.665 1.49 6.058-.166.394 84.187-8.104 126.274-12.15-.286-3.153.894-6.59 4.38-7.063 3.86-.497 1.23-6.715 6.058-7.212 3.438-2.507 8.055-2.718 10.7-6.43 2.183-2.804 7.83-2.034 7.173-6.676 1.476-2.197 3.847-4.766 6.242-6.02 1.29-.484.348 2.21 2.135 1.477 2.954.694 2.73-5.412 6.48-4.792 4.095 1.577 3.325-3.624 6.155-5.188 2.545-1.166 4.73-8.29 1.142-8.18-1.006.796-2.024 1.578-3.03 2.372v.025z"/> </g></symbol> <symbol id="icon-tx" viewBox="0 0 300.46526 289.90441"><g> <path d="M88.702 1.03c2.904-.137-1.068-2.247 0 0zm.893 22.725c-2.035 25.865-3.127 51.818-5.808 77.634-.633 5.373-1.23 10.747-1.874 16.11-22.142-1.08-44.272-2.397-66.302-4.83-5.163-.508-10.326-.943-15.49-1.377-.83 4.642 2.818 4.567 5.015 7.596 2.805 2.27 1.403 7.483 5.772 8.066 4.368.596 3.6 5.71 6.764 7.87 4.196 3.91 6.827 9.817 12.747 11.244 2.37 1.576 4.965 3.996 5.623 6.776.856 4.915 5.622 8.713 4.307 14.063-1.093 6.39 2.755 11.95 7.36 15.985 2.705 3.66 6.38 5.908 10.71 7.173 2.334 2.42 3.736 4.816 7.1 6.057 3.215.224 6.677 5.387 9.122 1.465 3.214-3.897 6.8-7.956 7.508-13.094 1.564-3.5 4.444-5.362 8.068-6.28 3.376-1.974 6.603-2.644 9.27.77 6.095.706 12.66.657 18.358 2.754 3.512 1.775 3.177 5.623 6.416 7.857 2.148 2.544 5.995 4.182 7.212 7.223 1.7 2.57 3.3 5.288 3.338 8.726 2.01 5.386 5.176 10.562 6.59 16.06-.297 3.438 5.772 3.09 6.144 6.84 2.78 5.063 5.424 11.38 11.43 13.018 4.072 2.483.04 6.256 1.13 9.31 4.072 1.08-.012 5.808 1.167 8.277 3.142 1.69 5.425 3.973 5.24 7.994.483 4.146 2.643 8.478 7.06 9.36 3.737 2.394 8.305 2.642 12.25 4.22 2.83 2.22 6.393 5.075 10.13 3.51 4.293.572 8.402 1.602 11.63 4.655 1.774 3.152 8.08-1.13 5.348-3.588-2.532-4.207-1.613-9.668-3.512-14.223-.782-3.81-2.967-7.386-1.23-11.296 1.453-6.08 3.563-12.113 5.015-18.257-4.182-1.253-2.568-6.79 1.503-5.846 4.952.523 4.53-7.98 9.693-7.508 6.516-1.936 11.257-7.446 17.575-9.99 8.577-3.488 16.905-8.02 23.235-14.957 3.202-3.698 8.8-4.902 10.786-9.62 6.206-2.754 12.164-6.117 18.89-7.445-1.203-3.277.646-6.032 1.64-8.962.483-3.71.235-7.533 1.464-11.095-3.91-2.818.47-6.094 1.713-9.197-.25-3.475 1.762-7.757.11-10.75.374-3.635-1.848-6.378-4.157-9.047-3.053-3.277-1.377-8.577-4.803-11.816-3.14-5.672-1.973-12.648-2.792-18.89.024-6.206.235-12.412-.62-18.58-3.265-2.868-6.852 2.89-9.334-1.7-3.847-2.57-9.507-2.607-12.076-7.05-2.867-3.08-4.74 3.524-8.91 1.19-2.372-3.387-4.457.038-7.423.224-2.817-1.427-7.533-1.837-7.558 2.185-3.425 2.94-7.385-1.155-11.096-1.59-3.723 1.714-6.49-4.753-7.82-2.32-.185 3.302-3.127 6.33-6.366 4.146-4.01-.188-6.094-3.092-8.154-4.83-3.662-2.16-5.337 2.88-8.614 1.093-1.837-1.725-2.32-4.468-4.865-7.013-3.798-3.512-6.243 3.935-8.85.286-2.544-2.62-6.913-1.03-9.854-3.34-4.42.733-6.876-.297-5.126-5.1-2.346-2.296-2.83 1.502-5.92-.174-.733-.51-4.282 2.21-6.206-1.378-2.357-2.358-6.366-3.996-5.187-8.005.037-13.132.31-26.25 2.06-39.283.372-3.71.745-7.422 1.105-11.146-21.906-.78-43.813-1.575-65.707-2.754L89.596 23.78zM221.58 233.943c-6.455 8.9 3.635-4.06 0 0z"/> </g></symbol> <symbol id="icon-ut" viewBox="0 0 117.72276 152.95892"><g> <path d="M0 138.375c34.218 4.866 68.45 9.72 102.668 14.584 5.014-36.094 10.028-72.2 15.055-108.29-13.442-1.416-26.87-2.893-40.3-4.457 1.775-9.842 3.5-19.672 4.766-29.59C63.235 7.088 44.283 3.538 25.33 0 16.892 46.133 8.452 92.254 0 138.388z"/> </g></symbol> <symbol id="icon-va" viewBox="0 0 161.90408 90.207081"><g> <path d="M106.866 0c-.198 1.812.298 7.31-2.98 5.325-3.2-.832-7.967-3.972-10.213-3.39.87 4.618-1.812 8.404-3.71 12.338-3.787 1.415-2.843 7.236-7.25 6.926-2.01 2.16-1.824 6.59-3.04 9.593-3.835 1.415-6.665-.596-9.036-2.172.137 8.068-4.617 14.833-7.335 22.143-2.098 2.147 1.477 4.716-.918 7.16-1.676 4.42-4.704 3.377-7.683 5.202-3.375 1.365-6.08.62-6.7 5.722-2.57 1.414-5.996 3.264-8.578.583-2.954 1.874-6.23 3.984-9.693 1.986-3.34-.012-4.842-8.13-7.535-3.65-4.058 5.077-9.792 9.285-12.672 15.006.534 4.034-5.535 4.12-7.968 6.392-5.3 2.42 4.493-.136 6.404-.087 6.9-.98 13.826-1.7 20.8-1.688 2.42-3.29 6.182-2.247 9.645-2.05 9.755-.396 19.423-2.63 29.142-3.71 15.948-1.737 31.574-5.3 47.213-8.75 14.46-3.128 28.92-6.243 43.39-9.37-2.035-3.302-3.413-8.28-7.968-5.14-2.47 2.52-8.204-2.258-3.35-3.077 3.288-2.01-2.173-5.05-2.235-7.41-3.388-.77-3.574-6.354.67-4.468-.21-1.7-1.54-4.493-2.01-7.05 1.824-4.356-1.043-6.168-4.617-6.404.384-4.243-3.6-3.635-6.48-4.926-4.132.26-8.762-.31-12.3-2.06-1.513-2.99-1.128-6.355 1.552-8.54 1.726-3.512-.347-7.074-4.095-7.78-3.29-1.032-8.65-.36-7.112-5.338C109.175.943 107.66 0 106.865 0zm48.604 26.797c.546 5.845-3.91 10.797-3.252 16.73-.422 5.1 3.276 7.1 4.32 1.142 2.12-3.774-.287-8.03.992-12.077.496-3.14 4.542-4.816 4.37-8.353-2.15.856-4.296 1.713-6.443 2.557z"/> </g></symbol> <symbol id="icon-vi" viewBox="0 0 55.436747 40.355879"><g> <path d="M6.224 38.708L3.457 36.54 0 34.38l.69-2.89 3.458-1.44 4.842.72 2.072-3.61h3.457l2.072 2.163L24.2 30.77l3.454.72 2.77 2.168-1.384 2.883h-4.148L15.21 38.71zm27.4-2.773l-.54-1.963 1.617-.985 3.782.49 2.7-1.474 2.158.493.542 2.46 2.698 1.963.54 1.966-2.16.98-3.24-.98-3.78 1.47-1.617-1.47-.54-1.967zM23.565 11.61l4.942 1.29 3.09-.646 4.32 2.58 1.857-.645 1.232-1.936 1.854-3.226 3.705 1.935 1.854-1.288 8.097 1.163.92-4.806L51.98 4.52h-6.176L35.302 1.292l-4.322.642L23.566.65l-2.468 1.285L19.244.65 14.3 0s-2.915.984-.616 2.584c3.704 2.577 1.853 7.09 1.853 7.09z"/> </g></symbol> <symbol id="icon-vt" viewBox="0 0 34.39479 66.016596"><g> <path d="M0 7.844C.236 15.29 5.77 21.757 4.617 29.29c-3.078 5.25 5.61 9.05 2.755 14.374 1.117 1.973 5.784 2.432 5.04 6.516 1.34 5.225 3.55 10.35 2.283 15.837 4.158-.633 8.763-1.452 12.573-2.445-.26-2.644 1.874-7.137-.658-9.694.248-9.482 1.254-18.94 1.403-28.434-4.034-2.992.397-4.704 2.63-6.43 2.434-2.83 4.84-6.292 3.228-10.053C30.62 6.94 32.606 1.59 30.906 0 20.603 2.606 10.315 5.225.012 7.832z"/> </g></symbol> <symbol id="icon-wa" viewBox="0 0 142.6418 103.12687"><g> <path d="M42.134.72c.062 3.413 3.636 6.69 4.034 10.128-2.383 2.89-2.21 6.44-1.64 9.57-2.245 3.275 2.024 5.98.833 9.208-4.467 1.887-3.015-4.592-6.03-6.193-4.147-2.78 1.823-4.803 1.45-6.727C37.68 15.328 38 21.52 36.2 21.88c-5.3.77-9.605-3.387-14.694-3.97C15.376 15.54 9.74 11.853 5.98 6.342c-3.886-1.216-2.433 6.17-4.035 8.626-.78 3.475 3.215 6.28 1.75 10.19.646 4.79-1.6 9.37.224 14.013-1.317 3.575 5.894 6.877 3.648 7.932-4.282-1.304-7.695 3.97-2.793 5.386 1.95 1.204-.757 7.844-4.096 6.74-2.272 2.668 1.588 8.514 5.138 5.175 4.68-1.924 3.413 4.357 7.236 3.885 3.487-.298 5.287 4.108 5.635 6.963.048 3.08-.188 7.472-.324 9.657 3.264 2.184 6.218 5.287 10.5 4.493 3.972.82 5.833-4.046 9.892-.62 3.736.595 7.906 1.923 10.91 4.542 3.76 1.142 7.47-2.21 10.165 1.303 4.27 1.614 8.278.037 12.212-1.738 1.23 2.21 5.486 1.64 8.688 1.614 6.64-.235 13.256-.198 19.635 1.925 8.676 1.787 17.103 4.282 25.63 6.702l16.644-77.646C118.055 20.604 93.778 14.05 69.75 7.287 60.725 5.386 51.876 2.916 43.113 0l-.52.385-.46.335zm-7.298 7.993c-1.8-1.787-4.158-1.117-.968 3.065-.41-4.703 5.548.596 5.287-4.28-.918-1.776-3.637-.126-4.32 1.215zm2.867 2.37c-3.885 3.774 1.688 2.706.198-.31l-.197.31z"/> </g></symbol> <symbol id="icon-wi" viewBox="0 0 110.98767 117.94199"><g> <path d="M34.395.652c-5.04 3.413-10.81 6.106-16.792 7.248-3.575-1.34-6.876-1.39-6.913 3.326-.596 4.146.633 8.726-.584 12.623-2.507 4.045-8.576 5-9.135 10.4-3.263 3.45 2.744 3.798 2.77 6.863 2.22 3.6-2.645 5.883-1.652 9.495.36 3.636-.496 8.055 1.415 11.083 1.65 4.32 7.298.262 8.242 4.88 1.936 2.804 6.79 1.277 7.682 5.932 2.67 6.33 12.04 6.02 13.913 12.895.844 4.195.435 9.11 2.408 12.81 4.046 1.302 2.408 5.385.31 7.706-.98 4.915 3.14 10.352 8.378 10.24 2.83 1.986 6.032 2.048 9.718 1.477 16.173-.956 32.357-1.9 48.53-2.855-.025-5.523-2.458-10.686-2.31-16.296-2.11-2.533-1.067-5.177-.05-7.932.398-3.525 3.812-6.12 1.875-9.768-1.304-3.65-1.093-7.707 2.147-10.264-.25-3.513-.62-6.243-.2-9.842-1.414-5.213 3.278-9.31 4.58-14.1 1.143-1.402 3.91-10.35.907-6.12-3.29 4.73-6.194 9.943-10.153 14.014-1.066 2.557-3.983 5.647-6.465 5.585-3.19-1.564.347-5.573 1.117-7.956.583-3.65 3.972-5.275 5.076-8.502-4.108-1.6-3.438-6.243-4.393-9.83.024-3.835-1.527-6.304-5.325-6.913-2.656-4.555-8.738-3.45-13.144-5.113-8.85-2.322-17.637-5.45-26.895-6.194-3.078-.67-3.524-6.84-6.838-5.87-2.123-1.912-4.78-.87-7.224.16-3.475-1.638.844-5.697 1.862-7.918 2.706-1.663-1.9-2.656-2.867-1.24z"/> </g></symbol> <symbol id="icon-wv" viewBox="0 0 97.247021 95.990677"><g> <path d="M32.39.658c-1.985 2.768 1.614 6.23.31 9.62-.222 5.013-.78 10.064-1.042 15.054-2.407 4.443-5.498 9.122-10.127 11.332-3.91-1.65-4.865 4.033-7.148 6.18-1.937 2.83 3.276 6.12-.373 8.304-3.19 4.443-3.228-5.958-5.536-.882-1.64 3.215.025 7.472-1.676 10.34-2.26 1.91-.658 6.44-5.163 5.97-2.768.16-1.8 7.682 1.24 8.45 2.78 1.826 3.092 5.884 6.827 7.35 2.383 2.432 2.83 6.428 6.69 7.508 2.036 2.718 3.81 6.156 7.757 6.057 3.264.62 5.92-4.79 8.96-1.675 1.85 1.005 4.878-.707 5.685-2.27.534-5.673 4.245-3.365 7.484-5.45 2.965-1.166 5.98-1.216 6.974-5.51-1.564-3.215.373-6.206 1.937-9.483 2.768-5.97 5.86-11.927 5.797-18.68 3.29-2.866 4.617 4.42 8.75 1.75 2.035-2.196 1.39-7.036 3.227-9.42 4.307.485 3.686-4.914 7.15-6.466 2.84-3.86 4.368-8.44 3.797-13.28 1.316-1.6 6.33 2.01 8.974 2.668 4.096 4.158 5.387-2.457 3.537-5.026-2.48-2.83-6.353-4.592-9.456-5.896-4.108 1.217-6.752 6.79-11.642 4.928-2.31-.286-2.954 4.94-6.032 4.815-3.587.882-4.704 5.437-7.484 7.72-1.365-.074-1.23-5.982-2.01-8.24-.013-4.88-2.198-6.58-6.802-4.742-5.226.745-10.438 1.526-15.65 2.37C35.89 16.048 34.5 8.018 33.073 0l-.435.434-.225.224z"/> </g></symbol> <symbol id="icon-wy" viewBox="0 0 148.55284 124.33808"><g> <path d="M0 108.55c46.42 5.573 92.205 10.215 138.624 15.788 3.103-36.24 6.826-71.552 9.93-107.78C104.79 11.033 61.026 5.51 17.263 0 11.504 36.192 5.76 72.37 0 108.563z"/> </g></symbol></svg>