<svg id="Layer_1" data-name="Layer 1" xmlns="http://www.w3.org/2000/svg" viewBox="0 0 32.15 32.16"><defs><style>.cls-1{fill:#fff;}</style></defs><title>Untitled-1</title><g id="g3296"><g id="g3302"><path id="path3304" class="cls-1" d="M11,9.76h4.82c4.69,0,7.43,2.45,7.43,6.24v0c0,3.79-2.78,6.86-7.51,6.86H11V9.76Zm4.88,9.63c2.18,0,3.88-1.18,3.88-3.3v0a3.71,3.71,0,0,0-3.88-3.67H14.5v7h1.38Z"/></g><g id="g3306"><path id="path3308" class="cls-1" d="M16.08,32.16A16.08,16.08,0,1,1,32.15,16.08,16.1,16.1,0,0,1,16.08,32.16m0-28A11.95,11.95,0,1,0,28,16.08,12,12,0,0,0,16.08,4.13"/></g></g></svg>