<svg id="Layer_1" data-name="Layer 1" xmlns="http://www.w3.org/2000/svg" viewBox="0 0 32.15 32.16"><defs><style>.cls-1{fill:#fff;}</style></defs><title>Untitled-1</title><path class="cls-1" d="M24.74,13.52H23.92V16h0.81a1.81,1.81,0,0,0,1.16-.33,1.15,1.15,0,0,0,.37-0.93Q26.27,13.52,24.74,13.52Z"/><path class="cls-1" d="M18,14.25a1.87,1.87,0,0,0-.67-0.52,2.16,2.16,0,0,0-.91-0.18,1.87,1.87,0,0,0-1.56.69A2.83,2.83,0,0,0,14.36,16a3.5,3.5,0,0,0,.15,1,2.45,2.45,0,0,0,.42.81,1.81,1.81,0,0,0,.67.53,2.14,2.14,0,0,0,.91.18,2.07,2.07,0,0,0,.89-0.18,1.9,1.9,0,0,0,.67-0.51,2.24,2.24,0,0,0,.41-0.79,3.8,3.8,0,0,0,0-2.06A2.43,2.43,0,0,0,18,14.25Z"/><path class="cls-1" d="M16.08,0A16.08,16.08,0,1,0,32.15,16.08,16.08,16.08,0,0,0,16.08,0ZM11.2,19.5A5.76,5.76,0,0,1,9.74,20a7.34,7.34,0,0,1-1.69.19A5.16,5.16,0,0,1,6.32,20,3.75,3.75,0,0,1,5,19.15a3.62,3.62,0,0,1-.87-1.29,4.63,4.63,0,0,1-.31-1.74,4.74,4.74,0,0,1,.3-1.75,3.63,3.63,0,0,1,2.21-2.15,5.15,5.15,0,0,1,1.76-.28,7.11,7.11,0,0,1,.79,0c0.27,0,.54.07,0.8,0.13a6.08,6.08,0,0,1,.75.21,3.07,3.07,0,0,1,.64.3L10.42,14.3a4.53,4.53,0,0,0-2.28-.66,2.25,2.25,0,0,0-1.71.65,2.45,2.45,0,0,0-.63,1.77,2.73,2.73,0,0,0,.58,1.86,2.17,2.17,0,0,0,1.73.67,3.3,3.3,0,0,0,.68-0.07,3.39,3.39,0,0,0,.59-0.17V17.18h-2v-1.6H11.2V19.5Zm9.12-1.74a3.86,3.86,0,0,1-2.21,2.17,4.48,4.48,0,0,1-1.65.3A4.81,4.81,0,0,1,14.83,20a3.71,3.71,0,0,1-1.31-.79,3.64,3.64,0,0,1-.87-1.29,4.66,4.66,0,0,1-.32-1.78,4.48,4.48,0,0,1,.32-1.71,3.86,3.86,0,0,1,.88-1.32,3.91,3.91,0,0,1,1.32-.84,4.48,4.48,0,0,1,1.65-.3,4.9,4.9,0,0,1,1.64.27,3.67,3.67,0,0,1,1.31.79,3.71,3.71,0,0,1,.88,1.29A4.61,4.61,0,0,1,20.64,16,4.48,4.48,0,0,1,20.32,17.76Zm7-1a4.07,4.07,0,0,1-2.62.74H24v2.68H22V11.93h2.93a4.78,4.78,0,0,1,1.47.2,3.13,3.13,0,0,1,1.06.56,2.28,2.28,0,0,1,.65.87,2.82,2.82,0,0,1,.22,1.12A2.58,2.58,0,0,1,27.37,16.81Z"/></svg>