<svg id="Layer_1" data-name="Layer 1" xmlns="http://www.w3.org/2000/svg" viewBox="0 0 32.16 32.16"><defs><style>.cls-1{fill:#fff;}</style></defs><title>npp-logo</title><path class="cls-1" d="M16.09,0A16.08,16.08,0,1,0,32.16,16.09h0A16.08,16.08,0,0,0,16.09,0ZM7.86,20.1H5.8V12H7.86V20.1Zm9.27,0.08h-2.2l-3.42-5.34V20.1H9.58V12h2.24l3.38,5.28V12h1.94v8.2Zm4.6-.08H18.82V12h3.06c2.86,0,4.48,1.59,4.48,4S24.71,20.1,21.74,20.1Z"/><path class="cls-1" d="M21.75,13.63H20.89v4.82h1a2.17,2.17,0,0,0,2.43-2.39C24.28,14.38,23.44,13.63,21.75,13.63Z"/></svg>