<svg id="Layer_1" data-name="Layer 1" xmlns="http://www.w3.org/2000/svg" viewBox="0 0 32.15 32.16"><defs><style>.cls-1{fill:#fff;}</style></defs><title>Untitled-2</title><path class="cls-1" d="M25.08,13.55H24.23v2.6h0.85c1.09,0,1.61-.48,1.61-1.32S26.15,13.55,25.08,13.55Z"/><path class="cls-1" d="M16.23,13.55H15.38v2.6h0.85c1.09,0,1.61-.48,1.61-1.32S17.29,13.55,16.23,13.55Z"/><path class="cls-1" d="M16.08,0A16.08,16.08,0,1,0,32.15,16.08,16.08,16.08,0,0,0,16.08,0Zm-5,20.28H8.84l-3.5-5.47V20.2h-2V11.88H5.65L9.1,17.28V11.88h2v8.41Zm5.16-2.5H15.43v2.49H13.31V11.88h3.07c2.33,0,3.55,1.17,3.55,2.89C19.94,16.71,18.62,17.78,16.24,17.78Zm8.85,0H24.28v2.49H22.17V11.88h3.07c2.33,0,3.55,1.17,3.55,2.89C28.79,16.71,27.48,17.78,25.09,17.78Z"/></svg>