<svg id="Layer_1" data-name="Layer 1" xmlns="http://www.w3.org/2000/svg" viewBox="0 0 480 199.3"><defs><style>.cls-1{fill:#f55b5b;}.cls-2{fill:#0076d7;}.cls-3{fill:none;stroke:#0076d7;stroke-miterlimit:10;}</style></defs><title>sanders-logo</title><g id="logo"><g id="swish-bottom"><path class="cls-1" d="M480,146.5s-1.8-.4-5.1-1.1c-1.7-.4-3.7-0.7-6.1-1.2s-5.2-.9-8.3-1.4c-6.2-1.1-13.8-2-22.5-3s-18.6-1.8-29.3-2.4-22.4-1-34.7-1.3c-6.2-.1-12.5-0.1-19-0.1s-13.1.1-19.8,0.2c-13.4.3-27.3,0.7-41.4,1.5s-28.4,1.6-42.7,2.7l-21.4,1.8c-7.1.6-14.2,1.3-21.3,2-3.5.4-7,.7-10.5,1.1s-6.9.7-10.4,1.1l-10.3,1.2c-3.4.4-6.8,0.8-10.2,1.1-13.5,1.3-26.6,2.3-39,2.7-6.2.2-12.3,0.4-18.1,0.4s-11.5,0-16.9-.1c-10.9-.3-20.8-1-29.6-1.9a188.47,188.47,0,0,1-22.7-3.9c-3.1-.8-5.9-1.6-8.3-2.4s-4.4-1.7-6-2.4a31,31,0,0,1-3.5-1.9c-0.8-.5-1.2-0.8-1.2-0.8a11.12,11.12,0,0,0,1.3.5c0.8,0.3,2.1.7,3.7,1.2a50.63,50.63,0,0,0,6.1,1.2c2.4,0.4,5.2.7,8.3,1s6.6,0.4,10.3.5,7.8,0.1,12.2.1c8.7-.1,18.6-0.5,29.3-1.1,5.4-.3,10.9-0.7,16.7-1.2s11.8-1,17.9-1.5c12.3-1.1,25.2-2.5,38.6-4.1,6.7-.8,13.5-1.6,20.4-2.5s14-1.6,21-2.2,14.2-1.3,21.4-1.9,14.4-1.1,21.6-1.5c14.4-.9,28.9-1.5,43.1-1.8s28.2-.3,41.8,0c6.8,0.2,13.4.4,20,.7s12.9,0.7,19.1,1.2c12.4,0.9,24.1,2.1,34.9,3.5s20.6,3.1,29.3,4.8,16.2,3.5,22.4,5.2c3.1,0.8,5.8,1.7,8.2,2.4s4.4,1.4,6,1.9C478.3,145.9,480,146.5,480,146.5Z"/></g><g id="bernie"><path id="b" class="cls-2" d="M110.7,85.8C110.7,72.1,103,64.3,87,62c13.3-2.9,19.7-10.1,19.7-21.6,0-17.2-10.7-24.1-37.5-24.1H25.9V27.1h7.4c2.1,0,2.8,1,2.8,4V97c0,3-.7,4.2-2.8,4.2H25.9V112H69C98.1,112.1,110.7,104.2,110.7,85.8ZM56.4,27.1H68.6c12.5,0,16.9,4,16.9,15.7,0,11-5.8,15.6-17.8,15.6H56.4V27.1Zm0,40.7H70.8c12.6,0,18.2,4.6,18.2,17,0,12-5.2,16.4-19.1,16.4H56.4V67.8Z"/><polygon id="star" class="cls-2" points="349 30.1 358.5 23 368 30.1 364.4 18.6 373.9 11.5 362.2 11.5 358.5 0 354.9 11.5 343.2 11.5 352.7 18.6 349 30.1"/><path id="ernie" class="cls-2" d="M452.8,122.7q-2.4-.75-6-1.8c-2.4-.7-5.1-1.5-8.2-2.2-5.7-1.5-12.7-3-20.6-4.6,0.9,0,1.8.1,2.7,0.1,18.7,0,28.5-9.8,32.5-22.1l-11.3-5.4c-3.4,9.3-9.3,14.8-19.6,14.8-13.5,0-20.2-9.5-20.6-23.8h52.5V73.8c0-25.4-12.6-40.6-35.4-40.6-22.2,0-37.5,16.4-37.5,40.4,0,18.6,8.2,33.1,24.5,38.4-5.9-.9-12.1-1.8-18.8-2.7-1.9-.2-3.9-0.5-5.9-0.7v-8.4h-6.2c-1.6,0-2.4-.8-2.4-4.1V33.7a85.73,85.73,0,0,1-17.3,1.6H343.3V47.1h5.8c2.5,0,3.3,1.4,3.3,6.3V96.2c0,3.3-.7,4.1-2.4,4.1h-6.7v5.3c-0.7,0-1.5-.1-2.3-0.1v-5.2h-6.5c-1.6,0-2.5-.5-2.5-4.1V61.9c0-19.2-8.2-28.7-23.4-28.7-11.6,0-19.9,5.2-24.5,15.8V33.7a83,83,0,0,1-17.2,1.6H250c3.9,1.8,6.6,8.7,7,11.9h4.7c1.9,0,2.5.9,2.5,4.7V96.2c0,3.6-.9,4.1-2.5,4.1h-6.5v5c-8.9.3-17.8,0.8-26.8,1.4-0.4,0-.7.1-1.1,0.1v-6.5h-7c-1.6,0-2.5-.5-2.5-4.1V72c0-16.1,5-25.7,14.8-25.7a6.85,6.85,0,0,1,4.9,1.6A10.63,10.63,0,0,0,230.4,58a10.33,10.33,0,0,0,10.1,10.4c8.5,0,14.1-6.6,14.1-16.6,0-11.4-6.7-18.6-17.3-18.6-8.6,0-16.2,5.1-19.6,17.4V33.7a85.73,85.73,0,0,1-17.3,1.6h-12V47.1h7c1.9,0,2.5.9,2.5,4.7V96.1c0,3.6-.9,4.1-2.5,4.1h-6.5v9.7l-3.3.3c-6.8.7-13.6,1.4-20.3,2.2,10.9-3.3,17.2-11.1,20.2-20.4l-11.3-5.4c-3.4,9.3-9.3,14.8-19.6,14.8-13.5,0-20.2-9.5-20.6-23.8h52.5V73.7c0-25.4-12.6-40.6-35.4-40.6-22.2,0-37.5,16.4-37.5,40.4,0,23.2,12.7,39.9,38,40.5l-7.4.9c-6.7.8-13.2,1.5-19.7,2.2s-12.7,1.3-18.9,1.8c-12.3,1-23.9,2-34.6,2.4-5.4.2-10.5,0.5-15.4,0.6s-9.5.2-13.9,0.2-8.4-.1-12.2-0.2-7.2-.4-10.3-0.7a84.71,84.71,0,0,1-14.3-2.5,29.36,29.36,0,0,1-3.7-1.3A6.45,6.45,0,0,1,0,117a8.59,8.59,0,0,0,1.2.7,29.54,29.54,0,0,0,3.6,1.8c1.6,0.7,3.6,1.5,6,2.3a81.19,81.19,0,0,0,8.3,2.2,220.82,220.82,0,0,0,22.7,3.5c8.8,0.8,18.7,1.4,29.6,1.5s22.6,0,35-.6,25.4-1.5,38.9-2.9c6.8-.7,13.6-1.5,20.4-2.3,3.4-.4,6.9-0.8,10.4-1.1s7-.7,10.5-1.1c14.1-1.4,28.4-2.7,42.6-3.8s28.6-2.1,42.7-2.7,28-1.1,41.4-1.3,26.4-.1,38.7.1,24,0.7,34.7,1.5,20.6,1.6,29.3,2.6,16.3,2.1,22.5,3.2c3.1,0.5,5.9,1.1,8.3,1.5s4.4,0.9,6.1,1.3c3.3,0.8,5.1,1.2,5.1,1.2S456,123.8,452.8,122.7ZM418.7,45.3c10.5,0,15,6,15.3,21.6H401.4C402.2,51.8,408.2,45.3,418.7,45.3Zm-267.6,0c10.5,0,15,6,15.3,21.6H133.8C134.7,51.8,140.6,45.3,151.1,45.3Zm141.5,59.1v-4.1h-5.8c-1.6,0-2.5-.5-2.5-4.1v-24c0-17.2,5.8-25.1,15.7-25.1,8.2,0,11.9,4.6,11.9,15.3V96.2c0,3.6-.9,4.1-2.5,4.1h-5.8v4.1h-11Z"/></g><line class="cls-3" x1="454.1" y1="182.3" x2="310.2" y2="182.3"/><line class="cls-3" x1="169.8" y1="182.3" x2="25.9" y2="182.3"/><g id="_2016" data-name="2016"><path id="two" class="cls-2" d="M185.8,198.3l-0.2-6.2c2.7-2.6,5-4.7,6.9-6.5s3.5-3.4,4.8-4.7a16.64,16.64,0,0,0,2.8-3.8,7.4,7.4,0,0,0,.9-3.6,4.45,4.45,0,0,0-1.3-3.3,4.75,4.75,0,0,0-3.5-1.3,9.24,9.24,0,0,0-4.2,1,13.09,13.09,0,0,0-3.7,2.4l-2.7-6.4a19.93,19.93,0,0,1,5.4-3,18.53,18.53,0,0,1,6.7-1.2,16.23,16.23,0,0,1,5.2.8,11.85,11.85,0,0,1,3.8,2.2A9.38,9.38,0,0,1,209,168a11.06,11.06,0,0,1-.1,8.5,17,17,0,0,1-2.7,4.3,38.39,38.39,0,0,1-4.5,4.6c-1.8,1.6-3.9,3.5-6.3,5.5h15.1l0.2,7.2H185.8v0.2Z"/><path id="zero" class="cls-2" d="M240.2,180.4c0,6-1.1,10.6-3.4,13.9a11.3,11.3,0,0,1-9.9,4.9c-4.3,0-7.6-1.6-9.7-4.8s-3.2-7.8-3.2-13.8,1.1-10.7,3.4-13.9a11.35,11.35,0,0,1,9.8-4.9c4.3,0,7.6,1.6,9.7,4.8C239.2,169.8,240.2,174.4,240.2,180.4Zm-8,.2a35.16,35.16,0,0,0-.4-6.1,13.38,13.38,0,0,0-1.1-3.8,5.62,5.62,0,0,0-1.6-2,3.61,3.61,0,0,0-2-.6,3.29,3.29,0,0,0-1.9.6,4.85,4.85,0,0,0-1.6,2,17.73,17.73,0,0,0-1.1,3.8,33.93,33.93,0,0,0-.4,6,32.73,32.73,0,0,0,.4,5.9,19.68,19.68,0,0,0,1.1,3.8,5.62,5.62,0,0,0,1.6,2,3.61,3.61,0,0,0,2,.6,3.29,3.29,0,0,0,1.9-.6,5.19,5.19,0,0,0,1.6-1.9,13.92,13.92,0,0,0,1-3.7A26.36,26.36,0,0,0,232.2,180.6Z"/><path id="one" class="cls-2" d="M252.4,171.1l-8.2,1.7-0.2-7.4,17.3-3.5v36.4h-8.9V171.1Z"/><path id="six" class="cls-2" d="M268.1,183.3a22.33,22.33,0,0,1,1.4-7.7,20.81,20.81,0,0,1,4.1-6.6,21.87,21.87,0,0,1,6.6-4.9,29.32,29.32,0,0,1,8.8-2.8l1.9,6.4a24.54,24.54,0,0,0-9.5,3.7,12.22,12.22,0,0,0-5,6.9l0.2,0.2a17.62,17.62,0,0,1,3.7-2.3,10,10,0,0,1,8.3-.2,8.39,8.39,0,0,1,3.1,2.2,9.77,9.77,0,0,1,2.1,3.4,13,13,0,0,1,.8,4.6,14.4,14.4,0,0,1-.9,5.1,12.67,12.67,0,0,1-2.5,4.2,12,12,0,0,1-4.1,2.8,14,14,0,0,1-5.6,1,13.22,13.22,0,0,1-5.7-1.2,11.44,11.44,0,0,1-4.2-3.3,15.81,15.81,0,0,1-2.6-5A23.2,23.2,0,0,1,268.1,183.3Zm8.3,2.6a10.9,10.9,0,0,0,.3,2.6,5.54,5.54,0,0,0,1,2.2,5,5,0,0,0,1.7,1.5,4.38,4.38,0,0,0,2.3.6,4.31,4.31,0,0,0,3.5-1.6,6.6,6.6,0,0,0,1.3-4.4,5.26,5.26,0,0,0-1.3-3.9,4.32,4.32,0,0,0-3.5-1.4,5.92,5.92,0,0,0-2.9.7,7,7,0,0,0-2.1,1.4A8.52,8.52,0,0,0,276.4,185.9Z"/></g></g></svg>